<svg xmlns="http://www.w3.org/2000/svg" width="662" height="310" style="
        width:662px;
        height:310px;
        background: white;
        fill: none;
">
        <svg xmlns="http://www.w3.org/2000/svg"><g><defs><pattern id=".29410308799771423" width="10" height="10" patternUnits="userSpaceOnUse"><path d="M 10 0 L 0 0 0 10" fill="none" stroke="lightgray" stroke-width="0.5"/></pattern></defs><rect width="100%" height="100%" fill="url(#.29410308799771423)" stroke="lightgray" stroke-width="0.5"/></g></svg>
        <svg xmlns="http://www.w3.org/2000/svg" class="role-diagram-draw-area"><g class="shapes-region" style="stroke: black; fill: none;"><g class="shape"><defs><!-- react-text: 66136 --> <!-- /react-text --><pattern id="_wm5max9jv" x="0" y="0" width="11.313708498984761" height="11.313708498984761" patternTransform="rotate(45,0,0)" patternUnits="userSpaceOnUse"><path d="M0,0 L0,11.313708498984761" style="stroke: rgb(255, 0, 0); stroke-width: 1; fill: none;"/><path d="M5.656854249492381,0 L5.656854249492381,11.313708498984761" style="stroke: rgb(255, 0, 0); stroke-width: 1; fill: none;"/><path d="M11.313708498984761,0 L11.313708498984761,11.313708498984761" style="stroke: rgb(255, 0, 0); stroke-width: 1; fill: none;"/></pattern></defs><polygon class="real" points=" 439.5,259.33 440.5,-0.67 420.5,0.33 409.5,43.33 390.5,86.33 365.5,123.33 329.5,159.33 293.5,182.33 258.5,197.33 228.5,203.33 187.5,208.33 149.5,206.33 150.5,259 310.5,258.33" style="stroke: none; stroke-width: 1; fill: url(&quot;#_wm5max9jv&quot;);"/></g><g class="arrow-line"><path class="connection real" stroke-dasharray="2.25 3.685" d="  M150.5,259 L149.5,206.33" style="stroke: rgb(0, 0, 0); stroke-width: 2; fill: none;"/></g><g class="composite-shape axis2d" style="stroke-width: 2; stroke: rgb(73, 135, 206);"><path class="real" d=" M41,259.7 L611.5,259.7 M88.74,16 L88.74,293"/><path d=" M604.5,254.7 L611.5,259.7 L604.5,264.7"/><path d=" M83.74,23 L88.74,16 L93.74,23"/></g><g class="arrow-line"><path class="connection real" stroke-dasharray="" d="  M149.5,206.33 C324.5,225.33 412.5,85.33 420.5,-5.67" style="stroke: rgb(70, 155, 36); stroke-width: 2; fill: none;"/></g><g class="intersections-group"><g style="stroke: rgb(0, 0, 0); stroke-width: 1; fill: none;"/></g></g><g/><g/><!-- react-empty: 69529 --></svg>
        <svg xmlns="http://www.w3.org/2000/svg" width="660" height="308" style="width:660px;height:308px;font-family:Asana-Math, Asana;background:white;"><g><g><g style="transform:matrix(1,0,0,1,145.77606201171875,277.6666717529297);"><path d="M271 204L242 77C238 60 236 42 236 26C236 4 245 -9 260 -9C283 -9 324 17 406 85L399 106C375 86 346 59 324 59C315 59 309 68 309 82C309 87 309 90 310 93L402 472L392 481L359 463C318 478 301 482 274 482C246 482 226 477 199 464C137 433 104 403 79 354C35 265 4 145 4 67C4 23 19 -11 38 -11C75 -11 155 41 271 204ZM319 414C297 305 278 253 244 201C187 117 126 59 94 59C82 59 76 72 76 99C76 163 104 280 139 360C163 415 186 433 234 433C257 433 275 429 319 414Z" stroke="rgb(179, 35, 24)" stroke-width="8" fill="rgb(179, 35, 24)" style="transform:matrix(0.017,0,0,-0.017,0,0);"></path></g></g></g><g><g><g style="transform:matrix(1,0,0,1,435.77606201171875,278.6666717529297);"><path d="M342 330L365 330C373 395 380 432 389 458C365 473 330 482 293 482C248 483 175 463 118 400C64 352 25 241 25 136C25 40 67 -11 147 -11C201 -11 249 9 304 54L354 95L346 115L331 105C259 57 221 40 186 40C130 40 101 80 101 159C101 267 136 371 185 409C206 425 230 433 261 433C306 433 342 414 342 390Z" stroke="rgb(179, 35, 24)" stroke-width="8" fill="rgb(179, 35, 24)" style="transform:matrix(0.017,0,0,-0.017,0,0);"></path></g></g></g></svg>
</svg>
