<svg xmlns="http://www.w3.org/2000/svg" width="662" height="310" style="
        width:662px;
        height:310px;
        background: white;
        fill: none;
">
        <svg xmlns="http://www.w3.org/2000/svg"><g><defs><pattern id=".29410308799771423" width="10" height="10" patternUnits="userSpaceOnUse"><path d="M 10 0 L 0 0 0 10" fill="none" stroke="lightgray" stroke-width="0.5"/></pattern></defs><rect width="100%" height="100%" fill="url(#.29410308799771423)" stroke="lightgray" stroke-width="0.5"/></g></svg>
        <svg xmlns="http://www.w3.org/2000/svg" class="role-diagram-draw-area"><g class="shapes-region" style="stroke: black; fill: none;"><g class="shape"><defs><!-- react-text: 66136 --> <!-- /react-text --><pattern id="_ielwt9ecv" x="0" y="0" width="11.313708498984761" height="11.313708498984761" patternTransform="rotate(45,0,0)" patternUnits="userSpaceOnUse"><path d="M0,0 L0,11.313708498984761" style="stroke: rgb(255, 0, 0); stroke-width: 1; fill: none;"/><path d="M5.656854249492381,0 L5.656854249492381,11.313708498984761" style="stroke: rgb(255, 0, 0); stroke-width: 1; fill: none;"/><path d="M11.313708498984761,0 L11.313708498984761,11.313708498984761" style="stroke: rgb(255, 0, 0); stroke-width: 1; fill: none;"/></pattern></defs><polygon class="real" points=" 310.5,145.33 253.5,121.33 227.5,112.33 202.5,116.33 176.5,135.33 149.5,179 150.5,259 310.5,258.33" style="stroke: none; stroke-width: 1; fill: url(&quot;#_ielwt9ecv&quot;);"/></g><g class="composite-shape"><path class="real" d=" M149.5,180 C232.83,-3 316.17,263 399.5,80" style="stroke-width: 2; stroke: rgb(70, 155, 36); fill: none;"/></g><g class="arrow-line"><path class="connection real" stroke-dasharray="2.25 3.685" d="  M150.5,259 L149.5,179" style="stroke: rgb(0, 0, 0); stroke-width: 2; fill: none;"/></g><g class="arrow-line"><path class="connection real" stroke-dasharray="2.25 3.685" d="  M399.5,259.33 L399.5,130.33" style="stroke: rgb(0, 0, 0); stroke-width: 2; fill: none;"/></g><g class="composite-shape axis2d" style="stroke-width: 2; stroke: rgb(73, 135, 206);"><path class="real" d=" M41,259.7 L611.5,259.7 M88.74,16 L88.74,293"/><path d=" M604.5,254.7 L611.5,259.7 L604.5,264.7"/><path d=" M83.74,23 L88.74,16 L93.74,23"/></g><g class="arrow-line"><path class="connection real" stroke-dasharray="2.25 3.685" d="  M399.5,130.33 L399.5,82.67" style="stroke: rgb(0, 0, 0); stroke-width: 2; fill: none;"/></g><g class="arrow-line"><path class="connection real" stroke-dasharray="2.25 3.685" d="  M310.5,258.33 L310.5,145.33" style="stroke: rgb(0, 0, 0); stroke-width: 2; fill: none;"/></g><g class="intersections-group"><g style="stroke: rgb(0, 0, 0); stroke-width: 1; fill: none;"/></g></g><g/><g><g><ellipse cx="232" cy="157" rx="25.45584412271571" ry="14.849242404917497" style="stroke: rgb(255, 0, 0); stroke-width: 1; fill: rgb(255, 255, 255);"/></g></g><!-- react-empty: 69529 --></svg>
        <svg xmlns="http://www.w3.org/2000/svg" width="660" height="308" style="width:660px;height:308px;font-family:Asana-Math, Asana;background:white;"><g><g><g style="transform:matrix(1,0,0,1,145.77606201171875,277.6666717529297);"><path d="M271 204L242 77C238 60 236 42 236 26C236 4 245 -9 260 -9C283 -9 324 17 406 85L399 106C375 86 346 59 324 59C315 59 309 68 309 82C309 87 309 90 310 93L402 472L392 481L359 463C318 478 301 482 274 482C246 482 226 477 199 464C137 433 104 403 79 354C35 265 4 145 4 67C4 23 19 -11 38 -11C75 -11 155 41 271 204ZM319 414C297 305 278 253 244 201C187 117 126 59 94 59C82 59 76 72 76 99C76 163 104 280 139 360C163 415 186 433 234 433C257 433 275 429 319 414Z" stroke="rgb(179, 35, 24)" stroke-width="8" fill="rgb(179, 35, 24)" style="transform:matrix(0.017,0,0,-0.017,0,0);"></path></g></g></g><g><g><g style="transform:matrix(1,0,0,1,393.77606201171875,278.6666717529297);"><path d="M235 722L223 733C171 707 135 698 63 691L59 670L107 670C131 670 141 663 141 646C141 639 140 628 139 622L38 71C37 68 37 64 37 61C37 22 85 -11 140 -11C177 -11 228 8 271 39C367 107 433 244 433 376C433 414 424 453 412 468C405 477 392 482 377 482C353 482 323 474 295 460C244 433 211 403 149 324ZM322 424C348 424 361 401 361 352C361 288 340 202 310 137C277 68 237 36 183 36C137 36 112 59 112 101C112 135 127 276 208 361C241 395 293 424 322 424Z" stroke="rgb(179, 35, 24)" stroke-width="8" fill="rgb(179, 35, 24)" style="transform:matrix(0.017,0,0,-0.017,0,0);"></path></g></g></g><g><g><g style="transform:matrix(1,0,0,1,305.77606201171875,278.6666717529297);"><path d="M9 1C24 -7 40 -11 52 -11C85 -11 124 18 155 65L231 182L242 113C255 28 278 -11 314 -11C336 -11 368 6 400 35L449 79L440 98C404 68 379 53 363 53C348 53 335 63 325 83C316 102 305 139 300 168L282 269L317 318C364 383 391 406 422 406C438 406 450 398 455 383L469 387L484 472C472 479 463 482 454 482C414 482 374 446 312 354L275 299L269 347C257 446 230 482 171 482C145 482 123 474 114 461L56 378L73 368C103 402 123 416 142 416C175 416 197 375 214 277L225 215L185 153C142 86 108 54 80 54C65 54 54 58 52 63L41 91L21 88C21 53 13 27 9 1Z" stroke="rgb(179, 35, 24)" stroke-width="8" fill="rgb(179, 35, 24)" style="transform:matrix(0.017,0,0,-0.017,0,0);"></path></g></g></g><g><g><g style="transform:matrix(1,0,0,1,215.77606201171875,163.3333282470703);"><path d="M446 -4L446 27C429 28 380 29 366 40C359 58 368 94 372 115C547 115 694 176 728 372C760 555 602 585 455 585C471 668 482 654 563 659L563 689C475 685 389 685 300 689L300 659C378 654 390 669 378 585C220 585 59 546 26 358C-7 172 133 115 295 115C278 21 275 33 183 27L183 -4C271 2 358 1 446 -4ZM627 359C603 224 512 142 376 138L450 560C582 558 651 498 627 359ZM299 138C165 142 101 224 125 358C150 502 236 555 373 560Z" stroke="rgb(65, 117, 5)" stroke-width="8" fill="rgb(65, 117, 5)" style="transform:matrix(0.017,0,0,-0.017,0,0);"></path></g><g style="transform:matrix(1,0,0,1,228.43231201171875,163.3333282470703);"><path d="M146 266C146 526 243 632 301 700L282 726C225 675 60 542 60 266C60 159 85 58 133 -32C168 -99 200 -138 282 -215L301 -194C255 -137 146 -15 146 266Z" stroke="rgb(65, 117, 5)" stroke-width="8" fill="rgb(65, 117, 5)" style="transform:matrix(0.017,0,0,-0.017,0,0);"></path></g><g style="transform:matrix(1,0,0,1,234.078125,163.3333282470703);"><path d="M9 1C24 -7 40 -11 52 -11C85 -11 124 18 155 65L231 182L242 113C255 28 278 -11 314 -11C336 -11 368 6 400 35L449 79L440 98C404 68 379 53 363 53C348 53 335 63 325 83C316 102 305 139 300 168L282 269L317 318C364 383 391 406 422 406C438 406 450 398 455 383L469 387L484 472C472 479 463 482 454 482C414 482 374 446 312 354L275 299L269 347C257 446 230 482 171 482C145 482 123 474 114 461L56 378L73 368C103 402 123 416 142 416C175 416 197 375 214 277L225 215L185 153C142 86 108 54 80 54C65 54 54 58 52 63L41 91L21 88C21 53 13 27 9 1Z" stroke="rgb(65, 117, 5)" stroke-width="8" fill="rgb(65, 117, 5)" style="transform:matrix(0.017,0,0,-0.017,0,0);"></path></g><g style="transform:matrix(1,0,0,1,242.55731201171875,163.3333282470703);"><path d="M51 726L32 700C87 636 187 526 187 266C187 -10 83 -131 32 -194L51 -215C104 -165 273 -23 273 265C273 542 108 675 51 726Z" stroke="rgb(65, 117, 5)" stroke-width="8" fill="rgb(65, 117, 5)" style="transform:matrix(0.017,0,0,-0.017,0,0);"></path></g></g></g></svg>
</svg>
