<svg xmlns="http://www.w3.org/2000/svg" width="662" height="310" style="         width:662px;         height:310px;         background: white;         fill: none; ">
        <svg xmlns="http://www.w3.org/2000/svg"><g><defs><pattern id=".29410308799771423" width="10" height="10" patternUnits="userSpaceOnUse"><path d="M 10 0 L 0 0 0 10" fill="none" stroke="lightgray" stroke-width="0.5"/></pattern></defs><rect width="100%" height="100%" fill="url(#.29410308799771423)" stroke="lightgray" stroke-width="0.5"/></g></svg>
        <svg xmlns="http://www.w3.org/2000/svg" class="role-diagram-draw-area"><g class="shapes-region" style="stroke: black; fill: none;"><g class="shape"><defs><!-- react-text: 53686 --> <!-- /react-text --><pattern id="_vlrb539bw" x="0" y="0" width="11.313708498984761" height="11.313708498984761" patternTransform="rotate(45,0,0)" patternUnits="userSpaceOnUse"><path d="M0,0 L0,11.313708498984761" style="stroke: rgb(255, 0, 0); stroke-width: 1; fill: none;"/><path d="M5.656854249492381,0 L5.656854249492381,11.313708498984761" style="stroke: rgb(255, 0, 0); stroke-width: 1; fill: none;"/><path d="M11.313708498984761,0 L11.313708498984761,11.313708498984761" style="stroke: rgb(255, 0, 0); stroke-width: 1; fill: none;"/></pattern></defs><polygon class="real" points=" 149.5,131.33 235.5,131.33 203.5,136.33 177.5,151.33 149.5,179" style="stroke: none; stroke-width: 1; fill: url(&quot;#_vlrb539bw&quot;);"/></g><g class="composite-shape"><path class="real" d=" M149.5,180 C232.83,78 316.17,182 399.5,80" style="stroke-width: 2; stroke: rgb(70, 155, 36); fill: none;"/></g><g class="arrow-line"><path class="connection real" stroke-dasharray="2.25 3.685" d="  M150.5,259 L149.5,179" style="stroke: rgb(0, 0, 0); stroke-width: 2; fill: none;"/></g><g class="arrow-line"><path class="connection real" stroke-dasharray="2.25 3.685" d="  M399.5,259.33 L399.5,130.33" style="stroke: rgb(0, 0, 0); stroke-width: 2; fill: none;"/></g><g class="composite-shape axis2d" style="stroke-width: 2; stroke: rgb(73, 135, 206);"><path class="real" d=" M41,259.7 L611.5,259.7 M88.74,16 L88.74,293"/><path d=" M604.5,254.7 L611.5,259.7 L604.5,264.7"/><path d=" M83.74,23 L88.74,16 L93.74,23"/></g><g class="arrow-line"><path class="connection real" stroke-dasharray="2.25 3.685" d="  M275.5,259.33 L275.5,129" style="stroke: rgb(0, 0, 0); stroke-width: 2; fill: none;"/></g><g class="arrow-line"><path class="connection real" stroke-dasharray="2.25 3.685" d="  M149.5,131.33 L399.5,130.33" style="stroke: rgb(0, 0, 0); stroke-width: 2; fill: none;"/></g><g class="arrow-line"><path class="connection real" stroke-dasharray="2.25 3.685" d="  M149.5,179 L149.5,131.33" style="stroke: rgb(0, 0, 0); stroke-width: 2; fill: none;"/></g><g class="arrow-line"><path class="connection real" stroke-dasharray="2.25 3.685" d="  M399.5,130.33 L399.5,82.67" style="stroke: rgb(0, 0, 0); stroke-width: 2; fill: none;"/></g><g class="shape"><defs><!-- react-text: 54679 --> <!-- /react-text --><pattern id="_sez4lla5t" x="0" y="0" width="11.313708498984761" height="11.313708498984761" patternTransform="rotate(45,0,0)" patternUnits="userSpaceOnUse"><path d="M0,0 L0,11.313708498984761" style="stroke: rgb(255, 0, 0); stroke-width: 1; fill: none;"/><path d="M5.656854249492381,0 L5.656854249492381,11.313708498984761" style="stroke: rgb(255, 0, 0); stroke-width: 1; fill: none;"/><path d="M11.313708498984761,0 L11.313708498984761,11.313708498984761" style="stroke: rgb(255, 0, 0); stroke-width: 1; fill: none;"/></pattern></defs><polygon class="real" points=" 399.5,82.67 378.5,101.33 350.5,120.33 301.5,130.33 399.5,130.33" style="stroke: none; stroke-width: 1; fill: url(&quot;#_sez4lla5t&quot;);"/></g><g class="intersections-group"><g style="stroke: rgb(0, 0, 0); stroke-width: 1; fill: none;"/></g></g><g/><g/><!-- react-empty: 13607 --></svg>
        <svg xmlns="http://www.w3.org/2000/svg" width="660" height="308" style="width:660px;height:308px;font-family:Asana-Math, Asana;background:white;"><g><g><g style="transform:matrix(1,0,0,1,145.77606201171875,277.6666717529297);"><path d="M271 204L242 77C238 60 236 42 236 26C236 4 245 -9 260 -9C283 -9 324 17 406 85L399 106C375 86 346 59 324 59C315 59 309 68 309 82C309 87 309 90 310 93L402 472L392 481L359 463C318 478 301 482 274 482C246 482 226 477 199 464C137 433 104 403 79 354C35 265 4 145 4 67C4 23 19 -11 38 -11C75 -11 155 41 271 204ZM319 414C297 305 278 253 244 201C187 117 126 59 94 59C82 59 76 72 76 99C76 163 104 280 139 360C163 415 186 433 234 433C257 433 275 429 319 414Z" stroke="rgb(179, 35, 24)" stroke-width="8" fill="rgb(179, 35, 24)" style="transform:matrix(0.017,0,0,-0.017,0,0);"/></g></g></g><g><g><g style="transform:matrix(1,0,0,1,393.77606201171875,278.6666717529297);"><path d="M235 722L223 733C171 707 135 698 63 691L59 670L107 670C131 670 141 663 141 646C141 639 140 628 139 622L38 71C37 68 37 64 37 61C37 22 85 -11 140 -11C177 -11 228 8 271 39C367 107 433 244 433 376C433 414 424 453 412 468C405 477 392 482 377 482C353 482 323 474 295 460C244 433 211 403 149 324ZM322 424C348 424 361 401 361 352C361 288 340 202 310 137C277 68 237 36 183 36C137 36 112 59 112 101C112 135 127 276 208 361C241 395 293 424 322 424Z" stroke="rgb(179, 35, 24)" stroke-width="8" fill="rgb(179, 35, 24)" style="transform:matrix(0.017,0,0,-0.017,0,0);"/></g></g></g><g><g><g style="transform:matrix(1,0,0,1,270.77606201171875,276.6666717529297);"><path d="M371 6C389 6 406 1 407 -20C393 -81 288 -113 221 -99L221 -108C241 -120 260 -133 274 -148C333 -125 461 -43 463 28C463 58 435 66 411 66C300 66 118 9 118 148C118 283 263 353 397 338C405 348 411 359 421 366L421 374C341 376 255 404 256 501C258 619 403 646 493 647C500 646 500 667 501 696C452 671 395 656 339 656C310 656 240 657 242 701C230 695 200 684 200 666C198 627 303 637 320 636L320 629C256 609 186 563 184 489C183 417 244 388 303 369L303 360C193 329 42 264 42 131C42 -34 228 6 371 6Z" stroke="rgb(179, 35, 24)" stroke-width="8" fill="rgb(179, 35, 24)" style="transform:matrix(0.017,0,0,-0.017,0,0);"/></g></g></g></svg>
</svg>