<?xml version="1.0" encoding="iso-8859-1"?>
<!-- Generator: Adobe Illustrator 19.0.0, SVG Export Plug-In . SVG Version: 6.00 Build 0)  -->
<svg version="1.1" id="Layer_1" xmlns="http://www.w3.org/2000/svg" xmlns:xlink="http://www.w3.org/1999/xlink" x="0px" y="0px"
	 viewBox="0 0 275.249 275.249" style="enable-background:new 0 0 275.249 275.249;" xml:space="preserve">
<g>
	<g>
		<g>
			<g id="XMLID_5_">
				<g>
					<path style="fill:#C5CBCF;" d="M225.646,180.072c0-1.735,0.279-3.067,0.837-3.997c0.589-0.898,1.394-1.363,2.448-1.363
						c1.053,0,1.89,0.465,2.479,1.363c0.589,0.929,0.868,2.262,0.868,3.997v8.396c0,1.797-0.279,3.129-0.868,4.028
						c-0.558,0.929-1.394,1.363-2.417,1.363c-1.084,0-1.921-0.434-2.479-1.363c-0.589-0.898-0.868-2.231-0.868-4.028V180.072z"/>
					<path style="fill:#EAEEEF;" d="M185.833,188.467c0,1.797-0.279,3.129-0.868,4.028c-0.589,0.929-1.394,1.363-2.448,1.363
						s-1.89-0.434-2.479-1.363c-0.558-0.898-0.868-2.231-0.868-4.028v-8.396c0-1.735,0.31-3.067,0.868-3.997
						c0.589-0.898,1.394-1.363,2.448-1.363s1.859,0.465,2.448,1.363c0.62,0.929,0.898,2.262,0.898,3.997
						C185.833,180.072,185.833,188.467,185.833,188.467z"/>
					<path style="fill:#EAEEEF;" d="M138.492,176.075c0.589,0.929,0.898,2.262,0.898,3.997v8.396c0,1.797-0.279,3.129-0.868,4.028
						c-0.589,0.929-1.394,1.363-2.448,1.363s-1.89-0.434-2.479-1.363c-0.589-0.898-0.868-2.231-0.868-4.028v-8.396
						c0-1.735,0.279-3.067,0.868-3.997c0.558-0.898,1.394-1.363,2.448-1.363S137.903,175.176,138.492,176.075z"/>
					<path style="fill:#EAEEEF;" d="M92.049,176.075c0.589,0.929,0.898,2.262,0.898,3.997v8.396c0,1.797-0.31,3.129-0.868,4.028
						c-0.589,0.929-1.425,1.363-2.448,1.363c-1.084,0-1.89-0.434-2.479-1.363c-0.589-0.898-0.868-2.231-0.868-4.028v-8.396
						c0-1.735,0.279-3.067,0.868-3.997c0.558-0.898,1.363-1.363,2.448-1.363C90.624,174.712,91.46,175.176,92.049,176.075z"/>
					<path style="fill:#EAEEEF;" d="M45.606,176.075c0.589,0.929,0.868,2.262,0.868,3.997v8.396c0,1.797-0.279,3.129-0.868,4.028
						c-0.589,0.929-1.394,1.363-2.417,1.363c-1.084,0-1.921-0.434-2.479-1.363c-0.589-0.898-0.898-2.231-0.898-4.028v-8.396
						c0-1.735,0.31-3.067,0.868-3.997c0.589-0.898,1.394-1.363,2.448-1.363S44.987,175.176,45.606,176.075z"/>
					<path style="fill:#EAEEEF;" d="M63.049,113.644c0-1.735,0.279-3.067,0.868-3.997c0.558-0.898,1.394-1.363,2.448-1.363
						s1.859,0.465,2.448,1.363c0.589,0.929,0.898,2.262,0.898,3.997v8.427c0,1.766-0.279,3.098-0.868,3.997
						c-0.589,0.929-1.394,1.363-2.448,1.363s-1.89-0.434-2.479-1.363c-0.589-0.898-0.868-2.231-0.868-3.997
						C63.049,122.071,63.049,113.644,63.049,113.644z"/>
					<path style="fill:#EAEEEF;" d="M115.286,109.647c0.589,0.929,0.868,2.262,0.868,3.997v8.427c0,1.766-0.279,3.098-0.868,3.997
						c-0.589,0.929-1.394,1.363-2.448,1.363c-1.053,0-1.89-0.434-2.479-1.363c-0.558-0.898-0.868-2.231-0.868-3.997v-8.427
						c0-1.735,0.31-3.067,0.868-3.997c0.589-0.898,1.394-1.363,2.448-1.363C113.861,108.284,114.666,108.749,115.286,109.647z"/>
					<path style="fill:#EAEEEF;" d="M161.729,109.647c0.589,0.929,0.898,2.262,0.898,3.997v8.427c0,1.766-0.31,3.098-0.898,3.997
						c-0.558,0.929-1.394,1.363-2.417,1.363c-1.084,0-1.89-0.434-2.479-1.363c-0.589-0.898-0.868-2.231-0.868-3.997v-8.427
						c0-1.735,0.279-3.067,0.837-3.997c0.589-0.898,1.394-1.363,2.448-1.363S161.14,108.749,161.729,109.647z"/>
					<path style="fill:#EAEEEF;" d="M208.172,109.647c0.589,0.929,0.898,2.262,0.898,3.997v8.427c0,1.766-0.31,3.098-0.868,3.997
						c-0.589,0.929-1.394,1.363-2.448,1.363c-1.084,0-1.89-0.434-2.479-1.363c-0.589-0.898-0.868-2.231-0.868-3.997v-8.427
						c0-1.735,0.279-3.067,0.868-3.997c0.558-0.898,1.394-1.363,2.448-1.363C206.747,108.284,207.583,108.749,208.172,109.647z"/>
					<path style="fill:#2D213F;" d="M275.249,27.667v219.914c0,4.43-3.594,8.024-8.024,8.024H7.993
						c-4.431,0-7.993-3.594-7.993-8.024V27.667c0-4.431,3.563-8.024,7.993-8.024h259.231
						C271.655,19.643,275.249,23.237,275.249,27.667z M259.2,239.558V82.816H16.018v156.741H259.2z M259.2,66.767V35.661H93.196
						H16.018v31.106h77.178H259.2z"/>
					<polygon style="fill:#2D213F;" points="221.432,104.225 233.763,103.203 233.763,132.111 227.164,132.111 227.164,109.275 
						221.432,109.275 					"/>
					<path style="fill:#2D213F;" d="M236.18,196.059c-1.828,1.952-4.214,2.912-7.188,2.912c-3.005,0-5.422-0.96-7.25-2.912
						c-1.797-1.921-2.695-4.585-2.695-7.993v-7.56c0-3.408,0.898-6.073,2.695-7.993s4.183-2.881,7.188-2.881
						c2.974,0,5.391,0.96,7.219,2.881c1.828,1.952,2.726,4.616,2.726,7.993v7.56C238.875,191.473,237.977,194.137,236.18,196.059z
						 M228.992,193.859c1.022,0,1.859-0.434,2.417-1.363c0.589-0.898,0.868-2.231,0.868-4.028v-8.396
						c0-1.735-0.279-3.067-0.868-3.997c-0.589-0.898-1.425-1.363-2.479-1.363c-1.053,0-1.859,0.465-2.448,1.363
						c-0.558,0.929-0.837,2.262-0.837,3.997v8.396c0,1.797,0.279,3.129,0.868,4.028
						C227.071,193.424,227.908,193.859,228.992,193.859z"/>
					<polygon style="fill:#2D213F;" points="210.557,169.63 210.557,198.536 203.927,198.536 203.927,175.702 198.195,175.702 
						198.195,170.652 					"/>
					<path style="fill:#2D213F;" d="M209.07,122.071v-8.427c0-1.735-0.31-3.067-0.898-3.997c-0.589-0.898-1.425-1.363-2.448-1.363
						c-1.053,0-1.89,0.465-2.448,1.363c-0.589,0.929-0.868,2.262-0.868,3.997v8.427c0,1.766,0.279,3.098,0.868,3.997
						c0.589,0.929,1.394,1.363,2.479,1.363c1.053,0,1.859-0.434,2.448-1.363C208.76,125.169,209.07,123.837,209.07,122.071z
						 M215.67,114.078v7.56c0,3.408-0.898,6.073-2.726,8.024c-1.828,1.921-4.214,2.881-7.188,2.881c-3.005,0-5.422-0.96-7.219-2.881
						c-1.828-1.952-2.726-4.616-2.726-8.024v-7.56c0-3.408,0.898-6.073,2.695-7.993c1.797-1.921,4.214-2.881,7.219-2.881
						c2.974,0,5.36,0.96,7.188,2.881C214.74,108.036,215.67,110.701,215.67,114.078z"/>
					<polygon style="fill:#2D213F;" points="174.958,104.225 187.32,103.203 187.32,132.111 180.721,132.111 180.721,109.275 
						174.958,109.275 					"/>
					<path style="fill:#2D213F;" d="M189.706,196.059c-1.797,1.952-4.214,2.912-7.188,2.912c-3.005,0-5.391-0.96-7.219-2.912
						c-1.797-1.921-2.726-4.585-2.726-7.993v-7.56c0-3.408,0.898-6.073,2.695-7.993c1.828-1.921,4.214-2.881,7.219-2.881
						c2.974,0,5.391,0.96,7.219,2.881c1.828,1.952,2.726,4.616,2.726,7.993v7.56C192.433,191.473,191.534,194.137,189.706,196.059z
						 M185.833,180.072c0-1.735-0.279-3.067-0.898-3.997c-0.589-0.898-1.394-1.363-2.448-1.363c-1.053,0-1.859,0.465-2.448,1.363
						c-0.558,0.929-0.868,2.262-0.868,3.997v8.396c0,1.797,0.31,3.129,0.868,4.028c0.589,0.929,1.425,1.363,2.479,1.363
						s1.859-0.434,2.448-1.363c0.589-0.898,0.868-2.231,0.868-4.028C185.833,188.467,185.833,180.072,185.833,180.072z"/>
					<polygon style="fill:#2D213F;" points="157.484,175.702 151.753,175.702 151.753,170.652 164.115,169.63 164.115,198.536 
						157.484,198.536 					"/>
					<path style="fill:#2D213F;" d="M166.5,129.663c-1.828,1.921-4.214,2.881-7.188,2.881c-3.005,0-5.422-0.96-7.25-2.881
						c-1.797-1.952-2.695-4.616-2.695-8.024v-7.56c0-3.408,0.898-6.073,2.695-7.993c1.797-1.921,4.214-2.881,7.188-2.881
						c3.005,0,5.391,0.96,7.219,2.881c1.828,1.952,2.757,4.616,2.757,7.993v7.56C169.227,125.046,168.297,127.71,166.5,129.663z
						 M162.627,122.071v-8.427c0-1.735-0.31-3.067-0.898-3.997c-0.589-0.898-1.425-1.363-2.479-1.363s-1.859,0.465-2.448,1.363
						c-0.558,0.929-0.837,2.262-0.837,3.997v8.427c0,1.766,0.279,3.098,0.868,3.997c0.589,0.929,1.394,1.363,2.479,1.363
						c1.022,0,1.859-0.434,2.417-1.363C162.318,125.169,162.627,123.837,162.627,122.071z"/>
					<polygon style="fill:#2D213F;" points="140.878,103.203 140.878,132.111 134.247,132.111 134.247,109.275 128.516,109.275 
						128.516,104.225 					"/>
					<path style="fill:#2D213F;" d="M139.39,188.467v-8.396c0-1.735-0.31-3.067-0.898-3.997c-0.589-0.898-1.394-1.363-2.448-1.363
						s-1.89,0.465-2.448,1.363c-0.589,0.929-0.868,2.262-0.868,3.997v8.396c0,1.797,0.279,3.129,0.868,4.028
						c0.589,0.929,1.425,1.363,2.479,1.363s1.859-0.434,2.448-1.363C139.112,191.596,139.39,190.265,139.39,188.467z
						 M143.263,196.059c-1.828,1.952-4.214,2.912-7.188,2.912c-3.005,0-5.422-0.96-7.219-2.912
						c-1.828-1.921-2.726-4.585-2.726-7.993v-7.56c0-3.408,0.898-6.073,2.695-7.993c1.797-1.921,4.214-2.881,7.219-2.881
						c2.974,0,5.36,0.96,7.188,2.881c1.828,1.952,2.757,4.616,2.757,7.993v7.56C145.99,191.473,145.091,194.137,143.263,196.059z"/>
					<polygon style="fill:#2D213F;" points="117.641,169.63 117.641,198.536 111.041,198.536 111.041,175.702 105.279,175.702 
						105.279,170.652 					"/>
					<path style="fill:#2D213F;" d="M116.154,122.071v-8.427c0-1.735-0.279-3.067-0.868-3.997c-0.62-0.898-1.425-1.363-2.479-1.363
						s-1.859,0.465-2.448,1.363c-0.558,0.929-0.868,2.262-0.868,3.997v8.427c0,1.766,0.31,3.098,0.868,3.997
						c0.589,0.929,1.425,1.363,2.479,1.363s1.859-0.434,2.448-1.363C115.875,125.169,116.154,123.837,116.154,122.071z
						 M120.026,106.084c1.828,1.952,2.726,4.616,2.726,7.993v7.56c0,3.408-0.898,6.073-2.726,8.024
						c-1.797,1.921-4.183,2.881-7.188,2.881c-2.974,0-5.391-0.96-7.219-2.881c-1.797-1.952-2.726-4.616-2.726-8.024v-7.56
						c0-3.408,0.898-6.073,2.726-7.993c1.797-1.921,4.183-2.881,7.188-2.881C115.782,103.203,118.198,104.163,120.026,106.084z"/>
					<polygon style="fill:#2D213F;" points="94.435,103.203 94.435,132.111 87.805,132.111 87.805,109.275 82.073,109.275 
						82.073,104.225 					"/>
					<path style="fill:#454D5B;" d="M102.397,51.618c0-5.112-4.121-9.233-9.202-9.233v-6.723H259.2v31.106H93.196v-5.949
						C98.277,60.819,102.397,56.699,102.397,51.618z"/>
					<path style="fill:#2D213F;" d="M93.196,42.384c5.081,0,9.202,4.121,9.202,9.233c0,5.081-4.121,9.202-9.202,9.202
						c-5.112,0-9.233-4.121-9.233-9.202C83.963,46.506,88.083,42.384,93.196,42.384z"/>
					<path style="fill:#2D213F;" d="M92.948,188.467v-8.396c0-1.735-0.31-3.067-0.898-3.997c-0.589-0.898-1.425-1.363-2.448-1.363
						c-1.084,0-1.89,0.465-2.448,1.363c-0.589,0.929-0.868,2.262-0.868,3.997v8.396c0,1.797,0.279,3.129,0.868,4.028
						c0.589,0.929,1.394,1.363,2.479,1.363c1.022,0,1.859-0.434,2.448-1.363C92.638,191.596,92.948,190.265,92.948,188.467z
						 M79.687,180.505c0-3.408,0.898-6.073,2.695-7.993c1.797-1.921,4.214-2.881,7.219-2.881c2.974,0,5.36,0.96,7.188,2.881
						c1.828,1.952,2.757,4.616,2.757,7.993v7.56c0,3.408-0.929,6.073-2.726,7.993c-1.828,1.952-4.214,2.912-7.188,2.912
						c-3.005,0-5.422-0.96-7.219-2.912c-1.828-1.921-2.726-4.585-2.726-7.993C79.687,188.064,79.687,180.505,79.687,180.505z"/>
					<polygon style="fill:#2D213F;" points="64.568,175.702 58.836,175.702 58.836,170.652 71.198,169.63 71.198,198.536 
						64.568,198.536 					"/>
					<path style="fill:#2D213F;" d="M67.418,42.384c5.081,0,9.202,4.121,9.202,9.233c0,5.081-4.121,9.202-9.202,9.202
						c-5.081,0-9.202-4.121-9.202-9.202C58.216,46.506,62.337,42.384,67.418,42.384z"/>
					<path style="fill:#2D213F;" d="M68.812,109.647c-0.589-0.898-1.394-1.363-2.448-1.363c-1.053,0-1.89,0.465-2.448,1.363
						c-0.589,0.929-0.868,2.262-0.868,3.997v8.427c0,1.766,0.279,3.098,0.868,3.997c0.589,0.929,1.425,1.363,2.479,1.363
						s1.859-0.434,2.448-1.363c0.589-0.898,0.868-2.231,0.868-3.997v-8.427C69.711,111.909,69.401,110.577,68.812,109.647z
						 M76.31,114.078v7.56c0,3.408-0.898,6.073-2.726,8.024c-1.797,1.921-4.214,2.881-7.188,2.881c-3.005,0-5.391-0.96-7.219-2.881
						c-1.828-1.952-2.726-4.616-2.726-8.024v-7.56c0-3.408,0.898-6.073,2.695-7.993c1.797-1.921,4.214-2.881,7.219-2.881
						c2.974,0,5.391,0.96,7.219,2.881C75.381,108.036,76.31,110.701,76.31,114.078z"/>
					<path style="fill:#C5CBCF;" d="M94.435,132.111v-28.907l-12.362,1.022v5.05h5.732v22.834L94.435,132.111L94.435,132.111z
						 M157.484,198.536h6.63V169.63l-12.362,1.022v5.05h5.732C157.484,175.702,157.484,198.536,157.484,198.536z M166.469,106.084
						c-1.828-1.921-4.214-2.881-7.219-2.881c-2.974,0-5.391,0.96-7.188,2.881s-2.695,4.585-2.695,7.993v7.56
						c0,3.408,0.898,6.073,2.695,8.024c1.828,1.921,4.245,2.881,7.25,2.881c2.974,0,5.36-0.96,7.188-2.881
						c1.797-1.952,2.726-4.616,2.726-8.024v-7.56C169.227,110.701,168.297,108.036,166.469,106.084z M117.641,198.536V169.63
						l-12.362,1.022v5.05h5.763v22.834L117.641,198.536L117.641,198.536z M122.753,114.078c0-3.377-0.898-6.042-2.726-7.993
						c-1.828-1.921-4.245-2.881-7.219-2.881c-3.005,0-5.391,0.96-7.188,2.881c-1.828,1.921-2.726,4.585-2.726,7.993v7.56
						c0,3.408,0.929,6.073,2.726,8.024c1.828,1.921,4.245,2.881,7.219,2.881c3.005,0,5.391-0.96,7.188-2.881
						c1.828-1.952,2.726-4.616,2.726-8.024V114.078z M64.568,198.536h6.63V169.63l-12.362,1.022v5.05h5.732V198.536z
						 M180.721,132.111h6.599v-28.907l-12.362,1.022v5.05h5.763V132.111z M182.518,198.971c2.974,0,5.391-0.96,7.188-2.912
						c1.828-1.921,2.726-4.585,2.726-7.993v-7.56c0-3.377-0.898-6.042-2.726-7.993c-1.828-1.921-4.245-2.881-7.219-2.881
						c-3.005,0-5.391,0.96-7.219,2.881c-1.797,1.921-2.695,4.585-2.695,7.993v7.56c0,3.408,0.929,6.073,2.726,7.993
						C177.127,198.01,179.513,198.971,182.518,198.971z M210.557,198.536V169.63l-12.362,1.022v5.05h5.732v22.834L210.557,198.536
						L210.557,198.536z M215.67,114.078c0-3.377-0.929-6.042-2.757-7.993c-1.828-1.921-4.214-2.881-7.188-2.881
						c-3.005,0-5.422,0.96-7.219,2.881s-2.695,4.585-2.695,7.993v7.56c0,3.408,0.898,6.073,2.726,8.024
						c1.797,1.921,4.214,2.881,7.219,2.881c2.974,0,5.36-0.96,7.188-2.881c1.828-1.952,2.726-4.616,2.726-8.024L215.67,114.078
						L215.67,114.078z M227.164,132.111h6.599v-28.907l-12.331,1.022v5.05h5.732C227.164,109.275,227.164,132.111,227.164,132.111z
						 M228.992,198.971c2.974,0,5.36-0.96,7.188-2.912c1.797-1.921,2.695-4.585,2.695-7.993v-7.56c0-3.377-0.898-6.042-2.726-7.993
						c-1.828-1.921-4.245-2.881-7.219-2.881c-3.005,0-5.391,0.96-7.188,2.881s-2.695,4.585-2.695,7.993v7.56
						c0,3.408,0.898,6.073,2.695,7.993C223.57,198.01,225.987,198.971,228.992,198.971z M140.878,132.111v-28.907l-12.362,1.022
						v5.05h5.732v22.834L140.878,132.111L140.878,132.111z M143.232,172.512c-1.828-1.921-4.214-2.881-7.188-2.881
						c-3.005,0-5.422,0.96-7.219,2.881c-1.797,1.921-2.695,4.585-2.695,7.993v7.56c0,3.408,0.898,6.073,2.726,7.993
						c1.797,1.952,4.214,2.912,7.219,2.912c2.974,0,5.36-0.96,7.188-2.912c1.828-1.921,2.726-4.585,2.726-7.993v-7.56
						C145.99,177.128,145.06,174.464,143.232,172.512z M76.31,114.078c0-3.377-0.929-6.042-2.726-7.993
						c-1.828-1.921-4.245-2.881-7.219-2.881c-3.005,0-5.422,0.96-7.219,2.881s-2.695,4.585-2.695,7.993v7.56
						c0,3.408,0.898,6.073,2.726,8.024c1.828,1.921,4.214,2.881,7.219,2.881c2.974,0,5.391-0.96,7.188-2.881
						c1.828-1.952,2.726-4.616,2.726-8.024C76.31,121.637,76.31,114.078,76.31,114.078z M79.687,188.064
						c0,3.408,0.898,6.073,2.726,7.993c1.797,1.952,4.214,2.912,7.219,2.912c2.974,0,5.36-0.96,7.188-2.912
						c1.797-1.921,2.726-4.585,2.726-7.993v-7.56c0-3.377-0.929-6.042-2.757-7.993c-1.828-1.921-4.214-2.881-7.188-2.881
						c-3.005,0-5.422,0.96-7.219,2.881s-2.695,4.585-2.695,7.993V188.064z M47.961,132.111v-28.907l-12.331,1.022v5.05h5.732v22.834
						L47.961,132.111L47.961,132.111z M50.347,172.512c-1.828-1.921-4.245-2.881-7.219-2.881c-3.005,0-5.391,0.96-7.188,2.881
						c-1.797,1.921-2.726,4.585-2.726,7.993v7.56c0,3.408,0.929,6.073,2.726,7.993c1.828,1.952,4.245,2.912,7.25,2.912
						c2.974,0,5.36-0.96,7.188-2.912c1.797-1.921,2.695-4.585,2.695-7.993v-7.56C53.073,177.128,52.175,174.464,50.347,172.512z
						 M259.2,82.816v156.741H16.018V82.816H259.2z"/>
					<polygon style="fill:#2D213F;" points="47.961,103.203 47.961,132.111 41.362,132.111 41.362,109.275 35.63,109.275 
						35.63,104.225 					"/>
					<path style="fill:#2D213F;" d="M41.238,42.384c5.112,0,9.233,4.121,9.233,9.233c0,5.081-4.121,9.202-9.233,9.202
						c-5.081,0-9.202-4.121-9.202-9.202C32.036,46.506,36.157,42.384,41.238,42.384z"/>
					<path style="fill:#454D5B;" d="M76.62,51.618c0-5.112-4.121-9.233-9.202-9.233s-9.202,4.121-9.202,9.233
						c0,5.081,4.121,9.202,9.202,9.202C72.499,60.819,76.62,56.699,76.62,51.618z M93.196,66.767H16.018V35.661h77.178v6.723
						c-5.112,0-9.233,4.121-9.233,9.233c0,5.081,4.121,9.202,9.233,9.202V66.767z M50.471,51.618c0-5.112-4.121-9.233-9.233-9.233
						c-5.081,0-9.202,4.121-9.202,9.233c0,5.081,4.121,9.202,9.202,9.202C46.35,60.819,50.471,56.699,50.471,51.618z"/>
					<path style="fill:#2D213F;" d="M46.474,188.467v-8.396c0-1.735-0.279-3.067-0.868-3.997c-0.62-0.898-1.425-1.363-2.479-1.363
						s-1.859,0.465-2.448,1.363c-0.558,0.929-0.868,2.262-0.868,3.997v8.396c0,1.797,0.31,3.129,0.898,4.028
						c0.558,0.929,1.394,1.363,2.479,1.363c1.022,0,1.828-0.434,2.417-1.363C46.195,191.596,46.474,190.265,46.474,188.467z
						 M53.073,188.064c0,3.408-0.898,6.073-2.695,7.993c-1.828,1.952-4.214,2.912-7.188,2.912c-3.005,0-5.422-0.96-7.25-2.912
						c-1.797-1.921-2.726-4.585-2.726-7.993v-7.56c0-3.408,0.929-6.073,2.726-7.993c1.797-1.921,4.183-2.881,7.188-2.881
						c2.974,0,5.391,0.96,7.219,2.881c1.828,1.952,2.726,4.616,2.726,7.993V188.064z"/>
				</g>
			</g>
		</g>
		<path style="fill:#505967;" d="M102.394,51.508c0,0.037,0.009,0.071,0.009,0.108c0,1.679-0.486,3.231-1.276,4.585
			c-1.592,2.745-4.53,4.616-7.932,4.616c-0.003,0-0.006,0-0.012,0c-0.003,0-0.009,0-0.012,0c-1.862,0-3.588-0.561-5.038-1.512
			c-2.513-1.645-4.173-4.468-4.173-7.69c0-0.037,0.009-0.071,0.009-0.108h-7.355c0,0.037,0.009,0.071,0.009,0.108
			c0,5.081-4.121,9.202-9.202,9.202h-0.003h-0.003c-0.493,0-0.97-0.071-1.444-0.146c-4.415-0.697-7.783-4.468-7.783-9.056
			c0-0.037,0.009-0.071,0.009-0.108h-7.746c0,0.037,0.012,0.071,0.012,0.108c0,4.589-3.368,8.359-7.783,9.056
			c-0.474,0.074-0.948,0.146-1.444,0.146h-0.003H41.23c-5.081,0-9.202-4.121-9.202-9.202c0-0.037,0.009-0.071,0.009-0.108h-7.485
			c-2.934,0-5.781,0.359-8.529,0.985v14.274H93.17h0.022h117.6c-8.458-9.351-20.65-15.259-34.251-15.259L102.394,51.508
			L102.394,51.508z"/>
		<path style="fill:#EAEEEF;" d="M47.471,217.421h131.57c18.075,0,33.588-10.971,40.249-26.614c-0.149-0.858-0.245-1.76-0.245-2.742
			v-7.56c0-3.408,0.898-6.073,2.695-7.993c0.319-0.341,0.679-0.613,1.032-0.892v-62.343h-1.342v-5.05l1.342-0.112v-6.373
			c0-5.23-0.908-10.237-2.51-14.924H16.027v125.845C25.226,214.186,35.958,217.421,47.471,217.421z M71.198,198.536h-6.63v-22.834
			h-5.732v-5.05l12.362-1.022C71.198,169.63,71.198,198.536,71.198,198.536z M117.641,198.536h-6.599v-22.834h-5.763v-5.05
			l12.362-1.022V198.536z M164.115,198.536h-6.63v-22.834h-5.732v-5.05l12.362-1.022
			C164.115,169.63,164.115,198.536,164.115,198.536z M210.557,198.536h-6.63v-22.834h-5.732v-5.05l12.362-1.022V198.536z
			 M195.81,114.078c0-3.408,0.898-6.073,2.695-7.993c1.797-1.921,4.214-2.881,7.219-2.881c2.974,0,5.36,0.96,7.188,2.881
			c1.828,1.952,2.757,4.616,2.757,7.993v7.56c0,3.408-0.898,6.073-2.726,8.024c-1.828,1.921-4.214,2.881-7.188,2.881
			c-3.005,0-5.422-0.96-7.219-2.881c-1.828-1.952-2.726-4.616-2.726-8.024L195.81,114.078L195.81,114.078z M174.958,104.225
			l12.362-1.022v28.907h-6.599v-22.834h-5.763V104.225z M172.573,180.505c0-3.408,0.898-6.073,2.695-7.993
			c1.828-1.921,4.214-2.881,7.219-2.881c2.974,0,5.391,0.96,7.219,2.881c1.828,1.952,2.726,4.616,2.726,7.993v7.56
			c0,3.408-0.898,6.073-2.726,7.993c-1.797,1.952-4.214,2.912-7.188,2.912c-3.005,0-5.391-0.96-7.219-2.912
			c-1.797-1.921-2.726-4.585-2.726-7.993V180.505z M149.367,114.078c0-3.408,0.898-6.073,2.695-7.993
			c1.797-1.921,4.214-2.881,7.188-2.881c3.005,0,5.391,0.96,7.219,2.881c1.828,1.952,2.757,4.616,2.757,7.993v7.56
			c0,3.408-0.929,6.073-2.726,8.024c-1.828,1.921-4.214,2.881-7.188,2.881c-3.005,0-5.422-0.96-7.25-2.881
			c-1.797-1.952-2.695-4.616-2.695-8.024C149.367,121.637,149.367,114.078,149.367,114.078z M128.516,104.225l12.362-1.022v28.907
			h-6.63v-22.834h-5.732C128.516,109.275,128.516,104.225,128.516,104.225z M126.13,180.505c0-3.408,0.898-6.073,2.695-7.993
			c1.797-1.921,4.214-2.881,7.219-2.881c2.974,0,5.36,0.96,7.188,2.881c1.828,1.952,2.757,4.616,2.757,7.993v7.56
			c0,3.408-0.898,6.073-2.726,7.993c-1.828,1.952-4.214,2.912-7.188,2.912c-3.005,0-5.422-0.96-7.219-2.912
			c-1.828-1.921-2.726-4.585-2.726-7.993C126.13,188.064,126.13,180.505,126.13,180.505z M102.893,114.078
			c0-3.408,0.898-6.073,2.726-7.993c1.797-1.921,4.183-2.881,7.188-2.881c2.974,0,5.391,0.96,7.219,2.881
			c1.828,1.952,2.726,4.616,2.726,7.993v7.56c0,3.408-0.898,6.073-2.726,8.024c-1.797,1.921-4.183,2.881-7.188,2.881
			c-2.974,0-5.391-0.96-7.219-2.881c-1.797-1.952-2.726-4.616-2.726-8.024C102.893,121.637,102.893,114.078,102.893,114.078z
			 M82.073,104.225l12.362-1.022v28.907h-6.63v-22.834h-5.732V104.225z M79.687,180.505c0-3.408,0.898-6.073,2.695-7.993
			c1.797-1.921,4.214-2.881,7.219-2.881c2.974,0,5.36,0.96,7.188,2.881c1.828,1.952,2.757,4.616,2.757,7.993v7.56
			c0,3.408-0.929,6.073-2.726,7.993c-1.828,1.952-4.214,2.912-7.188,2.912c-3.005,0-5.422-0.96-7.219-2.912
			c-1.828-1.921-2.726-4.585-2.726-7.993C79.687,188.064,79.687,180.505,79.687,180.505z M56.45,114.078
			c0-3.408,0.898-6.073,2.695-7.993c1.797-1.921,4.214-2.881,7.219-2.881c2.974,0,5.391,0.96,7.219,2.881
			c1.797,1.952,2.726,4.616,2.726,7.993v7.56c0,3.408-0.898,6.073-2.726,8.024c-1.797,1.921-4.214,2.881-7.188,2.881
			c-3.005,0-5.391-0.96-7.219-2.881c-1.828-1.952-2.726-4.616-2.726-8.024C56.45,121.637,56.45,114.078,56.45,114.078z
			 M35.63,104.225l12.331-1.022v28.907h-6.599v-22.834H35.63V104.225z M33.213,180.505c0-3.408,0.929-6.073,2.726-7.993
			c1.797-1.921,4.183-2.881,7.188-2.881c2.974,0,5.391,0.96,7.219,2.881c1.828,1.952,2.726,4.616,2.726,7.993v7.56
			c0,3.408-0.898,6.073-2.695,7.993c-1.828,1.952-4.214,2.912-7.188,2.912c-3.005,0-5.422-0.96-7.25-2.912
			c-1.797-1.921-2.726-4.585-2.726-7.993V180.505z"/>
	</g>
</g>
<g>
</g>
<g>
</g>
<g>
</g>
<g>
</g>
<g>
</g>
<g>
</g>
<g>
</g>
<g>
</g>
<g>
</g>
<g>
</g>
<g>
</g>
<g>
</g>
<g>
</g>
<g>
</g>
<g>
</g>
</svg>
