<?xml version="1.0" standalone="no"?>
<!DOCTYPE svg PUBLIC "-//W3C//DTD SVG 20010904//EN"
 "http://www.w3.org/TR/2001/REC-SVG-20010904/DTD/svg10.dtd">
<svg version="1.0" xmlns="http://www.w3.org/2000/svg"
 width="850.000000pt" height="850.000000pt" viewBox="0 0 850.000000 850.000000"
 preserveAspectRatio="xMidYMid meet">
<metadata>
Created by potrace 1.14, written by Peter Selinger 2001-2017
</metadata>
<g transform="translate(0.000000,850.000000) scale(0.100000,-0.100000)"
fill="#000000" stroke="none">
<path d="M0 4250 l0 -4250 4250 0 4250 0 0 4250 0 4250 -4250 0 -4250 0 0
-4250z m1762 2943 c58 -31 100 -79 125 -140 l18 -43 973 0 972 0 0 -60 0 -60
-972 0 -973 0 -18 -43 c-25 -62 -67 -109 -128 -142 -46 -25 -65 -29 -129 -29
-113 0 -191 47 -245 146 -25 45 -29 64 -29 128 0 78 11 112 61 177 26 36 97
81 146 94 55 14 145 1 199 -28z m2687 8 c61 -31 96 -66 127 -126 l29 -55 638
0 637 0 0 80 c0 44 2 80 5 80 3 0 51 -23 108 -51 l103 -52 60 61 c63 62 127
92 199 92 98 0 208 -72 251 -165 28 -59 32 -156 9 -211 l-14 -35 49 -54 c199
-219 344 -511 411 -825 20 -91 23 -135 23 -335 1 -203 -2 -243 -22 -340 -44
-209 -125 -416 -232 -589 -78 -125 -85 -133 -107 -116 -10 8 15 -21 56 -63 53
-53 70 -78 60 -82 -8 -3 -59 -20 -114 -38 l-100 -34 3 -75 c3 -51 -1 -86 -12
-112 l-15 -37 49 -54 c199 -219 344 -511 411 -825 20 -91 23 -135 23 -335 1
-203 -2 -243 -22 -340 -44 -209 -125 -416 -232 -589 -78 -125 -85 -133 -107
-116 -10 8 15 -21 56 -63 53 -53 70 -78 60 -82 -8 -3 -59 -20 -114 -38 l-100
-34 4 -75 c2 -61 -2 -86 -20 -127 -41 -95 -153 -171 -254 -171 -98 0 -215 77
-252 165 l-18 45 -643 2 -642 3 0 -82 c0 -46 -2 -83 -5 -83 -3 0 -52 24 -111
53 -94 47 -106 50 -115 35 -22 -40 -61 -76 -111 -103 -45 -25 -64 -29 -128
-30 -65 0 -82 4 -130 31 -32 18 -70 50 -89 77 l-35 45 -108 -54 -108 -54 0
230 0 230 108 -54 108 -54 35 46 c21 28 55 57 91 76 l58 31 2 978 3 977 -82 0
c-46 0 -83 2 -83 5 0 3 24 52 53 111 47 94 50 106 35 115 -41 23 -77 63 -104
114 l-29 55 -520 0 -520 0 -558 -1115 -557 -1115 -53 26 c-28 15 -53 28 -55
29 -2 2 240 489 537 1084 298 594 541 1083 541 1086 0 2 -173 6 -385 7 l-385
3 0 -82 c0 -46 -2 -83 -5 -83 -3 0 -52 24 -111 53 -94 47 -106 50 -115 35 -22
-40 -61 -76 -111 -103 -45 -25 -64 -29 -128 -29 -113 0 -191 47 -245 146 -25
45 -29 64 -29 128 0 113 47 191 146 245 45 25 64 29 128 29 64 0 83 -4 128
-29 50 -27 89 -63 111 -103 9 -15 21 -12 115 36 59 28 108 52 111 52 3 0 5
-37 5 -82 l0 -83 423 3 422 2 602 1205 603 1204 -37 50 -37 49 -108 -54 -108
-54 0 230 0 230 109 -54 108 -55 31 44 c31 45 100 92 155 106 48 12 142 2 186
-20z m-2412 -5335 c2 -1 -40 -33 -92 -72 -52 -38 -93 -71 -92 -74 2 -3 14 -29
28 -57 l24 -53 973 0 972 0 0 -60 0 -60 -972 0 -973 0 -18 -43 c-25 -62 -67
-109 -128 -142 -46 -25 -65 -29 -129 -29 -113 0 -191 47 -245 146 -25 45 -29
64 -29 128 0 80 17 126 68 187 31 37 109 79 164 88 l42 7 0 119 0 119 203
-101 c111 -56 203 -102 204 -103z"/>
<path d="M1563 7060 c-85 -51 -81 -179 6 -225 61 -31 136 -11 171 48 70 114
-63 247 -177 177z"/>
<path d="M4259 7187 c-59 -22 -107 -56 -128 -91 -12 -18 -21 -35 -21 -38 0 -2
45 -26 100 -53 55 -27 100 -52 100 -55 0 -3 -45 -28 -100 -55 -55 -27 -100
-52 -100 -55 0 -16 52 -77 79 -93 l31 -18 52 106 c29 58 55 105 58 105 3 0 29
-48 58 -106 l53 -106 32 20 c39 25 93 110 102 163 16 95 -36 203 -122 251 -62
35 -141 45 -194 25z"/>
<path d="M6290 7064 c-26 -18 -50 -43 -50 -54 0 -4 23 -17 50 -30 28 -13 50
-26 50 -30 0 -4 -22 -17 -50 -30 -54 -25 -56 -28 -37 -52 63 -79 186 -58 223
37 16 42 16 48 0 90 -29 75 -124 110 -186 69z"/>
<path d="M4576 6825 c-27 -51 -63 -91 -104 -114 -15 -9 -12 -21 36 -115 28
-59 52 -108 52 -111 0 -3 -37 -5 -82 -5 l-83 0 3 -978 2 -978 43 -21 c64 -31
101 -67 133 -128 l29 -55 638 0 637 0 0 80 c0 44 2 80 5 80 3 0 51 -23 108
-51 l103 -52 60 61 c74 74 140 98 235 88 l57 -7 38 116 38 115 59 -57 58 -58
23 29 c41 50 119 187 163 288 54 124 98 278 119 422 22 149 15 408 -16 551
-58 272 -191 540 -370 744 l-45 52 -41 -21 c-60 -30 -130 -36 -199 -15 -47 13
-70 28 -119 77 l-60 61 -103 -52 c-57 -28 -105 -51 -108 -51 -3 0 -5 36 -5 80
l0 80 -637 0 -638 0 -29 -55z"/>
<path d="M3627 5405 c-295 -591 -537 -1077 -537 -1080 0 -3 217 -5 483 -5
l483 0 21 43 c31 64 67 101 128 133 l55 29 2 978 3 977 -50 0 -50 0 -538
-1075z"/>
<path d="M1563 4360 c-112 -68 -62 -240 70 -240 37 0 100 37 105 61 2 10 -15
24 -48 39 -27 13 -50 26 -50 30 0 4 23 17 50 30 59 27 61 43 11 77 -42 28 -95
30 -138 3z"/>
<path d="M4258 4364 c-73 -39 -78 -187 -8 -224 18 -10 23 -5 47 45 15 30 30
55 33 55 3 0 18 -25 33 -55 24 -50 29 -55 47 -45 47 25 65 122 35 180 -9 16
-29 36 -45 45 -37 19 -107 19 -142 -1z"/>
<path d="M6310 4373 c-17 -6 -70 -54 -70 -63 0 -4 23 -17 50 -30 28 -13 50
-26 50 -30 0 -4 -22 -17 -50 -30 -27 -13 -50 -26 -50 -30 0 -3 14 -19 31 -36
26 -25 38 -29 85 -29 51 0 58 3 90 37 28 31 34 45 34 83 0 25 -4 45 -9 45 -5
0 -28 -7 -51 -15 -23 -8 -46 -15 -51 -15 -4 0 0 24 11 54 10 30 16 57 13 60
-8 7 -62 6 -83 -1z"/>
<path d="M4576 4125 c-27 -51 -63 -91 -104 -114 -15 -9 -12 -21 36 -115 28
-59 52 -108 52 -111 0 -3 -37 -5 -82 -5 l-83 0 3 -977 2 -978 55 -29 c51 -27
91 -63 114 -104 9 -15 21 -12 115 36 59 28 108 52 111 52 3 0 5 -37 5 -82 l0
-83 642 3 643 2 18 45 c43 104 169 174 288 161 l57 -7 38 116 38 115 59 -57
58 -58 23 29 c41 50 119 187 163 288 54 124 98 278 119 422 22 149 15 408 -16
551 -58 272 -191 540 -370 744 l-45 52 -41 -21 c-60 -30 -130 -36 -199 -15
-47 13 -70 28 -119 77 l-60 61 -103 -52 c-57 -28 -105 -51 -108 -51 -3 0 -5
36 -5 80 l0 80 -637 0 -638 0 -29 -55z"/>
<path d="M4250 1780 c-38 -13 -68 -33 -99 -66 l-45 -47 49 -25 c27 -13 54 -30
60 -36 7 -6 31 -20 54 -30 22 -11 41 -22 41 -26 0 -4 -19 -15 -41 -26 -23 -10
-47 -24 -54 -30 -6 -6 -33 -23 -60 -36 l-48 -25 39 -43 c101 -112 252 -115
359 -8 l49 50 -107 56 c-59 31 -107 59 -107 62 0 3 48 31 107 62 l107 56 -49
50 c-37 37 -64 54 -104 66 -68 20 -83 20 -151 -4z"/>
<path d="M6294 1661 c-47 -29 -64 -59 -64 -114 0 -42 5 -54 33 -82 60 -60 134
-59 186 1 25 28 31 44 31 79 0 25 -4 45 -9 45 -5 0 -28 -7 -51 -15 -23 -8 -46
-15 -51 -15 -4 0 0 24 11 54 10 30 16 57 13 60 -13 13 -70 5 -99 -13z"/>
<path d="M1539 1641 c-35 -35 -39 -44 -39 -91 0 -47 4 -56 39 -91 35 -35 44
-39 91 -39 47 0 56 4 91 39 35 34 39 44 39 88 0 27 -6 58 -14 68 -13 18 -16
17 -65 -19 l-51 -38 0 61 c0 59 -1 61 -26 61 -17 0 -40 -14 -65 -39z"/>
</g>
</svg>
