<svg width="566pt" height="260pt" viewBox="0.00 0.00 566.00 260.00" xmlns="http://www.w3.org/2000/svg" xmlns:xlink="http://www.w3.org/1999/xlink">
<g id="graph1" class="graph" transform="scale(1 1) rotate(0) translate(4 256)">
<polygon fill="white" stroke="white" points="-4,5 -4,-256 563,-256 563,5 -4,5"></polygon>
<!-- 0 -->
<g id="node1" class="node"><title>0</title>
<ellipse fill="none" stroke="black" cx="279" cy="-234" rx="27" ry="18"></ellipse>
<text text-anchor="middle" x="279" y="-229.8" font-family="Times,serif" font-size="14.00">0</text>
</g>
<!-- 1 -->
<g id="node3" class="node"><title>1</title>
<ellipse fill="none" stroke="black" cx="207" cy="-162" rx="27" ry="18"></ellipse>
<text text-anchor="middle" x="207" y="-157.8" font-family="Times,serif" font-size="14.00">1</text>
</g>
<!-- 0&#45;&#45;1 -->
<g id="edge2" class="edge"><title>0--1</title>
<path fill="none" stroke="black" d="M264.43,-218.834C252.02,-206.77 234.269,-189.512 221.796,-177.385"></path>
</g>
<!-- 2 -->
<g id="node5" class="node"><title>2</title>
<ellipse fill="none" stroke="black" cx="351" cy="-162" rx="27" ry="18"></ellipse>
<text text-anchor="middle" x="351" y="-157.8" font-family="Times,serif" font-size="14.00">2</text>
</g>
<!-- 0&#45;&#45;2 -->
<g id="edge4" class="edge"><title>0--2</title>
<path fill="none" stroke="black" d="M293.57,-218.834C305.98,-206.77 323.731,-189.512 336.204,-177.385"></path>
</g>
<!-- 3 -->
<g id="node7" class="node"><title>3</title>
<ellipse fill="none" stroke="black" cx="99" cy="-90" rx="27" ry="18"></ellipse>
<text text-anchor="middle" x="99" y="-85.8" font-family="Times,serif" font-size="14.00">3</text>
</g>
<!-- 1&#45;&#45;3 -->
<g id="edge6" class="edge"><title>1--3</title>
<path fill="none" stroke="black" d="M188.188,-148.807C168.365,-135.959 137.338,-115.848 117.597,-103.053"></path>
</g>
<!-- 4 -->
<g id="node9" class="node"><title>4</title>
<ellipse fill="none" stroke="black" cx="207" cy="-90" rx="27" ry="18"></ellipse>
<text text-anchor="middle" x="207" y="-85.8" font-family="Times,serif" font-size="14.00">4</text>
</g>
<!-- 1&#45;&#45;4 -->
<g id="edge8" class="edge"><title>1--4</title>
<path fill="none" stroke="black" d="M207,-143.697C207,-132.846 207,-118.917 207,-108.104"></path>
</g>
<!-- 5 -->
<g id="node11" class="node"><title>5</title>
<ellipse fill="none" stroke="black" cx="351" cy="-90" rx="27" ry="18"></ellipse>
<text text-anchor="middle" x="351" y="-85.8" font-family="Times,serif" font-size="14.00">5</text>
</g>
<!-- 2&#45;&#45;5 -->
<g id="edge10" class="edge"><title>2--5</title>
<path fill="none" stroke="black" d="M351,-143.697C351,-132.846 351,-118.917 351,-108.104"></path>
</g>
<!-- 6 -->
<g id="node13" class="node"><title>6</title>
<ellipse fill="none" stroke="black" cx="459" cy="-90" rx="27" ry="18"></ellipse>
<text text-anchor="middle" x="459" y="-85.8" font-family="Times,serif" font-size="14.00">6</text>
</g>
<!-- 2&#45;&#45;6 -->
<g id="edge12" class="edge"><title>2--6</title>
<path fill="none" stroke="black" d="M369.812,-148.807C389.635,-135.959 420.662,-115.848 440.403,-103.053"></path>
</g>
<!-- 7 -->
<g id="node15" class="node"><title>7</title>
<ellipse fill="none" stroke="black" cx="27" cy="-18" rx="27" ry="18"></ellipse>
<text text-anchor="middle" x="27" y="-13.8" font-family="Times,serif" font-size="14.00">7</text>
</g>
<!-- 3&#45;&#45;7 -->
<g id="edge14" class="edge"><title>3--7</title>
<path fill="none" stroke="black" d="M84.4297,-74.8345C72.0202,-62.7697 54.2694,-45.5119 41.7957,-33.3847"></path>
</g>
<!-- 8 -->
<g id="node17" class="node"><title>8</title>
<ellipse fill="none" stroke="black" cx="99" cy="-18" rx="27" ry="18"></ellipse>
<text text-anchor="middle" x="99" y="-13.8" font-family="Times,serif" font-size="14.00">8</text>
</g>
<!-- 3&#45;&#45;8 -->
<g id="edge16" class="edge"><title>3--8</title>
<path fill="none" stroke="black" d="M99,-71.6966C99,-60.8463 99,-46.9167 99,-36.1043"></path>
</g>
<!-- 9 -->
<g id="node19" class="node"><title>9</title>
<ellipse fill="none" stroke="black" cx="171" cy="-18" rx="27" ry="18"></ellipse>
<text text-anchor="middle" x="171" y="-13.8" font-family="Times,serif" font-size="14.00">9</text>
</g>
<!-- 4&#45;&#45;9 -->
<g id="edge18" class="edge"><title>4--9</title>
<path fill="none" stroke="black" d="M198.65,-72.7646C192.835,-61.456 185.11,-46.4367 179.304,-35.1473"></path>
</g>
<!-- 10 -->
<g id="node21" class="node"><title>10</title>
<ellipse fill="none" stroke="black" cx="243" cy="-18" rx="27" ry="18"></ellipse>
<text text-anchor="middle" x="243" y="-13.8" font-family="Times,serif" font-size="14.00">10</text>
</g>
<!-- 4&#45;&#45;10 -->
<g id="edge20" class="edge"><title>4--10</title>
<path fill="none" stroke="black" d="M215.35,-72.7646C221.165,-61.456 228.89,-46.4367 234.696,-35.1473"></path>
</g>
<!-- 11 -->
<g id="node23" class="node"><title>11</title>
<ellipse fill="none" stroke="black" cx="315" cy="-18" rx="27" ry="18"></ellipse>
<text text-anchor="middle" x="315" y="-13.8" font-family="Times,serif" font-size="14.00">11</text>
</g>
<!-- 5&#45;&#45;11 -->
<g id="edge22" class="edge"><title>5--11</title>
<path fill="none" stroke="black" d="M342.65,-72.7646C336.835,-61.456 329.11,-46.4367 323.304,-35.1473"></path>
</g>
<!-- 12 -->
<g id="node25" class="node"><title>12</title>
<ellipse fill="none" stroke="black" cx="387" cy="-18" rx="27" ry="18"></ellipse>
<text text-anchor="middle" x="387" y="-13.8" font-family="Times,serif" font-size="14.00">12</text>
</g>
<!-- 5&#45;&#45;12 -->
<g id="edge24" class="edge"><title>5--12</title>
<path fill="none" stroke="black" d="M359.35,-72.7646C365.165,-61.456 372.89,-46.4367 378.696,-35.1473"></path>
</g>
<!-- 13 -->
<g id="node27" class="node"><title>13</title>
<ellipse fill="none" stroke="black" cx="459" cy="-18" rx="27" ry="18"></ellipse>
<text text-anchor="middle" x="459" y="-13.8" font-family="Times,serif" font-size="14.00">13</text>
</g>
<!-- 6&#45;&#45;13 -->
<g id="edge26" class="edge"><title>6--13</title>
<path fill="none" stroke="black" d="M459,-71.6966C459,-60.8463 459,-46.9167 459,-36.1043"></path>
</g>
<!-- 14 -->
<g id="node29" class="node"><title>14</title>
<ellipse fill="none" stroke="black" cx="531" cy="-18" rx="27" ry="18"></ellipse>
<text text-anchor="middle" x="531" y="-13.8" font-family="Times,serif" font-size="14.00">14</text>
</g>
<!-- 6&#45;&#45;14 -->
<g id="edge28" class="edge"><title>6--14</title>
<path fill="none" stroke="black" d="M473.57,-74.8345C485.98,-62.7697 503.731,-45.5119 516.204,-33.3847"></path>
</g>
</g>
</svg>