<svg xmlns="http://www.w3.org/2000/svg" x="0" y="0" width="662" height="470.66668701171875" style="
        width:662px;
        height:470.66668701171875px;
        background: #FFF;
        fill: none;
">
        
        
        <svg xmlns="http://www.w3.org/2000/svg" class="role-diagram-draw-area"><g class="shapes-region" style="stroke: black; fill: none;"><g class="composite-shape"><path class="real" d=" M171.5,11.67 L423.5,11.67 L423.5,457.67 L171.5,457.67 Z" style="stroke-width: 1; stroke: rgb(0, 0, 0); fill: none;"/></g><g class="composite-shape"><path class="real" d=" M171.5,29.67 L423.5,29.67 L423.5,89.67 L171.5,89.67 Z" style="stroke-width: 1; stroke: rgb(0, 0, 0); fill: rgb(144, 216, 255);"/></g><g class="composite-shape"><path class="real" d=" M171.5,209.67 L423.5,209.67 L423.5,249.33 L171.5,249.33 Z" style="stroke-width: 1; stroke: rgb(0, 0, 0); fill: rgb(245, 114, 132);"/></g><g class="composite-shape"><path class="real" d=" M171.5,249.33 L423.5,249.33 L423.5,289.67 L171.5,289.67 Z" style="stroke-width: 1; stroke: rgb(0, 0, 0); fill: rgb(43, 216, 94);"/></g><g class="composite-shape"><path class="real" d=" M171.5,289.33 L423.5,289.33 L423.5,457.67 L171.5,457.67 Z" style="stroke-width: 1; stroke: rgb(0, 0, 0); fill: rgb(144, 216, 255);"/></g><g class="composite-shape"><path class="real" d=" M171.5,170 L423.5,170 L423.5,209.67 L171.5,209.67 Z" style="stroke-width: 1; stroke: rgb(0, 0, 0); fill: rgb(80, 227, 194);"/></g><g class="composite-shape"><path class="real" d=" M171.5,90 L423.5,90 L423.5,129.67 L171.5,129.67 Z" style="stroke-width: 1; stroke: rgb(0, 0, 0); fill: rgb(80, 227, 194);"/></g><g class="composite-shape"><path class="real" d=" M171.5,130 L423.5,130 L423.5,169.67 L171.5,169.67 Z" style="stroke-width: 1; stroke: rgb(0, 0, 0); fill: rgb(80, 227, 194);"/></g><g class="composite-shape"><path class="real" d=" M191.5,289.33 L423.5,289.33 L423.5,402 L191.5,402 Z" style="stroke-width: 1; stroke: rgb(0, 0, 0); fill: rgb(74, 144, 226);"/></g><g class="composite-shape"><defs><!-- react-text: 549 --> <!-- /react-text --><pattern id="_pgfzaud6ndm9" x="0" y="0" width="11.313708498984761" height="11.313708498984761" patternTransform="rotate(45,0,0)" patternUnits="userSpaceOnUse"><path d="M0,0 L0,11.313708498984761" style="stroke: rgb(255, 0, 0); stroke-width: 1; fill: none;"/><path d="M5.656854249492381,0 L5.656854249492381,11.313708498984761" style="stroke: rgb(255, 0, 0); stroke-width: 1; fill: none;"/><path d="M11.313708498984761,0 L11.313708498984761,11.313708498984761" style="stroke: rgb(255, 0, 0); stroke-width: 1; fill: none;"/></pattern></defs><path class="real" d=" M191.5,187 L423.5,187 L423.5,289.33 L191.5,289.33 Z" style="stroke-width: 1; stroke: rgb(0, 0, 0); fill: url(&quot;#_pgfzaud6ndm9&quot;);"/></g><g class="composite-shape"><path class="real" d=" M423.5,289 Q430.5,289 430.5,282 L430.5,247.83 Q430.5,237.83 437.5,237.83 Q430.5,237.83 430.5,227.83 M430.5,230.83 L430.5,193.67 Q430.5,186.67 423.5,186.67" style="stroke-width: 1; stroke: rgb(0, 0, 0); fill: none;"/><!-- react-text: 558 -->/&gt;<!-- /react-text --></g><g class="composite-shape"><path class="real" d=" M423.5,289.33 L452.19,293.47 L450.71,296.92 L489.32,313.46 L486.36,320.36 L447.76,303.81 L446.28,307.26 Z" style="stroke-width: 1; stroke: rgb(0, 0, 0); fill: none;"/></g><g/></g><g/><g/><g/></svg>
        <svg xmlns="http://www.w3.org/2000/svg" width="660" height="468.66668701171875" style="width:660px;height:468.66668701171875px;font-family:Asana-Math, Asana;background:#FFF;"><g><g><text x="227.4739990234375" y="51.32292175292969" style="white-space:pre;stroke:none;fill:rgb(0, 0, 0);font-size:15px;font-family:Arial, Helvetica, sans-serif;font-weight:400;font-style:normal;dominant-baseline:text-before-edge;text-decoration:none solid rgb(0, 0, 0);">Previous stack frame</text></g></g><g><g><text x="246.21875" y="219.5" style="white-space:pre;stroke:none;fill:rgb(0, 0, 0);font-size:15px;font-family:Arial, Helvetica, sans-serif;font-weight:400;font-style:normal;dominant-baseline:text-before-edge;text-decoration:none solid rgb(0, 0, 0);">Return address</text></g></g><g><g><text x="215.796875" y="250.82293701171875" style="white-space:pre;stroke:none;fill:rgb(0, 0, 0);font-size:15px;font-family:Arial, Helvetica, sans-serif;font-weight:400;font-style:normal;dominant-baseline:text-before-edge;text-decoration:none solid rgb(0, 0, 0);">EBP register of </text></g><g><text x="215.796875" y="271.4895935058594" style="white-space:pre;stroke:none;fill:rgb(0, 0, 0);font-size:15px;font-family:Arial, Helvetica, sans-serif;font-weight:400;font-style:normal;dominant-baseline:text-before-edge;text-decoration:none solid rgb(0, 0, 0);">the previous stack frame</text></g></g><g><g><g><g><g><g style="transform:matrix(1,0,0,1,288,23.15625);"><path d="M499 116C469 116 442 88 442 58C442 28 469 0 498 0C530 0 558 27 558 58C558 88 530 116 499 116ZM166 116C136 116 109 88 109 58C109 28 136 0 165 0C197 0 225 27 225 58C225 88 197 116 166 116ZM832 116C802 116 775 88 775 58C775 28 802 0 831 0C863 0 891 27 891 58C891 88 863 116 832 116Z" stroke="rgb(0, 0, 0)" stroke-width="8" fill="rgb(0, 0, 0)" style="transform:matrix(0.017,0,0,-0.017,0,0);"></path></g></g></g></g></g></g><g><g><text x="425.046875" y="11.15625" style="white-space:pre;stroke:none;fill:rgb(0, 0, 0);font-size:15px;font-family:Arial, Helvetica, sans-serif;font-weight:400;font-style:normal;dominant-baseline:text-before-edge;text-decoration:none solid rgb(0, 0, 0);">Stack start,</text></g><g><text x="425.046875" y="31.822921752929688" style="white-space:pre;stroke:none;fill:rgb(0, 0, 0);font-size:15px;font-family:Arial, Helvetica, sans-serif;font-weight:400;font-style:normal;dominant-baseline:text-before-edge;text-decoration:none solid rgb(0, 0, 0);">greater addresses</text></g></g><g><g><text x="425.640625" y="418.16668701171875" style="white-space:pre;stroke:none;fill:rgb(0, 0, 0);font-size:15px;font-family:Arial, Helvetica, sans-serif;font-weight:400;font-style:normal;dominant-baseline:text-before-edge;text-decoration:none solid rgb(0, 0, 0);">End of the stack,</text></g><g><text x="425.640625" y="438.8333740234375" style="white-space:pre;stroke:none;fill:rgb(0, 0, 0);font-size:15px;font-family:Arial, Helvetica, sans-serif;font-weight:400;font-style:normal;dominant-baseline:text-before-edge;text-decoration:none solid rgb(0, 0, 0);">smaller addresses</text></g></g><g><g><text x="284.984375" y="101.5" style="white-space:pre;stroke:none;fill:rgb(0, 0, 0);font-size:15px;font-family:Arial, Helvetica, sans-serif;font-weight:400;font-style:normal;dominant-baseline:text-before-edge;text-decoration:none solid rgb(0, 0, 0);">300</text></g></g><g><g><text x="284.984375" y="140.5" style="white-space:pre;stroke:none;fill:rgb(0, 0, 0);font-size:15px;font-family:Arial, Helvetica, sans-serif;font-weight:400;font-style:normal;dominant-baseline:text-before-edge;text-decoration:none solid rgb(0, 0, 0);">200</text></g></g><g><g><text x="284.984375" y="180.5" style="white-space:pre;stroke:none;fill:rgb(0, 0, 0);font-size:15px;font-family:Arial, Helvetica, sans-serif;font-weight:400;font-style:normal;dominant-baseline:text-before-edge;text-decoration:none solid rgb(0, 0, 0);">100</text></g></g><g><g><text x="287.625" y="337.3333435058594" style="white-space:pre;stroke:none;fill:rgb(0, 0, 0);font-size:15px;font-family:Arial, Helvetica, sans-serif;font-weight:400;font-style:normal;dominant-baseline:text-before-edge;text-decoration:none solid rgb(0, 0, 0);">Buffer</text></g></g><g><g><text x="231.6458740234375" y="420.16668701171875" style="white-space:pre;stroke:none;fill:rgb(0, 0, 0);font-size:15px;font-family:Arial, Helvetica, sans-serif;font-weight:400;font-style:normal;dominant-baseline:text-before-edge;text-decoration:none solid rgb(0, 0, 0);">Current stack frame</text></g></g><g><g><text x="440.5677490234375" y="228.83334350585938" style="white-space:pre;stroke:none;fill:rgb(0, 0, 0);font-size:15px;font-family:Arial, Helvetica, sans-serif;font-weight:400;font-style:normal;dominant-baseline:text-before-edge;text-decoration:none solid rgb(0, 0, 0);">overflow</text></g></g><g><g><text x="489.609375" y="289.16668701171875" style="white-space:pre;stroke:none;fill:rgb(0, 0, 0);font-size:15px;font-family:Arial, Helvetica, sans-serif;font-weight:400;font-style:normal;dominant-baseline:text-before-edge;text-decoration:none solid rgb(0, 0, 0);">There is often a padding</text></g><g><text x="489.609375" y="309.8333435058594" style="white-space:pre;stroke:none;fill:rgb(0, 0, 0);font-size:15px;font-family:Arial, Helvetica, sans-serif;font-weight:400;font-style:normal;dominant-baseline:text-before-edge;text-decoration:none solid rgb(0, 0, 0);">between the register</text></g><g><text x="489.609375" y="330.5" style="white-space:pre;stroke:none;fill:rgb(0, 0, 0);font-size:15px;font-family:Arial, Helvetica, sans-serif;font-weight:400;font-style:normal;dominant-baseline:text-before-edge;text-decoration:none solid rgb(0, 0, 0);">and the buffer</text></g></g></svg>
</svg>
