<?xml version="1.0" encoding="UTF-8" standalone="no"?><!DOCTYPE svg PUBLIC "-//W3C//DTD SVG 1.1//EN" "http://www.w3.org/Graphics/SVG/1.1/DTD/svg11.dtd"><!-- Generated by graphviz version 2.40.1 (20161225.0304)
 --><!-- Title: G Pages: 1 --><svg xmlns="http://www.w3.org/2000/svg" xmlns:xlink="http://www.w3.org/1999/xlink" width="517pt" height="564pt" viewBox="0.00 0.00 516.51 563.80">
<g id="graph0" class="graph" transform="scale(1 1) rotate(0) translate(4 559.8)">
<title>G</title>
<polygon fill="#ffffff" stroke="transparent" points="-4,4 -4,-559.8 512.5088,-559.8 512.5088,4 -4,4"/>
<!-- empty -->
<g id="node1" class="node">
<title>empty</title>
<ellipse fill="none" stroke="#6495ed" cx="27" cy="-377" rx="27" ry="18"/>
<text text-anchor="middle" x="27" y="-372.8" font-family="times-roman-bold" font-size="14.00" fill="#000000">∅</text>
</g>
<!-- y -->
<g id="node4" class="node">
<title>y</title>
<ellipse fill="none" stroke="#000000" cx="159.3892" cy="-323" rx="27" ry="18"/>
<text text-anchor="middle" x="159.3892" y="-318.8" font-family="times-roman-bold" font-size="14.00" fill="#000000">Y</text>
</g>
<!-- empty&#45;&gt;y -->
<g id="edge20" class="edge">
<title>empty-&gt;y</title>
<path fill="none" stroke="#000000" d="M44.5476,-362.9219C52.5432,-357.0664 62.3613,-350.6188 72,-346.2 88.0362,-338.8483 106.8341,-333.4803 122.8786,-329.7712"/>
<polygon fill="#000000" stroke="#000000" points="132.9678,-327.569 124.1574,-334.0981 128.0828,-328.6353 123.1978,-329.7016 123.1978,-329.7016 123.1978,-329.7016 128.0828,-328.6353 122.2382,-325.3051 132.9678,-327.569 132.9678,-327.569"/>
<text text-anchor="middle" x="93.1946" y="-351.2" font-family="times-roman-bold" font-size="14.00" fill="#000000">Y → a</text>
</g>
<!-- x -->
<g id="node5" class="node">
<title>x</title>
<ellipse fill="none" stroke="#000000" cx="316.9248" cy="-361" rx="27" ry="18"/>
<text text-anchor="middle" x="316.9248" y="-356.8" font-family="times-roman-bold" font-size="14.00" fill="#000000">X</text>
</g>
<!-- empty&#45;&gt;x -->
<g id="edge16" class="edge">
<title>empty-&gt;x</title>
<path fill="none" stroke="#000000" d="M51.0697,-385.3947C57.7788,-387.4856 65.116,-389.5435 72,-391 153.0454,-408.148 178.8973,-414.3117 258.3892,-391 268.58,-388.0114 279.0917,-383.2351 288.3462,-378.3642"/>
<polygon fill="#000000" stroke="#000000" points="297.1232,-373.5246 290.5391,-382.2939 292.7447,-375.9389 288.3662,-378.3533 288.3662,-378.3533 288.3662,-378.3533 292.7447,-375.9389 286.1933,-374.4126 297.1232,-373.5246 297.1232,-373.5246"/>
<text text-anchor="middle" x="159.3892" y="-411.2" font-family="times-roman-bold" font-size="14.00" fill="#000000">X → b</text>
</g>
<!-- empty&#45;&gt;x -->
<g id="edge17" class="edge">
<title>empty-&gt;x</title>
<path fill="none" stroke="#000000" d="M54.0151,-375.5091C106.1315,-372.633 220.6225,-366.3146 279.8311,-363.0471"/>
<polygon fill="#000000" stroke="#000000" points="289.8727,-362.4929 280.1358,-367.5372 284.8802,-362.7685 279.8878,-363.044 279.8878,-363.044 279.8878,-363.044 284.8802,-362.7685 279.6398,-358.5509 289.8727,-362.4929 289.8727,-362.4929"/>
<text text-anchor="middle" x="159.3892" y="-376.2" font-family="times-roman-bold" font-size="14.00" fill="#000000">X → a</text>
</g>
<!-- d -->
<g id="node8" class="node">
<title>d</title>
<ellipse fill="none" stroke="#000000" cx="159.3892" cy="-232" rx="27" ry="18"/>
<text text-anchor="middle" x="159.3892" y="-227.8" font-family="times-roman-bold" font-size="14.00" fill="#000000">D</text>
</g>
<!-- empty&#45;&gt;d -->
<g id="edge5" class="edge">
<title>empty-&gt;d</title>
<path fill="none" stroke="#000000" d="M37.0815,-359.9906C45.6009,-346.2172 58.5377,-326.637 72,-311.2 91.0226,-289.3871 115.6811,-267.5163 133.9523,-252.3018"/>
<polygon fill="#000000" stroke="#000000" points="141.8544,-245.8038 136.9886,-255.631 137.9925,-248.9795 134.1305,-252.1553 134.1305,-252.1553 134.1305,-252.1553 137.9925,-248.9795 131.2723,-248.6795 141.8544,-245.8038 141.8544,-245.8038"/>
<text text-anchor="middle" x="93.1946" y="-316.2" font-family="times-roman-bold" font-size="14.00" fill="#000000">D → ε</text>
</g>
<!-- e -->
<g id="node9" class="node">
<title>e</title>
<ellipse fill="none" stroke="#000000" cx="159.3892" cy="-493" rx="27" ry="18"/>
<text text-anchor="middle" x="159.3892" y="-488.8" font-family="times-roman-bold" font-size="14.00" fill="#000000">E</text>
</g>
<!-- empty&#45;&gt;e -->
<g id="edge13" class="edge">
<title>empty-&gt;e</title>
<path fill="none" stroke="#000000" d="M36.2327,-393.9861C44.3468,-407.82 57.1556,-427.2438 72,-441 88.3889,-456.1875 109.9323,-469.0677 127.5278,-478.2099"/>
<polygon fill="#000000" stroke="#000000" points="136.8392,-482.8953 125.8836,-482.4201 132.3728,-480.6478 127.9063,-478.4003 127.9063,-478.4003 127.9063,-478.4003 132.3728,-480.6478 129.9291,-474.3806 136.8392,-482.8953 136.8392,-482.8953"/>
<text text-anchor="middle" x="93.1946" y="-474.2" font-family="times-roman-bold" font-size="14.00" fill="#000000">E → ab</text>
</g>
<!-- h -->
<g id="node2" class="node">
<title>h</title>
<ellipse fill="none" stroke="#000000" cx="231.3892" cy="-112" rx="27" ry="18"/>
<text text-anchor="middle" x="231.3892" y="-107.8" font-family="times-roman-bold" font-size="14.00" fill="#000000">H</text>
</g>
<!-- h&#45;&gt;h -->
<g id="edge10" class="edge">
<title>h-&gt;h</title>
<path fill="none" stroke="#000000" d="M218.8417,-128.2903C215.8161,-138.3892 219.9986,-148 231.3892,-148 238.6863,-148 243.0252,-144.0557 244.4059,-138.5656"/>
<polygon fill="#000000" stroke="#000000" points="243.9367,-128.2903 248.8883,-138.0745 244.1648,-133.2851 244.3929,-138.2799 244.3929,-138.2799 244.3929,-138.2799 244.1648,-133.2851 239.8976,-138.4852 243.9367,-128.2903 243.9367,-128.2903"/>
<text text-anchor="middle" x="231.3892" y="-152.2" font-family="times-roman-bold" font-size="14.00" fill="#000000">H → H</text>
</g>
<!-- s -->
<g id="node11" class="node">
<title>s</title>
<ellipse fill="none" stroke="#000000" cx="481.5088" cy="-152" rx="27" ry="18"/>
<text text-anchor="middle" x="481.5088" y="-147.8" font-family="times-roman-bold" font-size="14.00" fill="#000000">S</text>
</g>
<!-- h&#45;&gt;s -->
<g id="edge1" class="edge">
<title>h-&gt;s</title>
<path fill="none" stroke="#000000" d="M257.6836,-116.2051C302.625,-123.3923 394.2854,-138.0509 445.2631,-146.2035"/>
<polygon fill="#000000" stroke="#000000" points="455.1913,-147.7912 444.6061,-150.6555 450.2541,-147.0016 445.3168,-146.212 445.3168,-146.212 445.3168,-146.212 450.2541,-147.0016 446.0275,-141.7684 455.1913,-147.7912 455.1913,-147.7912"/>
<text text-anchor="middle" x="316.9248" y="-136.2" font-family="times-roman-bold" font-size="14.00" fill="#000000">S → H</text>
</g>
<!-- f -->
<g id="node3" class="node">
<title>f</title>
<ellipse fill="none" stroke="#000000" cx="27" cy="-180" rx="27" ry="18"/>
<text text-anchor="middle" x="27" y="-175.8" font-family="times-roman-bold" font-size="14.00" fill="#000000">F</text>
</g>
<!-- f&#45;&gt;h -->
<g id="edge9" class="edge">
<title>f-&gt;h</title>
<path fill="none" stroke="#000000" d="M51.2487,-171.9325C87.5889,-159.8422 156.3042,-136.9807 197.5605,-123.2548"/>
<polygon fill="#000000" stroke="#000000" points="207.172,-120.057 199.104,-127.4838 202.4277,-121.6355 197.6834,-123.2139 197.6834,-123.2139 197.6834,-123.2139 202.4277,-121.6355 196.2627,-118.9441 207.172,-120.057 207.172,-120.057"/>
<text text-anchor="middle" x="93.1946" y="-169.2" font-family="times-roman-bold" font-size="14.00" fill="#000000">H → bF</text>
</g>
<!-- f&#45;&gt;f -->
<g id="edge11" class="edge">
<title>f-&gt;f</title>
<path fill="none" stroke="#000000" d="M15.4981,-196.2903C12.7246,-206.3892 16.5586,-216 27,-216 33.689,-216 37.6664,-212.0557 38.932,-206.5656"/>
<polygon fill="#000000" stroke="#000000" points="38.5019,-196.2903 43.4162,-206.0933 38.711,-201.2859 38.9202,-206.2815 38.9202,-206.2815 38.9202,-206.2815 38.711,-201.2859 34.4241,-206.4698 38.5019,-196.2903 38.5019,-196.2903"/>
<text text-anchor="middle" x="27" y="-220.2" font-family="times-roman-bold" font-size="14.00" fill="#000000">F → Fa</text>
</g>
<!-- f&#45;&gt;d -->
<g id="edge6" class="edge">
<title>f-&gt;d</title>
<path fill="none" stroke="#000000" d="M50.3638,-189.1769C71.4083,-197.4427 102.5744,-209.6842 126.201,-218.9643"/>
<polygon fill="#000000" stroke="#000000" points="135.8137,-222.74 124.8607,-223.2725 131.1598,-220.912 126.5059,-219.084 126.5059,-219.084 126.5059,-219.084 131.1598,-220.912 128.1511,-214.8955 135.8137,-222.74 135.8137,-222.74"/>
<text text-anchor="middle" x="93.1946" y="-218.2" font-family="times-roman-bold" font-size="14.00" fill="#000000">D → aF</text>
</g>
<!-- y&#45;&gt;x -->
<g id="edge18" class="edge">
<title>y-&gt;x</title>
<path fill="none" stroke="#000000" d="M185.0589,-328.8861C205.0615,-333.504 233.5193,-340.1424 258.3892,-346.2 265.9663,-348.0456 274.0832,-350.0684 281.7861,-352.0096"/>
<polygon fill="#000000" stroke="#000000" points="291.5938,-354.4927 280.7952,-356.4007 286.7467,-353.2655 281.8997,-352.0383 281.8997,-352.0383 281.8997,-352.0383 286.7467,-353.2655 283.0042,-347.6759 291.5938,-354.4927 291.5938,-354.4927"/>
<text text-anchor="middle" x="231.3892" y="-351.2" font-family="times-roman-bold" font-size="14.00" fill="#000000">X → Y</text>
</g>
<!-- x&#45;&gt;y -->
<g id="edge19" class="edge">
<title>x-&gt;y</title>
<path fill="none" stroke="#000000" d="M303.3352,-345.2003C292.4822,-333.8745 276.1858,-319.5432 258.3892,-313.2 237.7034,-305.827 213.144,-308.1955 193.6617,-312.4475"/>
<polygon fill="#000000" stroke="#000000" points="183.7014,-314.877 192.3502,-308.1354 188.559,-313.6922 193.4166,-312.5073 193.4166,-312.5073 193.4166,-312.5073 188.559,-313.6922 194.483,-316.8791 183.7014,-314.877 183.7014,-314.877"/>
<text text-anchor="middle" x="231.3892" y="-318.2" font-family="times-roman-bold" font-size="14.00" fill="#000000">Y → X</text>
</g>
<!-- xe -->
<g id="node6" class="node">
<title>xe</title>
<ellipse fill="none" stroke="#000000" cx="316.9248" cy="-72" rx="28.9735" ry="18"/>
<text text-anchor="middle" x="316.9248" y="-67.8" font-family="times-roman-bold" font-size="14.00" fill="#000000">X, E</text>
</g>
<!-- xe&#45;&gt;s -->
<g id="edge3" class="edge">
<title>xe-&gt;s</title>
<path fill="none" stroke="#000000" d="M345.9949,-72.0822C371.5455,-73.3881 408.8599,-78.3922 436.5088,-95.2 448.8934,-102.7287 459.2446,-114.984 466.8844,-126.1872"/>
<polygon fill="#000000" stroke="#000000" points="472.4172,-134.836 463.2376,-128.8372 469.7227,-130.6241 467.0283,-126.4122 467.0283,-126.4122 467.0283,-126.4122 469.7227,-130.6241 470.819,-123.9872 472.4172,-134.836 472.4172,-134.836"/>
<text text-anchor="middle" x="405.9846" y="-100.2" font-family="times-roman-bold" font-size="14.00" fill="#000000">S → XE</text>
</g>
<!-- xeg -->
<g id="node7" class="node">
<title>xeg</title>
<ellipse fill="none" stroke="#000000" cx="316.9248" cy="-18" rx="40.5712" ry="18"/>
<text text-anchor="middle" x="316.9248" y="-13.8" font-family="times-roman-bold" font-size="14.00" fill="#000000">X, E, G</text>
</g>
<!-- xeg&#45;&gt;s -->
<g id="edge12" class="edge">
<title>xeg-&gt;s</title>
<path fill="none" stroke="#000000" d="M356.4468,-22.0263C381.8924,-26.4509 414.2511,-35.733 436.5088,-55.2 457.0086,-73.1296 468.8014,-102.372 475.1285,-124.0311"/>
<polygon fill="#000000" stroke="#000000" points="477.8096,-133.9719 470.8607,-125.4887 476.5075,-129.1444 475.2055,-124.3169 475.2055,-124.3169 475.2055,-124.3169 476.5075,-129.1444 479.5502,-123.145 477.8096,-133.9719 477.8096,-133.9719"/>
<text text-anchor="middle" x="405.9846" y="-60.2" font-family="times-roman-bold" font-size="14.00" fill="#000000">S → XEGb</text>
</g>
<!-- c -->
<g id="node12" class="node">
<title>c</title>
<ellipse fill="none" stroke="#000000" cx="316.9248" cy="-285" rx="27" ry="18"/>
<text text-anchor="middle" x="316.9248" y="-280.8" font-family="times-roman-bold" font-size="14.00" fill="#000000">C</text>
</g>
<!-- d&#45;&gt;c -->
<g id="edge4" class="edge">
<title>d-&gt;c</title>
<path fill="none" stroke="#000000" d="M183.6589,-240.1651C210.2561,-249.1132 253.1138,-263.5319 283.023,-273.5944"/>
<polygon fill="#000000" stroke="#000000" points="292.6275,-276.8256 281.7146,-277.902 287.8885,-275.2312 283.1495,-273.6369 283.1495,-273.6369 283.1495,-273.6369 287.8885,-275.2312 284.5845,-269.3718 292.6275,-276.8256 292.6275,-276.8256"/>
<text text-anchor="middle" x="231.3892" y="-269.2" font-family="times-roman-bold" font-size="14.00" fill="#000000">C → D</text>
</g>
<!-- g -->
<g id="node10" class="node">
<title>g</title>
<ellipse fill="none" stroke="#000000" cx="27" cy="-503" rx="27" ry="18"/>
<text text-anchor="middle" x="27" y="-498.8" font-family="times-roman-bold" font-size="14.00" fill="#000000">G</text>
</g>
<!-- g&#45;&gt;e -->
<g id="edge14" class="edge">
<title>g-&gt;e</title>
<path fill="none" stroke="#000000" d="M54.1104,-500.9522C73.7436,-499.4692 100.5236,-497.4464 122.1604,-495.8121"/>
<polygon fill="#000000" stroke="#000000" points="132.3151,-495.045 122.6824,-500.2856 127.3293,-495.4217 122.3435,-495.7983 122.3435,-495.7983 122.3435,-495.7983 127.3293,-495.4217 122.0045,-491.3111 132.3151,-495.045 132.3151,-495.045"/>
<text text-anchor="middle" x="93.1946" y="-504.2" font-family="times-roman-bold" font-size="14.00" fill="#000000">E → G</text>
</g>
<!-- g&#45;&gt;g -->
<g id="edge15" class="edge">
<title>g-&gt;g</title>
<path fill="none" stroke="#000000" d="M15.4981,-519.2903C12.7246,-529.3892 16.5586,-539 27,-539 33.689,-539 37.6664,-535.0557 38.932,-529.5656"/>
<polygon fill="#000000" stroke="#000000" points="38.5019,-519.2903 43.4162,-529.0933 38.711,-524.2859 38.9202,-529.2815 38.9202,-529.2815 38.9202,-529.2815 38.711,-524.2859 34.4241,-529.4698 38.5019,-519.2903 38.5019,-519.2903"/>
<text text-anchor="middle" x="27" y="-543.2" font-family="times-roman-bold" font-size="14.00" fill="#000000">G → aG</text>
</g>
<!-- s&#45;&gt;d -->
<g id="edge7" class="edge">
<title>s-&gt;d</title>
<path fill="none" stroke="#000000" d="M468.1912,-168.1842C460.0021,-176.9955 448.7521,-187.2455 436.5088,-193 356.9903,-230.3743 251.5269,-234.4068 196.4573,-233.5532"/>
<polygon fill="#000000" stroke="#000000" points="186.4582,-233.3349 196.5541,-229.0544 191.457,-233.4441 196.4558,-233.5533 196.4558,-233.5533 196.4558,-233.5533 191.457,-233.4441 196.3576,-238.0522 186.4582,-233.3349 186.4582,-233.3349"/>
<text text-anchor="middle" x="316.9248" y="-235.2" font-family="times-roman-bold" font-size="14.00" fill="#000000">D → aSb</text>
</g>
<!-- s&#45;&gt;d -->
<g id="edge8" class="edge">
<title>s-&gt;d</title>
<path fill="none" stroke="#000000" d="M455.5101,-157.5706C416.4789,-166.0265 340.4776,-182.8527 276.3892,-199.2 248.6117,-206.2853 217.3566,-215.0907 194.1429,-221.7936"/>
<polygon fill="#000000" stroke="#000000" points="184.4028,-224.6188 192.7533,-217.5111 189.2049,-223.2259 194.007,-221.8329 194.007,-221.8329 194.007,-221.8329 189.2049,-223.2259 195.2606,-226.1548 184.4028,-224.6188 184.4028,-224.6188"/>
<text text-anchor="middle" x="316.9248" y="-204.2" font-family="times-roman-bold" font-size="14.00" fill="#000000">D → S</text>
</g>
<!-- c&#45;&gt;s -->
<g id="edge2" class="edge">
<title>c-&gt;s</title>
<path fill="none" stroke="#000000" d="M343.678,-282.3772C370.0916,-278.5091 410.2359,-269.033 436.5088,-246 456.3849,-228.5749 468.2306,-200.4247 474.7383,-179.4654"/>
<polygon fill="#000000" stroke="#000000" points="477.516,-169.8325 479.0691,-180.6879 476.1306,-174.6368 474.7453,-179.441 474.7453,-179.441 474.7453,-179.441 476.1306,-174.6368 470.4214,-178.1942 477.516,-169.8325 477.516,-169.8325"/>
<text text-anchor="middle" x="405.9846" y="-280.2" font-family="times-roman-bold" font-size="14.00" fill="#000000">S → C</text>
</g>
</g>
</svg>