<?xml version="1.0" encoding="UTF-8" standalone="no"?><!DOCTYPE svg PUBLIC "-//W3C//DTD SVG 1.1//EN" "http://www.w3.org/Graphics/SVG/1.1/DTD/svg11.dtd"><!-- Generated by graphviz version 2.40.1 (20161225.0304)
 --><!-- Title: G Pages: 1 --><svg xmlns="http://www.w3.org/2000/svg" xmlns:xlink="http://www.w3.org/1999/xlink" width="179pt" height="152pt" viewBox="0.00 0.00 179.09 152.00">
<g id="graph0" class="graph" transform="scale(1 1) rotate(0) translate(4 148)">
<title>G</title>
<polygon fill="#ffffff" stroke="transparent" points="-4,4 -4,-148 175.0905,-148 175.0905,4 -4,4"/>
<!-- a -->
<g id="node1" class="node">
<title>a</title>
<ellipse fill="none" stroke="#000000" cx="27" cy="-126" rx="27" ry="18"/>
<text text-anchor="middle" x="27" y="-121.8" font-family="times-roman-bold" font-size="14.00" fill="#000000">A</text>
</g>
<!-- abc -->
<g id="node4" class="node">
<title>abc</title>
<ellipse fill="none" stroke="#000000" cx="130.5452" cy="-72" rx="40.5905" ry="18"/>
<text text-anchor="middle" x="130.5452" y="-67.8" font-family="times-roman-bold" font-size="14.00" fill="#000000">A, B, C</text>
</g>
<!-- a&#45;&gt;abc -->
<g id="edge1" class="edge">
<title>a-&gt;abc</title>
<path fill="none" stroke="#000000" stroke-dasharray="5,2" d="M48.4546,-114.8112C61.7976,-107.8526 79.2889,-98.7308 94.6959,-90.6959"/>
<polygon fill="#000000" stroke="#000000" points="103.9638,-85.8625 97.178,-94.4766 99.5305,-88.1746 95.0971,-90.4866 95.0971,-90.4866 95.0971,-90.4866 99.5305,-88.1746 93.0163,-86.4966 103.9638,-85.8625 103.9638,-85.8625"/>
</g>
<!-- b -->
<g id="node2" class="node">
<title>b</title>
<ellipse fill="none" stroke="#000000" cx="27" cy="-72" rx="27" ry="18"/>
<text text-anchor="middle" x="27" y="-67.8" font-family="times-roman-bold" font-size="14.00" fill="#000000">B</text>
</g>
<!-- b&#45;&gt;abc -->
<g id="edge2" class="edge">
<title>b-&gt;abc</title>
<path fill="none" stroke="#000000" stroke-dasharray="5,2" d="M54.2053,-72C62.0435,-72 70.8597,-72 79.6425,-72"/>
<polygon fill="#000000" stroke="#000000" points="89.8768,-72 79.8769,-76.5001 84.8768,-72 79.8768,-72.0001 79.8768,-72.0001 79.8768,-72.0001 84.8768,-72 79.8768,-67.5001 89.8768,-72 89.8768,-72"/>
</g>
<!-- c -->
<g id="node3" class="node">
<title>c</title>
<ellipse fill="none" stroke="#000000" cx="27" cy="-18" rx="27" ry="18"/>
<text text-anchor="middle" x="27" y="-13.8" font-family="times-roman-bold" font-size="14.00" fill="#000000">C</text>
</g>
<!-- c&#45;&gt;abc -->
<g id="edge3" class="edge">
<title>c-&gt;abc</title>
<path fill="none" stroke="#000000" stroke-dasharray="5,2" d="M48.4546,-29.1888C61.7976,-36.1474 79.2889,-45.2692 94.6959,-53.3041"/>
<polygon fill="#000000" stroke="#000000" points="103.9638,-58.1375 93.0163,-57.5034 99.5305,-55.8254 95.0971,-53.5134 95.0971,-53.5134 95.0971,-53.5134 99.5305,-55.8254 97.178,-49.5234 103.9638,-58.1375 103.9638,-58.1375"/>
</g>
</g>
</svg>