<?xml version="1.0" encoding="UTF-8" standalone="no"?><!DOCTYPE svg PUBLIC "-//W3C//DTD SVG 1.1//EN" "http://www.w3.org/Graphics/SVG/1.1/DTD/svg11.dtd"><!-- Generated by graphviz version 2.40.1 (20161225.0304)
 --><!-- Title: G Pages: 1 --><svg xmlns="http://www.w3.org/2000/svg" xmlns:xlink="http://www.w3.org/1999/xlink" width="890pt" height="337pt" viewBox="0.00 0.00 889.59 336.80">
<g id="graph0" class="graph" transform="scale(1 1) rotate(0) translate(4 332.8)">
<title>G</title>
<polygon fill="#ffffff" stroke="transparent" points="-4,4 -4,-332.8 885.5902,-332.8 885.5902,4 -4,4"/>
<!-- empty -->
<g id="node1" class="node">
<title>empty</title>
<ellipse fill="none" stroke="#6495ed" cx="27" cy="-213" rx="27" ry="18"/>
<text text-anchor="middle" x="27" y="-208.8" font-family="times-roman-bold" font-size="14.00" fill="#000000">∅</text>
</g>
<!-- y -->
<g id="node4" class="node">
<title>y</title>
<ellipse fill="none" stroke="#000000" cx="150.8212" cy="-159" rx="27" ry="18"/>
<text text-anchor="middle" x="150.8212" y="-154.8" font-family="times-roman-bold" font-size="14.00" fill="#000000">Y</text>
</g>
<!-- empty&#45;&gt;y -->
<g id="edge20" class="edge">
<title>empty-&gt;y</title>
<path fill="none" stroke="#000000" d="M44.6045,-199.0439C52.6107,-193.2111 62.4213,-186.7473 72,-182.2 85.4521,-175.8138 101.0398,-170.7782 114.7846,-167.0536"/>
<polygon fill="#000000" stroke="#000000" points="124.8701,-164.4602 116.3059,-171.3088 120.0277,-165.7054 115.1852,-166.9506 115.1852,-166.9506 115.1852,-166.9506 120.0277,-165.7054 114.0645,-162.5924 124.8701,-164.4602 124.8701,-164.4602"/>
<text text-anchor="middle" x="88.9106" y="-187.2" font-family="times-roman-bold" font-size="14.00" fill="#000000">Y → a</text>
</g>
<!-- x -->
<g id="node5" class="node">
<title>x</title>
<ellipse fill="none" stroke="#000000" cx="278.5344" cy="-172" rx="27" ry="18"/>
<text text-anchor="middle" x="278.5344" y="-167.8" font-family="times-roman-bold" font-size="14.00" fill="#000000">X</text>
</g>
<!-- empty&#45;&gt;x -->
<g id="edge16" class="edge">
<title>empty-&gt;x</title>
<path fill="none" stroke="#000000" d="M50.2861,-222.5025C90.6627,-237.3505 174.9519,-261.0216 233.5344,-227 245.0644,-220.304 243.1503,-213.3675 251.5344,-203 253.5988,-200.4472 255.7931,-197.8109 258.0039,-195.2036"/>
<polygon fill="#000000" stroke="#000000" points="264.5727,-187.5807 261.4537,-198.0937 261.3087,-191.3684 258.0448,-195.1561 258.0448,-195.1561 258.0448,-195.1561 261.3087,-191.3684 254.6358,-192.2186 264.5727,-187.5807 264.5727,-187.5807"/>
<text text-anchor="middle" x="150.8212" y="-248.2" font-family="times-roman-bold" font-size="14.00" fill="#000000">X → b</text>
</g>
<!-- empty&#45;&gt;x -->
<g id="edge17" class="edge">
<title>empty-&gt;x</title>
<path fill="none" stroke="#000000" d="M54.1067,-211.968C93.9388,-209.9774 170.3965,-204.3468 233.5344,-189 237.6427,-188.0014 241.8859,-186.733 246.05,-185.3404"/>
<polygon fill="#000000" stroke="#000000" points="255.5221,-181.9346 247.6345,-189.5528 250.817,-183.6264 246.1119,-185.3182 246.1119,-185.3182 246.1119,-185.3182 250.817,-183.6264 244.5893,-181.0837 255.5221,-181.9346 255.5221,-181.9346"/>
<text text-anchor="middle" x="150.8212" y="-210.2" font-family="times-roman-bold" font-size="14.00" fill="#000000">X → a</text>
</g>
<!-- d -->
<g id="node8" class="node">
<title>d</title>
<ellipse fill="none" stroke="#000000" cx="727.647" cy="-242" rx="27" ry="18"/>
<text text-anchor="middle" x="727.647" y="-237.8" font-family="times-roman-bold" font-size="14.00" fill="#000000">D</text>
</g>
<!-- empty&#45;&gt;d -->
<g id="edge5" class="edge">
<title>empty-&gt;d</title>
<path fill="none" stroke="#000000" d="M37.3153,-229.794C56.1028,-258.0391 98.8026,-312 150.8212,-312 150.8212,-312 150.8212,-312 589.0432,-312 633.0719,-312 677.3365,-283.5082 703.6152,-262.8794"/>
<polygon fill="#000000" stroke="#000000" points="711.4921,-256.504 706.5501,-266.2932 707.6056,-259.6497 703.7191,-262.7953 703.7191,-262.7953 703.7191,-262.7953 707.6056,-259.6497 700.888,-259.2974 711.4921,-256.504 711.4921,-256.504"/>
<text text-anchor="middle" x="344.729" y="-316.2" font-family="times-roman-bold" font-size="14.00" fill="#000000">D → ε</text>
</g>
<!-- e -->
<g id="node9" class="node">
<title>e</title>
<ellipse fill="none" stroke="#000000" cx="278.5344" cy="-100" rx="27" ry="18"/>
<text text-anchor="middle" x="278.5344" y="-95.8" font-family="times-roman-bold" font-size="14.00" fill="#000000">E</text>
</g>
<!-- empty&#45;&gt;e -->
<g id="edge13" class="edge">
<title>empty-&gt;e</title>
<path fill="none" stroke="#000000" d="M37.755,-196.3045C53.5284,-173.4432 85.2839,-133.187 123.8212,-115.2 161.0648,-97.8168 208.7459,-95.7362 241.2677,-96.9035"/>
<polygon fill="#000000" stroke="#000000" points="251.6786,-97.4064 241.4731,-101.4186 246.6844,-97.1651 241.6903,-96.9238 241.6903,-96.9238 241.6903,-96.9238 246.6844,-97.1651 241.9075,-92.429 251.6786,-97.4064 251.6786,-97.4064"/>
<text text-anchor="middle" x="150.8212" y="-120.2" font-family="times-roman-bold" font-size="14.00" fill="#000000">E → ab</text>
</g>
<!-- h -->
<g id="node2" class="node">
<title>h</title>
<ellipse fill="none" stroke="#000000" cx="424.4592" cy="-194" rx="27" ry="18"/>
<text text-anchor="middle" x="424.4592" y="-189.8" font-family="times-roman-bold" font-size="14.00" fill="#000000">H</text>
</g>
<!-- h&#45;&gt;h -->
<g id="edge10" class="edge">
<title>h-&gt;h</title>
<path fill="none" stroke="#000000" d="M410.991,-209.916C407.4776,-220.1504 411.967,-230 424.4592,-230 432.6572,-230 437.4087,-225.7581 438.7136,-219.9494"/>
<polygon fill="#000000" stroke="#000000" points="437.9273,-209.916 443.1949,-219.5338 438.318,-214.9007 438.7087,-219.8855 438.7087,-219.8855 438.7087,-219.8855 438.318,-214.9007 434.2224,-220.2371 437.9273,-209.916 437.9273,-209.916"/>
<text text-anchor="middle" x="424.4592" y="-234.2" font-family="times-roman-bold" font-size="14.00" fill="#000000">H → H</text>
</g>
<!-- s -->
<g id="node11" class="node">
<title>s</title>
<ellipse fill="none" stroke="#000000" cx="589.0432" cy="-181" rx="27" ry="18"/>
<text text-anchor="middle" x="589.0432" y="-176.8" font-family="times-roman-bold" font-size="14.00" fill="#000000">S</text>
</g>
<!-- h&#45;&gt;s -->
<g id="edge1" class="edge">
<title>h-&gt;s</title>
<path fill="none" stroke="#000000" d="M451.6369,-191.8533C478.9971,-189.6922 521.4004,-186.3429 551.865,-183.9366"/>
<polygon fill="#000000" stroke="#000000" points="562.0986,-183.1283 552.4841,-188.4018 557.1142,-183.522 552.1297,-183.9158 552.1297,-183.9158 552.1297,-183.9158 557.1142,-183.522 551.7753,-179.4297 562.0986,-183.1283 562.0986,-183.1283"/>
<text text-anchor="middle" x="513.519" y="-194.2" font-family="times-roman-bold" font-size="14.00" fill="#000000">S → H</text>
</g>
<!-- f -->
<g id="node3" class="node">
<title>f</title>
<ellipse fill="none" stroke="#000000" cx="278.5344" cy="-230" rx="27" ry="18"/>
<text text-anchor="middle" x="278.5344" y="-225.8" font-family="times-roman-bold" font-size="14.00" fill="#000000">F</text>
</g>
<!-- f&#45;&gt;h -->
<g id="edge9" class="edge">
<title>f-&gt;h</title>
<path fill="none" stroke="#000000" d="M303.9526,-223.7293C327.4532,-217.9316 362.6096,-209.2585 388.8929,-202.7743"/>
<polygon fill="#000000" stroke="#000000" points="398.8427,-200.3197 390.2116,-207.0839 393.9882,-201.5173 389.1338,-202.7149 389.1338,-202.7149 389.1338,-202.7149 393.9882,-201.5173 388.0559,-198.3459 398.8427,-200.3197 398.8427,-200.3197"/>
<text text-anchor="middle" x="344.729" y="-222.2" font-family="times-roman-bold" font-size="14.00" fill="#000000">H → bF</text>
</g>
<!-- f&#45;&gt;f -->
<g id="edge11" class="edge">
<title>f-&gt;f</title>
<path fill="none" stroke="#000000" d="M267.636,-246.6641C265.2141,-256.625 268.8469,-266 278.5344,-266 284.7405,-266 288.4617,-262.1525 289.698,-256.7682"/>
<polygon fill="#000000" stroke="#000000" points="289.4328,-246.6641 294.1937,-256.5425 289.5641,-251.6623 289.6953,-256.6606 289.6953,-256.6606 289.6953,-256.6606 289.5641,-251.6623 285.1968,-256.7787 289.4328,-246.6641 289.4328,-246.6641"/>
<text text-anchor="middle" x="278.5344" y="-270.2" font-family="times-roman-bold" font-size="14.00" fill="#000000">F → Fa</text>
</g>
<!-- f&#45;&gt;d -->
<g id="edge6" class="edge">
<title>f-&gt;d</title>
<path fill="none" stroke="#000000" d="M303.3712,-237.5946C324.5461,-243.6565 355.9145,-251.6666 383.9236,-255 494.3097,-268.1372 522.8782,-255.7778 634.0432,-256 655.6448,-256.0432 661.2904,-259.2454 682.647,-256 686.3426,-255.4384 690.1524,-254.6313 693.918,-253.6843"/>
<polygon fill="#000000" stroke="#000000" points="703.6732,-250.9231 695.2768,-257.9766 698.8622,-252.2849 694.0512,-253.6467 694.0512,-253.6467 694.0512,-253.6467 698.8622,-252.2849 692.8256,-249.3168 703.6732,-250.9231 703.6732,-250.9231"/>
<text text-anchor="middle" x="513.519" y="-265.2" font-family="times-roman-bold" font-size="14.00" fill="#000000">D → aF</text>
</g>
<!-- y&#45;&gt;x -->
<g id="edge18" class="edge">
<title>y-&gt;x</title>
<path fill="none" stroke="#000000" d="M177.5941,-161.7252C196.1554,-163.6146 221.1139,-166.1551 241.5686,-168.2372"/>
<polygon fill="#000000" stroke="#000000" points="251.7968,-169.2784 241.3924,-172.7425 246.8225,-168.772 241.8482,-168.2656 241.8482,-168.2656 241.8482,-168.2656 246.8225,-168.772 242.3039,-163.7887 251.7968,-169.2784 251.7968,-169.2784"/>
<text text-anchor="middle" x="214.6778" y="-172.2" font-family="times-roman-bold" font-size="14.00" fill="#000000">X → Y</text>
</g>
<!-- x&#45;&gt;y -->
<g id="edge19" class="edge">
<title>x-&gt;y</title>
<path fill="none" stroke="#000000" d="M261.3018,-157.6833C253.3645,-151.9946 243.5049,-146.1174 233.5344,-143.2 217.1902,-138.4176 198.5948,-141.2586 183.1808,-145.7756"/>
<polygon fill="#000000" stroke="#000000" points="173.5666,-148.9226 181.6704,-141.535 178.3185,-147.3672 183.0704,-145.8117 183.0704,-145.8117 183.0704,-145.8117 178.3185,-147.3672 184.4703,-150.0884 173.5666,-148.9226 173.5666,-148.9226"/>
<text text-anchor="middle" x="214.6778" y="-148.2" font-family="times-roman-bold" font-size="14.00" fill="#000000">Y → X</text>
</g>
<!-- xe -->
<g id="node6" class="node">
<title>xe</title>
<ellipse fill="none" stroke="#000000" cx="424.4592" cy="-140" rx="28.9735" ry="18"/>
<text text-anchor="middle" x="424.4592" y="-135.8" font-family="times-roman-bold" font-size="14.00" fill="#000000">X, E</text>
</g>
<!-- x&#45;&gt;xe -->
<g id="edge21" class="edge">
<title>x-&gt;xe</title>
<path fill="none" stroke="#000000" stroke-dasharray="5,2" d="M305.0755,-168.2399C322.4775,-165.5795 345.6722,-161.6631 365.9236,-157 373.4525,-155.2664 381.4479,-153.1389 389.0314,-150.9833"/>
<polygon fill="#000000" stroke="#000000" points="398.6895,-148.164 390.3511,-155.2859 393.8898,-149.5651 389.0901,-150.9662 389.0901,-150.9662 389.0901,-150.9662 393.8898,-149.5651 387.8291,-146.6465 398.6895,-148.164 398.6895,-148.164"/>
</g>
<!-- xeg -->
<g id="node7" class="node">
<title>xeg</title>
<ellipse fill="none" stroke="#000000" cx="424.4592" cy="-86" rx="40.5712" ry="18"/>
<text text-anchor="middle" x="424.4592" y="-81.8" font-family="times-roman-bold" font-size="14.00" fill="#000000">X, E, G</text>
</g>
<!-- x&#45;&gt;xeg -->
<g id="edge23" class="edge">
<title>x-&gt;xeg</title>
<path fill="none" stroke="#000000" stroke-dasharray="5,2" d="M298.8246,-160.0421C322.7094,-145.9657 362.7191,-122.3862 391.1675,-105.6203"/>
<polygon fill="#000000" stroke="#000000" points="399.9627,-100.4369 393.6323,-109.3911 395.6551,-102.9756 391.3475,-105.5142 391.3475,-105.5142 391.3475,-105.5142 395.6551,-102.9756 389.0627,-101.6374 399.9627,-100.4369 399.9627,-100.4369"/>
</g>
<!-- xe&#45;&gt;s -->
<g id="edge3" class="edge">
<title>xe-&gt;s</title>
<path fill="none" stroke="#000000" d="M452.7885,-144.4362C477.2114,-148.5676 513.2907,-155.4073 544.0432,-164.2 548.1022,-165.3606 552.3157,-166.7191 556.4637,-168.1519"/>
<polygon fill="#000000" stroke="#000000" points="565.9205,-171.5719 554.9861,-172.4027 561.2185,-169.8714 556.5165,-168.171 556.5165,-168.171 556.5165,-168.171 561.2185,-169.8714 558.0469,-163.9392 565.9205,-171.5719 565.9205,-171.5719"/>
<text text-anchor="middle" x="513.519" y="-169.2" font-family="times-roman-bold" font-size="14.00" fill="#000000">S → XE</text>
</g>
<!-- xeg&#45;&gt;s -->
<g id="edge12" class="edge">
<title>xeg-&gt;s</title>
<path fill="none" stroke="#000000" d="M460.6504,-94.3732C485.5771,-101.2913 518.65,-112.8293 544.0432,-130.2 554.3177,-137.2285 563.7764,-147.1085 571.3426,-156.2891"/>
<polygon fill="#000000" stroke="#000000" points="577.7282,-164.4218 568.0131,-159.3356 574.6403,-160.4892 571.5525,-156.5565 571.5525,-156.5565 571.5525,-156.5565 574.6403,-160.4892 575.0919,-153.7775 577.7282,-164.4218 577.7282,-164.4218"/>
<text text-anchor="middle" x="513.519" y="-135.2" font-family="times-roman-bold" font-size="14.00" fill="#000000">S → XEGb</text>
</g>
<!-- c -->
<g id="node12" class="node">
<title>c</title>
<ellipse fill="none" stroke="#000000" cx="854.5902" cy="-185" rx="27" ry="18"/>
<text text-anchor="middle" x="854.5902" y="-180.8" font-family="times-roman-bold" font-size="14.00" fill="#000000">C</text>
</g>
<!-- d&#45;&gt;c -->
<g id="edge4" class="edge">
<title>d-&gt;c</title>
<path fill="none" stroke="#000000" d="M750.0496,-231.9408C770.2285,-222.8801 800.1125,-209.4615 822.7672,-199.2891"/>
<polygon fill="#000000" stroke="#000000" points="831.9844,-195.1504 824.7052,-203.3518 827.4231,-197.1985 822.8619,-199.2467 822.8619,-199.2467 822.8619,-199.2467 827.4231,-197.1985 821.0185,-195.1415 831.9844,-195.1504 831.9844,-195.1504"/>
<text text-anchor="middle" x="791.1186" y="-224.2" font-family="times-roman-bold" font-size="14.00" fill="#000000">C → D</text>
</g>
<!-- e&#45;&gt;xe -->
<g id="edge22" class="edge">
<title>e-&gt;xe</title>
<path fill="none" stroke="#000000" stroke-dasharray="5,2" d="M303.6198,-106.8762C326.7841,-113.2259 361.4757,-122.7354 387.7541,-129.9386"/>
<polygon fill="#000000" stroke="#000000" points="397.7275,-132.6725 386.8936,-134.3687 392.9054,-131.3506 388.0833,-130.0288 388.0833,-130.0288 388.0833,-130.0288 392.9054,-131.3506 389.2729,-125.6889 397.7275,-132.6725 397.7275,-132.6725"/>
</g>
<!-- e&#45;&gt;xeg -->
<g id="edge24" class="edge">
<title>e-&gt;xeg</title>
<path fill="none" stroke="#000000" stroke-dasharray="5,2" d="M305.2993,-97.4322C324.6511,-95.5756 351.3685,-93.0123 374.601,-90.7834"/>
<polygon fill="#000000" stroke="#000000" points="384.6509,-89.8192 375.1264,-95.2537 379.6737,-90.2968 374.6966,-90.7743 374.6966,-90.7743 374.6966,-90.7743 379.6737,-90.2968 374.2668,-86.2949 384.6509,-89.8192 384.6509,-89.8192"/>
</g>
<!-- g -->
<g id="node10" class="node">
<title>g</title>
<ellipse fill="none" stroke="#000000" cx="150.8212" cy="-18" rx="27" ry="18"/>
<text text-anchor="middle" x="150.8212" y="-13.8" font-family="times-roman-bold" font-size="14.00" fill="#000000">G</text>
</g>
<!-- g&#45;&gt;xeg -->
<g id="edge25" class="edge">
<title>g-&gt;xeg</title>
<path fill="none" stroke="#000000" stroke-dasharray="5,2" d="M176.5644,-24.3973C222.8769,-35.9061 320.8021,-60.2408 378.7514,-74.6415"/>
<polygon fill="#000000" stroke="#000000" points="388.7374,-77.123 377.9472,-79.0784 383.8849,-75.9171 379.0325,-74.7112 379.0325,-74.7112 379.0325,-74.7112 383.8849,-75.9171 380.1178,-70.3441 388.7374,-77.123 388.7374,-77.123"/>
</g>
<!-- g&#45;&gt;e -->
<g id="edge14" class="edge">
<title>g-&gt;e</title>
<path fill="none" stroke="#000000" d="M170.4965,-30.6328C191.9335,-44.3967 226.4002,-66.5265 250.627,-82.0817"/>
<polygon fill="#000000" stroke="#000000" points="259.0463,-87.4874 248.2002,-85.8712 254.8389,-84.786 250.6315,-82.0845 250.6315,-82.0845 250.6315,-82.0845 254.8389,-84.786 253.0628,-78.2978 259.0463,-87.4874 259.0463,-87.4874"/>
<text text-anchor="middle" x="214.6778" y="-73.2" font-family="times-roman-bold" font-size="14.00" fill="#000000">E → G</text>
</g>
<!-- g&#45;&gt;g -->
<g id="edge15" class="edge">
<title>g-&gt;g</title>
<path fill="none" stroke="#000000" d="M140.2743,-34.6641C137.9306,-44.625 141.4462,-54 150.8212,-54 156.8271,-54 160.4282,-50.1525 161.6247,-44.7682"/>
<polygon fill="#000000" stroke="#000000" points="161.3681,-34.6641 166.1206,-44.5465 161.4951,-39.6625 161.6221,-44.6608 161.6221,-44.6608 161.6221,-44.6608 161.4951,-39.6625 157.1235,-44.7751 161.3681,-34.6641 161.3681,-34.6641"/>
<text text-anchor="middle" x="150.8212" y="-58.2" font-family="times-roman-bold" font-size="14.00" fill="#000000">G → aG</text>
</g>
<!-- s&#45;&gt;d -->
<g id="edge7" class="edge">
<title>s-&gt;d</title>
<path fill="none" stroke="#000000" d="M603.0971,-196.371C611.3616,-204.5317 622.444,-214.072 634.0432,-220 651.5637,-228.9543 672.7933,-234.3268 690.6025,-237.5176"/>
<polygon fill="#000000" stroke="#000000" points="700.6391,-239.1548 690.045,-241.9861 695.7043,-238.3498 690.7695,-237.5448 690.7695,-237.5448 690.7695,-237.5448 695.7043,-238.3498 691.494,-233.1035 700.6391,-239.1548 700.6391,-239.1548"/>
<text text-anchor="middle" x="658.3451" y="-239.2" font-family="times-roman-bold" font-size="14.00" fill="#000000">D → aSb</text>
</g>
<!-- s&#45;&gt;d -->
<g id="edge8" class="edge">
<title>s-&gt;d</title>
<path fill="none" stroke="#000000" d="M616.1804,-182.2406C635.6127,-184.0654 661.9014,-188.4998 682.647,-199.2 691.7951,-203.9184 700.3784,-211.07 707.5458,-218.1836"/>
<polygon fill="#000000" stroke="#000000" points="714.7273,-225.7709 704.5849,-221.6017 711.2902,-222.1396 707.8531,-218.5083 707.8531,-218.5083 707.8531,-218.5083 711.2902,-222.1396 711.1213,-215.4149 714.7273,-225.7709 714.7273,-225.7709"/>
<text text-anchor="middle" x="658.3451" y="-203.2" font-family="times-roman-bold" font-size="14.00" fill="#000000">D → S</text>
</g>
<!-- c&#45;&gt;s -->
<g id="edge2" class="edge">
<title>c-&gt;s</title>
<path fill="none" stroke="#000000" d="M827.3213,-184.5892C779.5983,-183.8704 680.8693,-182.3832 626.6774,-181.5669"/>
<polygon fill="#000000" stroke="#000000" points="616.4612,-181.413 626.5279,-177.0642 621.4606,-181.4884 626.46,-181.5637 626.46,-181.5637 626.46,-181.5637 621.4606,-181.4884 626.3922,-186.0632 616.4612,-181.413 616.4612,-181.413"/>
<text text-anchor="middle" x="727.647" y="-188.2" font-family="times-roman-bold" font-size="14.00" fill="#000000">S → C</text>
</g>
</g>
</svg>