<svg width="602pt" height="499pt" viewBox="0.00 0.00 601.55 498.80" xmlns="http://www.w3.org/2000/svg" xmlns:xlink="http://www.w3.org/1999/xlink">
<g id="graph0" class="graph" transform="scale(1 1) rotate(0) translate(4 494.8)">
<polygon fill="#ffffff" stroke="transparent" points="-4,4 -4,-494.8 597.5468,-494.8 597.5468,4 -4,4"></polygon>
<!-- s0 -->
<g id="node1" class="node">
<title>s0</title>

<ellipse fill="none" stroke="#000000" cx="64.2206" cy="-312" rx="23.7418" ry="23.7418" class="currentState"></ellipse><ellipse fill="none" stroke="#000000" cx="64.2206" cy="-312" rx="19.7212" ry="19.7212" class="currentState"></ellipse>
<text text-anchor="middle" x="64.2206" y="-307.8" font-family="Times,serif" font-size="14.00" fill="#000000">s0</text>
</g>
<!-- s0&#45;&gt;s0 -->
<g id="edge2" class="edge">
<title>s0-&gt;s0</title>
<path fill="none" stroke="#000000" d="M56.9599,-344.759C58.0166,-350.0175 60.4369,-353.6206 64.2206,-353.6206 70.1268,-353.6206 72.7108,-344.8412 71.9725,-334.6901"></path>
<polygon fill="#000000" stroke="#000000" points="60.4519,-344.5076 56.4686,-334.6901 53.4602,-344.8488 60.4519,-344.5076"></polygon>
<text text-anchor="middle" x="64.2206" y="-357.8206" font-family="Times,serif" font-size="14.00" fill="#000000">0</text>
</g>
<!-- s1 -->
<g id="node3" class="node">
<title>s1</title>
<ellipse fill="none" stroke="#000000" cx="160.9617" cy="-234" rx="19.7419" ry="19.7419" class="inactiveStates"></ellipse>
<text text-anchor="middle" x="160.9617" y="-229.8" font-family="Times,serif" font-size="14.00" fill="#000000">s1</text>
</g>
<!-- s0&#45;&gt;s1 -->
<g id="edge3" class="edge">
<title>s0-&gt;s1</title>
<path fill="none" stroke="#000000" d="M82.8732,-296.9608C98.3962,-284.445 120.5859,-266.554 137.3467,-253.0402"></path>
<polygon fill="#000000" stroke="#000000" points="139.9646,-255.4254 145.5526,-246.424 135.5709,-249.976 139.9646,-255.4254"></polygon>
<text text-anchor="middle" x="114.5911" y="-282.2" font-family="Times,serif" font-size="14.00" fill="#000000">1,4</text>
</g>
<!-- s2 -->
<g id="node4" class="node">
<title>s2</title>
<ellipse fill="none" stroke="#000000" cx="264.2028" cy="-326" rx="19.7419" ry="19.7419" class="inactiveStates"></ellipse>
<text text-anchor="middle" x="264.2028" y="-321.8" font-family="Times,serif" font-size="14.00" fill="#000000">s2</text>
</g>
<!-- s0&#45;&gt;s2 -->
<g id="edge4" class="edge">
<title>s0-&gt;s2</title>
<path fill="none" stroke="#000000" d="M87.9465,-313.661C124.4345,-316.2153 194.2808,-321.105 234.2193,-323.901"></path>
<polygon fill="#000000" stroke="#000000" points="234.1815,-327.4068 244.4016,-324.6138 234.6704,-320.4239 234.1815,-327.4068"></polygon>
<text text-anchor="middle" x="160.9617" y="-324.2" font-family="Times,serif" font-size="14.00" fill="#000000">2,5,8</text>
</g>
<!-- s3 -->
<g id="node5" class="node">
<title>s3</title>
<ellipse fill="none" stroke="#000000" cx="470.6851" cy="-234" rx="19.7419" ry="19.7419" class="inactiveStates"></ellipse>
<text text-anchor="middle" x="470.6851" y="-229.8" font-family="Times,serif" font-size="14.00" fill="#000000">s3</text>
</g>
<!-- s0&#45;&gt;s3 -->
<g id="edge5" class="edge">
<title>s0-&gt;s3</title>
<path fill="none" stroke="#000000" d="M66.8512,-288.286C73.4425,-241.9767 95.1627,-144 160.9617,-144 160.9617,-144 160.9617,-144 367.444,-144 406.7523,-144 438.3449,-181.5296 455.7952,-208.1192"></path>
<polygon fill="#000000" stroke="#000000" points="452.8733,-210.0476 461.1617,-216.6471 458.7979,-206.3193 452.8733,-210.0476"></polygon>
<text text-anchor="middle" x="264.2028" y="-148.2" font-family="Times,serif" font-size="14.00" fill="#000000">3,6,9</text>
</g>
<!-- s4 -->
<g id="node6" class="node">
<title>s4</title>
<ellipse fill="none" stroke="#000000" cx="367.444" cy="-425" rx="19.7419" ry="19.7419" class="inactiveStates"></ellipse>
<text text-anchor="middle" x="367.444" y="-420.8" font-family="Times,serif" font-size="14.00" fill="#000000">s4</text>
</g>
<!-- s0&#45;&gt;s4 -->
<g id="edge6" class="edge">
<title>s0-&gt;s4</title>
<path fill="none" stroke="#000000" d="M80.4759,-329.9894C109.7451,-360.9519 174.7949,-423.4477 244.5823,-449 280.1796,-462.0338 293.7364,-463.6094 329.8234,-452 334.9533,-450.3497 339.9761,-447.7124 344.5961,-444.7183"></path>
<polygon fill="#000000" stroke="#000000" points="346.8696,-447.393 352.9064,-438.6863 342.7576,-441.728 346.8696,-447.393"></polygon>
<text text-anchor="middle" x="212.5823" y="-445.2" font-family="Times,serif" font-size="14.00" fill="#000000">7</text>
</g>
<!-- s0&#45;&gt;s4 -->
<g id="edge23" class="edge">
<title>s0-&gt;s4</title>
<path fill="none" stroke="#000000" d="M80.1975,-341.7908C101.6106,-378.1435 143.4032,-437.756 198.5823,-462 252.0835,-485.5069 276.8833,-494.7449 329.8234,-470 342.0004,-464.3083 351.6221,-452.5221 358.086,-442.4395"></path>
<polygon fill="#000000" stroke="#000000" points="83.2128,-340.0133 75.1968,-333.0854 77.143,-343.5 83.2128,-340.0133"></polygon>
<text text-anchor="middle" x="212.5823" y="-478.2" font-family="Times,serif" font-size="14.00" fill="#000000">5</text>
</g>
<!-- s5 -->
<g id="node7" class="node">
<title>s5</title>
<ellipse fill="none" stroke="#000000" cx="573.9262" cy="-194" rx="19.7419" ry="19.7419" class="inactiveStates"></ellipse>
<text text-anchor="middle" x="573.9262" y="-189.8" font-family="Times,serif" font-size="14.00" fill="#000000">s5</text>
</g>
<!-- s0&#45;&gt;s5 -->
<g id="edge24" class="edge">
<title>s0-&gt;s5</title>
<path fill="none" stroke="#000000" d="M67.4634,-278.1457C76.1347,-197.3631 103.2278,0 160.9617,0 160.9617,0 160.9617,0 470.6851,0 549.0893,0 568.1448,-125.0102 572.6118,-174.3306"></path>
<polygon fill="#000000" stroke="#000000" points="63.9613,-277.9842 66.4057,-288.2932 70.9236,-278.71 63.9613,-277.9842"></polygon>
<text text-anchor="middle" x="315.8234" y="-4.2" font-family="Times,serif" font-size="14.00" fill="#000000">0</text>
</g>
<!-- secret_node -->
<!-- secret_node&#45;&gt;s0 -->
<g id="edge1" class="edge">
<title>secret_node-&gt;s0</title>
<path fill="none" stroke="#000000" stroke-width="2" d="M3.6008,-312C7.8061,-312 18.7899,-312 30.2719,-312"></path>
<polygon fill="#000000" stroke="#000000" stroke-width="2" points="30.3326,-315.5001 40.3326,-312 30.3325,-308.5001 30.3326,-315.5001"></polygon>
</g>
<!-- s1&#45;&gt;s1 -->
<g id="edge7" class="edge">
<title>s1-&gt;s1</title>
<path fill="none" stroke="#000000" d="M152.7494,-252.1936C151.2165,-262.3073 153.9539,-271.6206 160.9617,-271.6206 165.4511,-271.6206 168.1879,-267.7984 169.1721,-262.3922"></path>
<polygon fill="#000000" stroke="#000000" points="172.6721,-262.1943 169.174,-252.1936 165.6721,-262.1929 172.6721,-262.1943"></polygon>
<text text-anchor="middle" x="160.9617" y="-275.8206" font-family="Times,serif" font-size="14.00" fill="#000000">0,3,6,9</text>
</g>
<!-- s1&#45;&gt;s2 -->
<g id="edge8" class="edge">
<title>s1-&gt;s2</title>
<path fill="none" stroke="#000000" d="M180.2735,-238.432C194.3907,-242.4604 213.3108,-249.5866 226.5823,-261.2 237.9718,-271.1666 246.7792,-285.4581 252.999,-298.0849"></path>
<polygon fill="#000000" stroke="#000000" points="249.8885,-299.6981 257.2509,-307.317 256.2467,-296.7698 249.8885,-299.6981"></polygon>
<text text-anchor="middle" x="212.5823" y="-266.2" font-family="Times,serif" font-size="14.00" fill="#000000">1,4,7</text>
</g>
<!-- s1&#45;&gt;s3 -->
<g id="edge9" class="edge">
<title>s1-&gt;s3</title>
<path fill="none" stroke="#000000" d="M180.8074,-234C233.6905,-234 378.234,-234 440.9713,-234"></path>
<polygon fill="#000000" stroke="#000000" points="441.0047,-237.5001 451.0046,-234 441.0046,-230.5001 441.0047,-237.5001"></polygon>
<text text-anchor="middle" x="315.8234" y="-238.2" font-family="Times,serif" font-size="14.00" fill="#000000">2,8</text>
</g>
<!-- s1&#45;&gt;s5 -->
<g id="edge10" class="edge">
<title>s1-&gt;s5</title>
<path fill="none" stroke="#000000" d="M168.6008,-215.8578C180.5727,-189.9694 206.4032,-143.2181 244.5823,-122 347.288,-64.921 491.4522,-141.6465 548.8861,-177.4163"></path>
<polygon fill="#000000" stroke="#000000" points="547.0204,-180.3776 557.3396,-182.7787 550.77,-174.4665 547.0204,-180.3776"></polygon>
<text text-anchor="middle" x="367.444" y="-112.2" font-family="Times,serif" font-size="14.00" fill="#000000">5</text>
</g>
<!-- s2&#45;&gt;s1 -->
<g id="edge14" class="edge">
<title>s2-&gt;s1</title>
<path fill="none" stroke="#000000" d="M247.4784,-315.3461C233.7059,-306.2117 214.0069,-292.2968 198.5823,-278 191.9068,-271.8126 185.2463,-264.4965 179.4256,-257.6246"></path>
<polygon fill="#000000" stroke="#000000" points="182.0866,-255.3502 173.0277,-249.8559 176.6831,-259.8002 182.0866,-255.3502"></polygon>
<text text-anchor="middle" x="212.5823" y="-305.2" font-family="Times,serif" font-size="14.00" fill="#000000">5,8</text>
</g>
<!-- s2&#45;&gt;s2 -->
<g id="edge11" class="edge">
<title>s2-&gt;s2</title>
<path fill="none" stroke="#000000" d="M255.3428,-343.8043C253.5346,-354.0669 256.488,-363.6206 264.2028,-363.6206 269.1452,-363.6206 272.1334,-359.6998 273.1674,-354.1835"></path>
<polygon fill="#000000" stroke="#000000" points="276.6635,-353.7684 273.0628,-343.8043 269.6639,-353.839 276.6635,-353.7684"></polygon>
<text text-anchor="middle" x="264.2028" y="-367.8206" font-family="Times,serif" font-size="14.00" fill="#000000">0,3,6,9</text>
</g>
<!-- s2&#45;&gt;s3 -->
<g id="edge12" class="edge">
<title>s2-&gt;s3</title>
<path fill="none" stroke="#000000" d="M283.5629,-321.9991C308.3164,-316.4768 352.1504,-305.3156 387.0645,-289 408.4493,-279.0068 430.6846,-264.1323 446.8463,-252.3709"></path>
<polygon fill="#000000" stroke="#000000" points="449.2091,-254.9761 455.1562,-246.2078 445.0391,-249.3536 449.2091,-254.9761"></polygon>
<text text-anchor="middle" x="367.444" y="-309.2" font-family="Times,serif" font-size="14.00" fill="#000000">1,4,7</text>
</g>
<!-- s2&#45;&gt;s4 -->
<g id="edge13" class="edge">
<title>s2-&gt;s4</title>
<path fill="none" stroke="#000000" d="M270.1718,-344.8396C276.0144,-360.6032 286.3168,-382.7434 301.8234,-397 312.1839,-406.5254 326.2748,-413.1111 338.7435,-417.4902"></path>
<polygon fill="#000000" stroke="#000000" points="337.7023,-420.8318 348.2932,-420.5431 339.8338,-414.1642 337.7023,-420.8318"></polygon>
<text text-anchor="middle" x="315.8234" y="-419.2" font-family="Times,serif" font-size="14.00" fill="#000000">2</text>
</g>
<!-- s3&#45;&gt;s1 -->
<g id="edge16" class="edge">
<title>s3-&gt;s1</title>
<path fill="none" stroke="#000000" d="M451.4994,-229.1642C420.2379,-221.8426 356.3216,-209.198 301.8234,-213.2 263.1292,-216.0414 218.9347,-223.2169 190.5283,-228.3442"></path>
<polygon fill="#000000" stroke="#000000" points="189.6608,-224.9449 180.4586,-230.1956 190.9267,-231.8295 189.6608,-224.9449"></polygon>
<text text-anchor="middle" x="315.8234" y="-218.2" font-family="Times,serif" font-size="14.00" fill="#000000">1,4</text>
</g>
<!-- s3&#45;&gt;s2 -->
<g id="edge17" class="edge">
<title>s3-&gt;s2</title>
<path fill="none" stroke="#000000" d="M451.2531,-237.3291C426.4235,-242.0437 382.5093,-251.949 347.8234,-268.2 325.9794,-278.4343 303.6228,-294.2178 287.5285,-306.7069"></path>
<polygon fill="#000000" stroke="#000000" points="284.9366,-304.2952 279.2745,-313.2502 289.2851,-309.7807 284.9366,-304.2952"></polygon>
<text text-anchor="middle" x="367.444" y="-273.2" font-family="Times,serif" font-size="14.00" fill="#000000">2,5,8</text>
</g>
<!-- s3&#45;&gt;s3 -->
<g id="edge18" class="edge">
<title>s3-&gt;s3</title>
<path fill="none" stroke="#000000" d="M461.8251,-251.8043C460.0169,-262.0669 462.9703,-271.6206 470.6851,-271.6206 475.6274,-271.6206 478.6156,-267.6998 479.6497,-262.1835"></path>
<polygon fill="#000000" stroke="#000000" points="483.1458,-261.7684 479.5451,-251.8043 476.1461,-261.839 483.1458,-261.7684"></polygon>
<text text-anchor="middle" x="470.6851" y="-275.8206" font-family="Times,serif" font-size="14.00" fill="#000000">3,6,9</text>
</g>
<!-- s3&#45;&gt;s4 -->
<g id="edge19" class="edge">
<title>s3-&gt;s4</title>
<path fill="none" stroke="#000000" d="M459.3462,-250.6291C452.2888,-260.4808 442.7386,-272.9597 433.0645,-283 421.8511,-294.6379 414.0932,-292.7961 405.0645,-306.2 395.1718,-320.8866 382.548,-365.3674 374.731,-395.5333"></path>
<polygon fill="#000000" stroke="#000000" points="371.2603,-394.9791 372.1788,-405.534 378.0429,-396.7101 371.2603,-394.9791"></polygon>
<text text-anchor="middle" x="419.0645" y="-311.2" font-family="Times,serif" font-size="14.00" fill="#000000">7</text>
</g>
<!-- s3&#45;&gt;s5 -->
<g id="edge15" class="edge">
<title>s3-&gt;s5</title>
<path fill="none" stroke="#000000" d="M481.8646,-217.3861C488.4734,-209.0809 497.6334,-199.8329 508.3057,-195.2 519.4289,-190.3713 532.6443,-189.35 544.2901,-189.8049"></path>
<polygon fill="#000000" stroke="#000000" points="544.2038,-193.3082 554.4389,-190.5708 544.7307,-186.3281 544.2038,-193.3082"></polygon>
<text text-anchor="middle" x="522.3057" y="-200.2" font-family="Times,serif" font-size="14.00" fill="#000000">0</text>
</g>
<!-- s4&#45;&gt;s1 -->
<g id="edge20" class="edge">
<title>s4-&gt;s1</title>
<path fill="none" stroke="#000000" d="M349.1826,-432.8899C335.7678,-437.5388 317.2669,-441.5279 301.8234,-436 270.8314,-424.9066 266.8387,-413.2532 244.5823,-389 220.1603,-362.3869 215.9888,-353.6497 198.5823,-322 188.0069,-302.771 178.3298,-279.9595 171.4391,-262.3805"></path>
<polygon fill="#000000" stroke="#000000" points="174.5735,-260.7797 167.7183,-252.7016 168.0397,-263.2916 174.5735,-260.7797"></polygon>
<text text-anchor="middle" x="264.2028" y="-432.2" font-family="Times,serif" font-size="14.00" fill="#000000">0,3,6,9</text>
</g>
<!-- s4&#45;&gt;s2 -->
<g id="edge21" class="edge">
<title>s4-&gt;s2</title>
<path fill="none" stroke="#000000" d="M356.4172,-408.1166C349.4704,-398.191 339.9269,-385.756 329.8234,-376.2 318.8609,-365.8315 313.8798,-366.0733 301.8234,-357 296.9716,-353.3487 291.8842,-349.3089 287.0745,-345.3853"></path>
<polygon fill="#000000" stroke="#000000" points="289.2689,-342.6583 279.3327,-338.9809 284.8069,-348.0519 289.2689,-342.6583"></polygon>
<text text-anchor="middle" x="315.8234" y="-381.2" font-family="Times,serif" font-size="14.00" fill="#000000">1,4,7</text>
</g>
<!-- s4&#45;&gt;s3 -->
<g id="edge22" class="edge">
<title>s4-&gt;s3</title>
<path fill="none" stroke="#000000" d="M373.7659,-406.2086C380.0127,-389.3883 390.7112,-364.6123 405.0645,-346.2 415.0006,-333.4541 423.4209,-335.9686 433.0645,-323 446.5779,-304.8273 456.3009,-281.071 462.4731,-262.6737"></path>
<polygon fill="#000000" stroke="#000000" points="465.8308,-263.6646 465.5384,-253.0738 459.1625,-261.5354 465.8308,-263.6646"></polygon>
<text text-anchor="middle" x="419.0645" y="-351.2" font-family="Times,serif" font-size="14.00" fill="#000000">2,8</text>
</g>
<!-- s5&#45;&gt;s1 -->
<g id="edge25" class="edge">
<title>s5-&gt;s1</title>
<path fill="none" stroke="#000000" d="M569.9814,-174.6516C560.5519,-134.5344 532.7153,-46 470.6851,-46 264.2028,-46 264.2028,-46 264.2028,-46 192.9621,-46 170.5415,-151.0015 163.7598,-204.0607"></path>
<polygon fill="#000000" stroke="#000000" points="160.2551,-203.8972 162.5699,-214.236 167.2077,-204.7102 160.2551,-203.8972"></polygon>
<text text-anchor="middle" x="367.444" y="-50.2" font-family="Times,serif" font-size="14.00" fill="#000000">1,4</text>
</g>
<!-- s5&#45;&gt;s2 -->
<g id="edge26" class="edge">
<title>s5-&gt;s2</title>
<path fill="none" stroke="#000000" d="M565.7006,-212.094C547.7959,-248.9431 501.3434,-331.8366 433.0645,-363 385.3983,-384.7555 324.2104,-359.6292 290.1129,-341.4473"></path>
<polygon fill="#000000" stroke="#000000" points="291.6931,-338.3217 281.2478,-336.5479 288.3071,-344.4483 291.6931,-338.3217"></polygon>
<text text-anchor="middle" x="419.0645" y="-375.2" font-family="Times,serif" font-size="14.00" fill="#000000">2,5,8</text>
</g>
<!-- s5&#45;&gt;s3 -->
<g id="edge27" class="edge">
<title>s5-&gt;s3</title>
<path fill="none" stroke="#000000" d="M556.1395,-203.0618C549.9367,-206.0738 542.8822,-209.336 536.3057,-212 524.3329,-216.8499 510.8433,-221.5063 499.2223,-225.2763"></path>
<polygon fill="#000000" stroke="#000000" points="498.0452,-221.9779 489.5761,-228.3438 500.1665,-228.6487 498.0452,-221.9779"></polygon>
<text text-anchor="middle" x="522.3057" y="-226.2" font-family="Times,serif" font-size="14.00" fill="#000000">3,6,9</text>
</g>
<!-- s5&#45;&gt;s4 -->
<g id="edge28" class="edge">
<title>s5-&gt;s4</title>
<path fill="none" stroke="#000000" d="M573.1265,-213.7724C570.8274,-260.059 562.5812,-373.4685 536.3057,-399 499.4214,-434.8397 435.0402,-434.0587 397.3278,-429.822"></path>
<polygon fill="#000000" stroke="#000000" points="397.3551,-426.297 386.9915,-428.4982 396.4659,-433.2403 397.3551,-426.297"></polygon>
<text text-anchor="middle" x="470.6851" y="-436.2" font-family="Times,serif" font-size="14.00" fill="#000000">7</text>
</g>
</g>
</svg>