<svg width="487pt" height="219pt" viewBox="0.00 0.00 487.47 219.02" xmlns="http://www.w3.org/2000/svg" xmlns:xlink="http://www.w3.org/1999/xlink">
<g id="graph0" class="graph" transform="scale(1 1) rotate(0) translate(4 215.0247)">
<polygon fill="#ffffff" stroke="transparent" points="-4,4 -4,-215.0247 483.4723,-215.0247 483.4723,4 -4,4"></polygon>
<!-- s0 -->
<g id="node1" class="node">
<title>s0</title>

<ellipse fill="none" stroke="#000000" cx="64.2206" cy="-43.2247" rx="23.7418" ry="23.7418" class="currentState"></ellipse><ellipse fill="none" stroke="#000000" cx="64.2206" cy="-43.2247" rx="19.7212" ry="19.7212" class="currentState"></ellipse>
<text text-anchor="middle" x="64.2206" y="-39.0247" font-family="Times,serif" font-size="14.00" fill="#000000">s0</text>
</g>
<!-- s0&#45;&gt;s0 -->
<g id="edge2" class="edge">
<title>s0-&gt;s0</title>
<path fill="none" stroke="#000000" d="M56.9599,-75.9836C58.0166,-81.2422 60.4369,-84.8452 64.2206,-84.8452 70.1268,-84.8452 72.7108,-76.0659 71.9725,-65.9148"></path>
<polygon fill="#000000" stroke="#000000" points="60.4519,-75.7323 56.4686,-65.9148 53.4602,-76.0735 60.4519,-75.7323"></polygon>
<text text-anchor="middle" x="64.2206" y="-89.0452" font-family="Times,serif" font-size="14.00" fill="#000000">0</text>
</g>
<!-- s1 -->
<g id="node3" class="node">
<title>s1</title>
<ellipse fill="none" stroke="#000000" cx="196.163" cy="-116.2247" rx="19.7419" ry="19.7419" class="inactiveStates"></ellipse>
<text text-anchor="middle" x="196.163" y="-112.0247" font-family="Times,serif" font-size="14.00" fill="#000000">s1</text>
</g>
<!-- s0&#45;&gt;s1 -->
<g id="edge3" class="edge">
<title>s0-&gt;s1</title>
<path fill="none" stroke="#000000" d="M76.2699,-63.635C83.5513,-74.2668 93.7576,-86.6047 105.8411,-94.2247 124.0708,-105.7204 147.8581,-111.2093 166.445,-113.83"></path>
<polygon fill="#000000" stroke="#000000" points="166.0886,-117.3123 176.4365,-115.0382 166.929,-110.3629 166.0886,-117.3123"></polygon>
<text text-anchor="middle" x="129.9484" y="-116.4247" font-family="Times,serif" font-size="14.00" fill="#000000">1,4,7,a,d</text>
</g>
<!-- s0&#45;&gt;s1 -->
<g id="edge9" class="edge">
<title>s0-&gt;s1</title>
<path fill="none" stroke="#000000" d="M96.8936,-52.4657C118.3939,-58.8755 144.301,-67.3235 154.0557,-73.4247 165.5444,-80.6104 176.2233,-91.5351 183.9521,-100.5484"></path>
<polygon fill="#000000" stroke="#000000" points="97.6726,-49.0468 87.0917,-49.5911 95.7026,-55.7639 97.6726,-49.0468"></polygon>
<text text-anchor="middle" x="129.9484" y="-78.4247" font-family="Times,serif" font-size="14.00" fill="#000000">8</text>
</g>
<!-- s2 -->
<g id="node4" class="node">
<title>s2</title>
<ellipse fill="none" stroke="#000000" cx="328.5922" cy="-58.2247" rx="19.7419" ry="19.7419" class="inactiveStates"></ellipse>
<text text-anchor="middle" x="328.5922" y="-54.0247" font-family="Times,serif" font-size="14.00" fill="#000000">s2</text>
</g>
<!-- s0&#45;&gt;s2 -->
<g id="edge4" class="edge">
<title>s0-&gt;s2</title>
<path fill="none" stroke="#000000" d="M88.1481,-44.5823C136.5453,-47.3282 245.9402,-53.5351 298.8394,-56.5365"></path>
<polygon fill="#000000" stroke="#000000" points="298.7476,-60.0369 308.9298,-57.109 299.1442,-53.0481 298.7476,-60.0369"></polygon>
<text text-anchor="middle" x="196.163" y="-56.4247" font-family="Times,serif" font-size="14.00" fill="#000000">2,5,8,b,e</text>
</g>
<!-- s3 -->
<g id="node5" class="node">
<title>s3</title>
<ellipse fill="none" stroke="#000000" cx="456.5347" cy="-64.2247" rx="19.7419" ry="19.7419" class="inactiveStates"></ellipse>
<text text-anchor="middle" x="456.5347" y="-60.0247" font-family="Times,serif" font-size="14.00" fill="#000000">s3</text>
</g>
<!-- s0&#45;&gt;s3 -->
<g id="edge5" class="edge">
<title>s0-&gt;s3</title>
<path fill="none" stroke="#000000" d="M87.7712,-40.7058C136.9664,-35.7476 254.2403,-25.5125 352.6995,-29.2247 382.1911,-30.3366 391.4447,-23.435 418.9141,-34.2247 424.5926,-36.4551 430.0929,-39.8545 435.0546,-43.5743"></path>
<polygon fill="#000000" stroke="#000000" points="432.8903,-46.3261 442.8325,-49.9872 437.3434,-40.9251 432.8903,-46.3261"></polygon>
<text text-anchor="middle" x="262.3776" y="-34.4247" font-family="Times,serif" font-size="14.00" fill="#000000">3,6,9,c,f</text>
</g>
<!-- s0&#45;&gt;s3 -->
<g id="edge13" class="edge">
<title>s0-&gt;s3</title>
<path fill="none" stroke="#000000" d="M96.6925,-33.4902C99.7733,-32.6791 102.8589,-31.9091 105.8411,-31.2247 164.0511,-17.865 178.7638,-13.5098 238.2703,-8.4247 318.5703,-1.5626 346.9655,12.0874 418.9141,-24.2247 429.6377,-29.6368 438.9188,-39.4113 445.5796,-47.9429"></path>
<polygon fill="#000000" stroke="#000000" points="95.7083,-30.1309 87.0006,-36.1664 97.5715,-36.8784 95.7083,-30.1309"></polygon>
<text text-anchor="middle" x="262.3776" y="-13.4247" font-family="Times,serif" font-size="14.00" fill="#000000">0</text>
</g>
<!-- secret_node -->
<!-- secret_node&#45;&gt;s0 -->
<g id="edge1" class="edge">
<title>secret_node-&gt;s0</title>
<path fill="none" stroke="#000000" stroke-width="2" d="M3.6008,-43.2247C7.8061,-43.2247 18.7899,-43.2247 30.2719,-43.2247"></path>
<polygon fill="#000000" stroke="#000000" stroke-width="2" points="30.3326,-46.7248 40.3326,-43.2247 30.3325,-39.7248 30.3326,-46.7248"></polygon>
</g>
<!-- s1&#45;&gt;s1 -->
<g id="edge6" class="edge">
<title>s1-&gt;s1</title>
<path fill="none" stroke="#000000" d="M184.8787,-132.4657C181.7024,-143.2996 185.4638,-153.8452 196.163,-153.8452 203.3516,-153.8452 207.4083,-149.0848 208.3332,-142.6749"></path>
<polygon fill="#000000" stroke="#000000" points="211.7988,-142.1257 207.4474,-132.4657 204.825,-142.7309 211.7988,-142.1257"></polygon>
<text text-anchor="middle" x="196.163" y="-158.0452" font-family="Times,serif" font-size="14.00" fill="#000000">0,3,6,9,c,f</text>
</g>
<!-- s1&#45;&gt;s2 -->
<g id="edge7" class="edge">
<title>s1-&gt;s2</title>
<path fill="none" stroke="#000000" d="M209.102,-100.8187C216.769,-92.6642 227.1433,-83.1752 238.2703,-77.4247 257.0806,-67.7034 280.5236,-62.9024 298.8119,-60.5323"></path>
<polygon fill="#000000" stroke="#000000" points="299.363,-63.9925 308.9102,-59.3989 298.5822,-57.0362 299.363,-63.9925"></polygon>
<text text-anchor="middle" x="262.3776" y="-82.4247" font-family="Times,serif" font-size="14.00" fill="#000000">1,4,7,a,d</text>
</g>
<!-- s1&#45;&gt;s3 -->
<g id="edge8" class="edge">
<title>s1-&gt;s3</title>
<path fill="none" stroke="#000000" d="M206.9131,-133.1546C214.3891,-143.3905 225.3188,-155.6874 238.2703,-162.2247 309.9438,-198.4017 355.2333,-211.1185 418.9141,-162.2247 440.0034,-146.0324 449.2738,-116.467 453.3469,-94.0302"></path>
<polygon fill="#000000" stroke="#000000" points="456.8302,-94.4088 454.9174,-83.988 449.9142,-93.3271 456.8302,-94.4088"></polygon>
<text text-anchor="middle" x="328.5922" y="-198.4247" font-family="Times,serif" font-size="14.00" fill="#000000">2,5,b,e</text>
</g>
<!-- s2&#45;&gt;s1 -->
<g id="edge12" class="edge">
<title>s2-&gt;s1</title>
<path fill="none" stroke="#000000" d="M315.0194,-72.7335C307.3118,-80.174 297.1009,-88.7901 286.4849,-94.2247 267.5102,-103.9383 244.0725,-109.4849 225.8278,-112.5786"></path>
<polygon fill="#000000" stroke="#000000" points="225.1092,-109.1479 215.7586,-114.1296 226.1749,-116.0663 225.1092,-109.1479"></polygon>
<text text-anchor="middle" x="262.3776" y="-114.4247" font-family="Times,serif" font-size="14.00" fill="#000000">2,5,8,b,e</text>
</g>
<!-- s2&#45;&gt;s2 -->
<g id="edge10" class="edge">
<title>s2-&gt;s2</title>
<path fill="none" stroke="#000000" d="M317.3079,-74.4657C314.1316,-85.2996 317.893,-95.8452 328.5922,-95.8452 335.7808,-95.8452 339.8375,-91.0848 340.7624,-84.6749"></path>
<polygon fill="#000000" stroke="#000000" points="344.228,-84.1257 339.8766,-74.4657 337.2542,-84.7309 344.228,-84.1257"></polygon>
<text text-anchor="middle" x="328.5922" y="-100.0452" font-family="Times,serif" font-size="14.00" fill="#000000">0,3,6,9,c,f</text>
</g>
<!-- s2&#45;&gt;s3 -->
<g id="edge11" class="edge">
<title>s2-&gt;s3</title>
<path fill="none" stroke="#000000" d="M348.2777,-60.388C355.3405,-61.0866 363.3691,-61.7916 370.6995,-62.2247 389.2531,-63.3207 410.0957,-63.8235 426.5962,-64.0509"></path>
<polygon fill="#000000" stroke="#000000" points="426.7062,-67.5523 436.7446,-64.1641 426.7843,-60.5527 426.7062,-67.5523"></polygon>
<text text-anchor="middle" x="394.8068" y="-68.4247" font-family="Times,serif" font-size="14.00" fill="#000000">1,4,7,a,d</text>
</g>
<!-- s3&#45;&gt;s1 -->
<g id="edge14" class="edge">
<title>s3-&gt;s1</title>
<path fill="none" stroke="#000000" d="M440.1241,-75.6667C420.3448,-88.8648 385.6459,-110.1624 352.6995,-121.2247 304.3035,-137.4743 288.5761,-139.9174 238.2703,-131.2247 233.4575,-130.393 228.4661,-129.0637 223.6748,-127.5316"></path>
<polygon fill="#000000" stroke="#000000" points="224.8372,-124.2303 214.2424,-124.1966 222.5037,-130.8299 224.8372,-124.2303"></polygon>
<text text-anchor="middle" x="328.5922" y="-138.4247" font-family="Times,serif" font-size="14.00" fill="#000000">1,4,7,a,d</text>
</g>
<!-- s3&#45;&gt;s2 -->
<g id="edge15" class="edge">
<title>s3-&gt;s2</title>
<path fill="none" stroke="#000000" d="M440.9532,-52.1581C434.5011,-47.8863 426.711,-43.6029 418.9141,-41.4247 398.2757,-35.6588 391.7434,-37.3816 370.6995,-41.4247 365.7431,-42.3769 360.6278,-43.9062 355.7441,-45.6637"></path>
<polygon fill="#000000" stroke="#000000" points="354.1633,-42.526 346.1701,-49.48 356.7553,-49.0284 354.1633,-42.526"></polygon>
<text text-anchor="middle" x="394.8068" y="-46.4247" font-family="Times,serif" font-size="14.00" fill="#000000">2,5,8,b,e</text>
</g>
<!-- s3&#45;&gt;s3 -->
<g id="edge16" class="edge">
<title>s3-&gt;s3</title>
<path fill="none" stroke="#000000" d="M446.0785,-81.2482C443.5571,-91.8017 447.0425,-101.8452 456.5347,-101.8452 462.7639,-101.8452 466.4063,-97.5199 467.4617,-91.5635"></path>
<polygon fill="#000000" stroke="#000000" points="470.9433,-91.0782 466.9909,-81.2482 463.9506,-91.3975 470.9433,-91.0782"></polygon>
<text text-anchor="middle" x="456.5347" y="-106.0452" font-family="Times,serif" font-size="14.00" fill="#000000">3,6,9,c,f</text>
</g>
</g>
</svg>