<?xml version="1.0" encoding="UTF-8" standalone="no"?>
<!DOCTYPE svg PUBLIC "-//W3C//DTD SVG 1.1//EN"
 "http://www.w3.org/Graphics/SVG/1.1/DTD/svg11.dtd">
<svg width="274pt" height="255pt"
 viewBox="0.00 0.00 274.06 255.10" xmlns="http://www.w3.org/2000/svg" xmlns:xlink="http://www.w3.org/1999/xlink">
<g id="graph0" class="graph" transform="scale(1 1) rotate(0) translate(4 251.1038)">
<title>G</title>
<polygon fill="#ffffff" stroke="transparent" points="-4,4 -4,-251.1038 270.0564,-251.1038 270.0564,4 -4,4"/>
<!-- 7 -->
<g id="node1" class="node">
<title>7</title>
<ellipse fill="none" stroke="#000000" cx="27" cy="-126.6055" rx="27" ry="18"/>
<text text-anchor="middle" x="27" y="-122.4055" font-family="Times,serif" font-size="14.00" fill="#000000">7</text>
</g>
<!-- 6 -->
<g id="node2" class="node">
<title>6</title>
<ellipse fill="none" stroke="#000000" cx="60.1289" cy="-200.6125" rx="27" ry="18"/>
<text text-anchor="middle" x="60.1289" y="-196.4125" font-family="Times,serif" font-size="14.00" fill="#000000">6</text>
</g>
<!-- 7&#45;&gt;6 -->
<g id="edge1" class="edge">
<title>7&#45;&gt;6</title>
<path fill="none" stroke="#000000" d="M34.8511,-144.1442C38.8118,-152.9921 43.7018,-163.9158 48.1221,-173.7905"/>
<polygon fill="#000000" stroke="#000000" points="45.0538,-175.5026 52.3341,-183.1998 51.4429,-172.6425 45.0538,-175.5026"/>
</g>
<!-- 5 -->
<g id="node3" class="node">
<title>5</title>
<ellipse fill="none" stroke="#000000" cx="135.9648" cy="-229.1038" rx="27" ry="18"/>
<text text-anchor="middle" x="135.9648" y="-224.9038" font-family="Times,serif" font-size="14.00" fill="#000000">5</text>
</g>
<!-- 6&#45;&gt;5 -->
<g id="edge2" class="edge">
<title>6&#45;&gt;5</title>
<path fill="none" stroke="#000000" d="M83.7081,-209.4711C89.7002,-211.7224 96.2526,-214.184 102.6295,-216.5798"/>
<polygon fill="#000000" stroke="#000000" points="101.808,-220.01 112.4001,-220.2506 104.2699,-213.4572 101.808,-220.01"/>
</g>
<!-- 4 -->
<g id="node4" class="node">
<title>4</title>
<ellipse fill="none" stroke="#000000" cx="210.11" cy="-196.4766" rx="27" ry="18"/>
<text text-anchor="middle" x="210.11" y="-192.2766" font-family="Times,serif" font-size="14.00" fill="#000000">4</text>
</g>
<!-- 5&#45;&gt;4 -->
<g id="edge3" class="edge">
<title>5&#45;&gt;4</title>
<path fill="none" stroke="#000000" d="M158.6137,-219.1373C164.737,-216.4428 171.4822,-213.4746 178.0172,-210.5989"/>
<polygon fill="#000000" stroke="#000000" points="179.6011,-213.7259 187.3443,-206.4945 176.7816,-207.3187 179.6011,-213.7259"/>
</g>
<!-- 3 -->
<g id="node5" class="node">
<title>3</title>
<ellipse fill="none" stroke="#000000" cx="239.0564" cy="-120.7339" rx="27" ry="18"/>
<text text-anchor="middle" x="239.0564" y="-116.5339" font-family="Times,serif" font-size="14.00" fill="#000000">3</text>
</g>
<!-- 4&#45;&gt;3 -->
<g id="edge4" class="edge">
<title>4&#45;&gt;3</title>
<path fill="none" stroke="#000000" d="M216.8237,-178.9094C220.3675,-169.6364 224.7925,-158.0578 228.7596,-147.6771"/>
<polygon fill="#000000" stroke="#000000" points="232.0787,-148.7965 232.3792,-138.2059 225.5399,-146.2976 232.0787,-148.7965"/>
</g>
<!-- 2 -->
<g id="node8" class="node">
<title>2</title>
<ellipse fill="none" stroke="#000000" cx="205.8633" cy="-46.8026" rx="27" ry="18"/>
<text text-anchor="middle" x="205.8633" y="-42.6026" font-family="Times,serif" font-size="14.00" fill="#000000">2</text>
</g>
<!-- 3&#45;&gt;2 -->
<g id="edge7" class="edge">
<title>3&#45;&gt;2</title>
<path fill="none" stroke="#000000" d="M231.1901,-103.2132C227.2217,-94.3743 222.3223,-83.4618 217.8933,-73.5972"/>
<polygon fill="#000000" stroke="#000000" points="220.962,-71.8867 213.6731,-64.1975 214.5761,-74.7538 220.962,-71.8867"/>
</g>
<!-- 0 -->
<g id="node6" class="node">
<title>0</title>
<ellipse fill="none" stroke="#000000" cx="56.0992" cy="-50.9705" rx="27" ry="18"/>
<text text-anchor="middle" x="56.0992" y="-46.7705" font-family="Times,serif" font-size="14.00" fill="#000000">0</text>
</g>
<!-- 0&#45;&gt;7 -->
<g id="edge6" class="edge">
<title>0&#45;&gt;7</title>
<path fill="none" stroke="#000000" d="M49.3501,-68.5128C45.7876,-77.7726 41.3392,-89.3348 37.3511,-99.7007"/>
<polygon fill="#000000" stroke="#000000" points="34.0367,-98.5685 33.7125,-109.1584 40.5699,-101.0821 34.0367,-98.5685"/>
</g>
<!-- 1 -->
<g id="node7" class="node">
<title>1</title>
<ellipse fill="none" stroke="#000000" cx="130.1223" cy="-18" rx="27" ry="18"/>
<text text-anchor="middle" x="130.1223" y="-13.8" font-family="Times,serif" font-size="14.00" fill="#000000">1</text>
</g>
<!-- 0&#45;&gt;1 -->
<g id="edge5" class="edge">
<title>0&#45;&gt;1</title>
<path fill="none" stroke="#000000" d="M78.7108,-40.8991C84.8811,-38.1508 91.684,-35.1207 98.2652,-32.1894"/>
<polygon fill="#000000" stroke="#000000" points="99.9384,-35.2757 107.6492,-28.0097 97.0902,-28.8813 99.9384,-35.2757"/>
</g>
<!-- 2&#45;&gt;1 -->
<g id="edge8" class="edge">
<title>2&#45;&gt;1</title>
<path fill="none" stroke="#000000" d="M182.3135,-37.8472C176.3289,-35.5714 169.7848,-33.0828 163.4159,-30.6608"/>
<polygon fill="#000000" stroke="#000000" points="164.2485,-27.233 153.6575,-26.9499 161.7604,-33.7759 164.2485,-27.233"/>
</g>
</g>
</svg>