<?xml version="1.0" encoding="UTF-8" standalone="no"?><!DOCTYPE svg PUBLIC "-//W3C//DTD SVG 1.1//EN" "http://www.w3.org/Graphics/SVG/1.1/DTD/svg11.dtd"><!-- Generated by graphviz version 2.40.1 (20161225.0304)
 --><!-- Title: G Pages: 1 --><svg xmlns="http://www.w3.org/2000/svg" xmlns:xlink="http://www.w3.org/1999/xlink" width="294pt" height="488pt" viewBox="0.00 0.00 294.09 488.00">
<g id="graph0" class="graph" transform="scale(1 1) rotate(0) translate(4 484)">
<title>G</title>
<polygon fill="#ffffff" stroke="transparent" points="-4,4 -4,-484 290.0878,-484 290.0878,4 -4,4"/>
<!-- a1 -->
<g id="node1" class="node">
<title>a1</title>
<ellipse fill="none" stroke="#000000" cx="28.1824" cy="-373.2" rx="28.366" ry="18"/>
<text text-anchor="middle" x="28.1824" y="-369" font-family="Times,serif" font-size="14.00" fill="#000000">¬¬a</text>
</g>
<!-- n3 -->
<g id="node4" class="node">
<title>n3</title>
<ellipse fill="none" stroke="#000000" cx="126.1824" cy="-284.4" rx="70.0182" ry="18"/>
<text text-anchor="middle" x="126.1824" y="-280.2" font-family="Times,serif" font-size="14.00" fill="#000000">¬¬¬¬a → ¬¬a</text>
</g>
<!-- a1&#45;&gt;n3 -->
<g id="edge2" class="edge">
<title>a1-&gt;n3</title>
<path fill="none" stroke="#000000" d="M44.8068,-358.1363C59.6767,-344.6624 81.7466,-324.6643 99.1523,-308.8926"/>
<polygon fill="#000000" stroke="#000000" points="101.7185,-311.2905 106.7787,-301.9822 97.0182,-306.1032 101.7185,-311.2905"/>
</g>
<!-- n6 -->
<g id="node7" class="node">
<title>n6</title>
<ellipse fill="none" stroke="#000000" cx="44.1824" cy="-18" rx="27" ry="18"/>
<text text-anchor="middle" x="44.1824" y="-13.8" font-family="Times,serif" font-size="14.00" fill="#000000">a</text>
</g>
<!-- a1&#45;&gt;n6 -->
<g id="edge6" class="edge">
<title>a1-&gt;n6</title>
<path fill="none" stroke="#000000" d="M28.1824,-355.1721C28.1824,-337.2311 28.1824,-308.9125 28.1824,-284.4 28.1824,-284.4 28.1824,-284.4 28.1824,-106.8 28.1824,-86.1737 32.4152,-63.2735 36.5266,-45.8951"/>
<polygon fill="#000000" stroke="#000000" points="40.0059,-46.4079 39.0318,-35.8579 33.2142,-44.7126 40.0059,-46.4079"/>
</g>
<!-- n1 -->
<g id="node2" class="node">
<title>n1</title>
<ellipse fill="none" stroke="#000000" cx="180.1824" cy="-462" rx="45.2069" ry="18"/>
<text text-anchor="middle" x="180.1824" y="-457.8" font-family="Times,serif" font-size="14.00" fill="#000000">Axiom 1</text>
</g>
<!-- n2 -->
<g id="node3" class="node">
<title>n2</title>
<ellipse fill="none" stroke="#000000" cx="180.1824" cy="-373.2" rx="105.8108" ry="18"/>
<text text-anchor="middle" x="180.1824" y="-369" font-family="Times,serif" font-size="14.00" fill="#000000">¬¬a → (¬¬¬¬a → ¬¬a)</text>
</g>
<!-- n1&#45;&gt;n2 -->
<g id="edge1" class="edge">
<title>n1-&gt;n2</title>
<path fill="none" stroke="#000000" d="M180.1824,-443.6006C180.1824,-431.4949 180.1824,-415.4076 180.1824,-401.6674"/>
<polygon fill="#000000" stroke="#000000" points="183.6825,-401.272 180.1824,-391.272 176.6825,-401.2721 183.6825,-401.272"/>
<text text-anchor="middle" x="215.1761" y="-413.4" font-family="Times,serif" font-size="14.00" fill="#000000">Instantiation</text>
</g>
<!-- n2&#45;&gt;n3 -->
<g id="edge3" class="edge">
<title>n2-&gt;n3</title>
<path fill="none" stroke="#000000" d="M169.2547,-355.23C161.5694,-342.5919 151.1526,-325.462 142.4882,-311.214"/>
<polygon fill="#000000" stroke="#000000" points="145.2802,-309.069 137.0939,-302.3433 139.2992,-312.7061 145.2802,-309.069"/>
<text text-anchor="middle" x="167.296" y="-324.6" font-family="Times,serif" font-size="14.00" fill="#000000">MP</text>
</g>
<!-- n4 -->
<g id="node5" class="node">
<title>n4</title>
<ellipse fill="none" stroke="#000000" cx="119.1824" cy="-195.6" rx="57.2992" ry="18"/>
<text text-anchor="middle" x="119.1824" y="-191.4" font-family="Times,serif" font-size="14.00" fill="#000000">¬a → ¬¬¬a</text>
</g>
<!-- n3&#45;&gt;n4 -->
<g id="edge4" class="edge">
<title>n3-&gt;n4</title>
<path fill="none" stroke="#000000" d="M124.732,-266.0006C123.7683,-253.775 122.4844,-237.4887 121.3943,-223.6599"/>
<polygon fill="#000000" stroke="#000000" points="124.8821,-223.366 120.607,-213.672 117.9038,-223.9162 124.8821,-223.366"/>
<text text-anchor="middle" x="147.8763" y="-235.8" font-family="Times,serif" font-size="14.00" fill="#000000">Axiom 3</text>
</g>
<!-- n5 -->
<g id="node6" class="node">
<title>n5</title>
<ellipse fill="none" stroke="#000000" cx="107.1824" cy="-106.8" rx="44.5807" ry="18"/>
<text text-anchor="middle" x="107.1824" y="-102.6" font-family="Times,serif" font-size="14.00" fill="#000000">¬¬a → a</text>
</g>
<!-- n4&#45;&gt;n5 -->
<g id="edge5" class="edge">
<title>n4-&gt;n5</title>
<path fill="none" stroke="#000000" d="M116.696,-177.2006C115.0439,-164.975 112.843,-148.6887 110.9743,-134.8599"/>
<polygon fill="#000000" stroke="#000000" points="114.4323,-134.3132 109.6246,-124.872 107.4954,-135.2507 114.4323,-134.3132"/>
<text text-anchor="middle" x="138.8763" y="-147" font-family="Times,serif" font-size="14.00" fill="#000000">Axiom 3</text>
</g>
<!-- n5&#45;&gt;n6 -->
<g id="edge7" class="edge">
<title>n5-&gt;n6</title>
<path fill="none" stroke="#000000" d="M94.7356,-89.256C85.2631,-75.9042 72.1084,-57.3624 61.5925,-42.54"/>
<polygon fill="#000000" stroke="#000000" points="64.3945,-40.4406 55.7536,-34.3099 58.6854,-44.4911 64.3945,-40.4406"/>
<text text-anchor="middle" x="92.296" y="-58.2" font-family="Times,serif" font-size="14.00" fill="#000000">MP</text>
</g>
</g>
</svg>