<?xml version="1.0" encoding="UTF-8" standalone="no"?><!DOCTYPE svg PUBLIC "-//W3C//DTD SVG 1.1//EN" "http://www.w3.org/Graphics/SVG/1.1/DTD/svg11.dtd"><!-- Generated by graphviz version 2.40.1 (20161225.0304)
 --><!-- Title: G Pages: 1 --><svg xmlns="http://www.w3.org/2000/svg" xmlns:xlink="http://www.w3.org/1999/xlink" width="374pt" height="310pt" viewBox="0.00 0.00 374.21 310.40">
<g id="graph0" class="graph" transform="scale(1 1) rotate(0) translate(4 306.4)">
<title>G</title>
<polygon fill="#ffffff" stroke="transparent" points="-4,4 -4,-306.4 370.2103,-306.4 370.2103,4 -4,4"/>
<!-- a1 -->
<g id="node1" class="node">
<title>a1</title>
<ellipse fill="none" stroke="#000000" cx="109.2229" cy="-284.4" rx="27" ry="18"/>
<text text-anchor="middle" x="109.2229" y="-280.2" font-family="Times,serif" font-size="14.00" fill="#000000">a</text>
</g>
<!-- n2 -->
<g id="node5" class="node">
<title>n2</title>
<ellipse fill="none" stroke="#000000" cx="109.2229" cy="-195.6" rx="27" ry="18"/>
<text text-anchor="middle" x="109.2229" y="-191.4" font-family="Times,serif" font-size="14.00" fill="#000000">b</text>
</g>
<!-- a1&#45;&gt;n2 -->
<g id="edge1" class="edge">
<title>a1-&gt;n2</title>
<path fill="none" stroke="#000000" d="M109.2229,-266.0006C109.2229,-253.8949 109.2229,-237.8076 109.2229,-224.0674"/>
<polygon fill="#000000" stroke="#000000" points="112.723,-223.672 109.2229,-213.672 105.723,-223.6721 112.723,-223.672"/>
</g>
<!-- n3 -->
<g id="node6" class="node">
<title>n3</title>
<ellipse fill="none" stroke="#000000" cx="184.2229" cy="-195.6" rx="27" ry="18"/>
<text text-anchor="middle" x="184.2229" y="-191.4" font-family="Times,serif" font-size="14.00" fill="#000000">¬b</text>
</g>
<!-- a1&#45;&gt;n3 -->
<g id="edge3" class="edge">
<title>a1-&gt;n3</title>
<path fill="none" stroke="#000000" d="M122.6314,-268.5243C134.2564,-254.7603 151.2381,-234.654 164.4274,-219.0378"/>
<polygon fill="#000000" stroke="#000000" points="167.1519,-221.2364 170.9305,-211.3382 161.804,-216.7196 167.1519,-221.2364"/>
</g>
<!-- a2 -->
<g id="node2" class="node">
<title>a2</title>
<ellipse fill="none" stroke="#000000" cx="32.2229" cy="-284.4" rx="32.4473" ry="18"/>
<text text-anchor="middle" x="32.2229" y="-280.2" font-family="Times,serif" font-size="14.00" fill="#000000">a → b</text>
</g>
<!-- a2&#45;&gt;n2 -->
<g id="edge2" class="edge">
<title>a2-&gt;n2</title>
<path fill="none" stroke="#000000" d="M46.3459,-268.1127C58.3247,-254.2981 75.6522,-234.3153 89.0852,-218.8237"/>
<polygon fill="#000000" stroke="#000000" points="91.7989,-221.0367 95.7058,-211.1885 86.5102,-216.4508 91.7989,-221.0367"/>
<text text-anchor="middle" x="88.3365" y="-235.8" font-family="Times,serif" font-size="14.00" fill="#000000">MP</text>
</g>
<!-- a3 -->
<g id="node3" class="node">
<title>a3</title>
<ellipse fill="none" stroke="#000000" cx="193.2229" cy="-284.4" rx="38.8055" ry="18"/>
<text text-anchor="middle" x="193.2229" y="-280.2" font-family="Times,serif" font-size="14.00" fill="#000000">a → ¬b</text>
</g>
<!-- a3&#45;&gt;n3 -->
<g id="edge4" class="edge">
<title>a3-&gt;n3</title>
<path fill="none" stroke="#000000" d="M191.3581,-266.0006C190.119,-253.775 188.4684,-237.4887 187.0668,-223.6599"/>
<polygon fill="#000000" stroke="#000000" points="190.5451,-223.2681 186.0545,-213.672 183.5808,-223.974 190.5451,-223.2681"/>
<text text-anchor="middle" x="199.3365" y="-235.8" font-family="Times,serif" font-size="14.00" fill="#000000">MP</text>
</g>
<!-- n1 -->
<g id="node4" class="node">
<title>n1</title>
<ellipse fill="none" stroke="#000000" cx="297.2229" cy="-284.4" rx="47.5537" ry="18"/>
<text text-anchor="middle" x="297.2229" y="-280.2" font-family="Times,serif" font-size="14.00" fill="#000000">Lemma 8</text>
</g>
<!-- n4 -->
<g id="node7" class="node">
<title>n4</title>
<ellipse fill="none" stroke="#000000" cx="295.2229" cy="-195.6" rx="61.9634" ry="18"/>
<text text-anchor="middle" x="295.2229" y="-191.4" font-family="Times,serif" font-size="14.00" fill="#000000">¬b → (b → a)</text>
</g>
<!-- n1&#45;&gt;n4 -->
<g id="edge5" class="edge">
<title>n1-&gt;n4</title>
<path fill="none" stroke="#000000" d="M296.8085,-266.0006C296.5358,-253.8949 296.1735,-237.8076 295.864,-224.0674"/>
<polygon fill="#000000" stroke="#000000" points="299.3543,-223.5906 295.6299,-213.672 292.3561,-223.7483 299.3543,-223.5906"/>
<text text-anchor="middle" x="331.2166" y="-235.8" font-family="Times,serif" font-size="14.00" fill="#000000">Instantiation</text>
</g>
<!-- n6 -->
<g id="node9" class="node">
<title>n6</title>
<ellipse fill="none" stroke="#000000" cx="130.2229" cy="-18" rx="27" ry="18"/>
<text text-anchor="middle" x="130.2229" y="-13.8" font-family="Times,serif" font-size="14.00" fill="#000000">a</text>
</g>
<!-- n2&#45;&gt;n6 -->
<g id="edge9" class="edge">
<title>n2-&gt;n6</title>
<path fill="none" stroke="#000000" d="M111.352,-177.5934C115.0154,-146.612 122.5364,-83.006 126.8961,-46.1346"/>
<polygon fill="#000000" stroke="#000000" points="130.3895,-46.3961 128.0881,-36.0543 123.438,-45.5741 130.3895,-46.3961"/>
</g>
<!-- n5 -->
<g id="node8" class="node">
<title>n5</title>
<ellipse fill="none" stroke="#000000" cx="184.2229" cy="-106.8" rx="32.4473" ry="18"/>
<text text-anchor="middle" x="184.2229" y="-102.6" font-family="Times,serif" font-size="14.00" fill="#000000">b → a</text>
</g>
<!-- n3&#45;&gt;n5 -->
<g id="edge7" class="edge">
<title>n3-&gt;n5</title>
<path fill="none" stroke="#000000" d="M184.2229,-177.2006C184.2229,-165.0949 184.2229,-149.0076 184.2229,-135.2674"/>
<polygon fill="#000000" stroke="#000000" points="187.723,-134.872 184.2229,-124.872 180.723,-134.8721 187.723,-134.872"/>
</g>
<!-- n4&#45;&gt;n5 -->
<g id="edge6" class="edge">
<title>n4-&gt;n5</title>
<path fill="none" stroke="#000000" d="M273.821,-178.4785C255.8506,-164.1022 230.0933,-143.4963 210.8035,-128.0645"/>
<polygon fill="#000000" stroke="#000000" points="212.9692,-125.3149 202.974,-121.8009 208.5963,-130.781 212.9692,-125.3149"/>
<text text-anchor="middle" x="259.3365" y="-147" font-family="Times,serif" font-size="14.00" fill="#000000">MP</text>
</g>
<!-- n5&#45;&gt;n6 -->
<g id="edge8" class="edge">
<title>n5-&gt;n6</title>
<path fill="none" stroke="#000000" d="M173.8111,-89.6785C165.8417,-76.5732 154.7242,-58.2911 145.7119,-43.4709"/>
<polygon fill="#000000" stroke="#000000" points="148.6059,-41.4935 140.4195,-34.7678 142.6249,-45.1306 148.6059,-41.4935"/>
<text text-anchor="middle" x="172.3365" y="-58.2" font-family="Times,serif" font-size="14.00" fill="#000000">MP</text>
</g>
</g>
</svg>