<?xml version="1.0" encoding="UTF-8" standalone="no"?><!DOCTYPE svg PUBLIC "-//W3C//DTD SVG 1.1//EN" "http://www.w3.org/Graphics/SVG/1.1/DTD/svg11.dtd"><!-- Generated by graphviz version 2.40.1 (20161225.0304)
 --><!-- Title: G Pages: 1 --><svg xmlns="http://www.w3.org/2000/svg" xmlns:xlink="http://www.w3.org/1999/xlink" width="144pt" height="133pt" viewBox="0.00 0.00 144.22 132.80">
<g id="graph0" class="graph" transform="scale(1 1) rotate(0) translate(4 128.8)">
<title>G</title>
<polygon fill="#ffffff" stroke="transparent" points="-4,4 -4,-128.8 140.2229,-128.8 140.2229,4 -4,4"/>
<!-- n1 -->
<g id="node1" class="node">
<title>n1</title>
<ellipse fill="none" stroke="#000000" cx="27" cy="-106.8" rx="27" ry="18"/>
<text text-anchor="middle" x="27" y="-102.6" font-family="Times,serif" font-size="14.00" fill="#000000">a</text>
</g>
<!-- n3 -->
<g id="node3" class="node">
<title>n3</title>
<ellipse fill="none" stroke="#000000" cx="65" cy="-18" rx="27" ry="18"/>
<text text-anchor="middle" x="65" y="-13.8" font-family="Times,serif" font-size="14.00" fill="#000000">b</text>
</g>
<!-- n1&#45;&gt;n3 -->
<g id="edge1" class="edge">
<title>n1-&gt;n3</title>
<path fill="none" stroke="#000000" d="M34.5076,-89.256C39.9204,-76.6071 47.3265,-59.3002 53.4842,-44.9105"/>
<polygon fill="#000000" stroke="#000000" points="56.7915,-46.0782 57.508,-35.5076 50.356,-43.3242 56.7915,-46.0782"/>
</g>
<!-- n2 -->
<g id="node2" class="node">
<title>n2</title>
<ellipse fill="none" stroke="#000000" cx="104" cy="-106.8" rx="32.4473" ry="18"/>
<text text-anchor="middle" x="104" y="-102.6" font-family="Times,serif" font-size="14.00" fill="#000000">a → b</text>
</g>
<!-- n2&#45;&gt;n3 -->
<g id="edge2" class="edge">
<title>n2-&gt;n3</title>
<path fill="none" stroke="#000000" d="M96.2949,-89.256C90.7396,-76.6071 83.1386,-59.3002 76.8188,-44.9105"/>
<polygon fill="#000000" stroke="#000000" points="79.9149,-43.256 72.6891,-35.5076 73.5058,-46.0709 79.9149,-43.256"/>
<text text-anchor="middle" x="97.1136" y="-58.2" font-family="Times,serif" font-size="14.00" fill="#000000">MP</text>
</g>
</g>
</svg>