<?xml version="1.0" encoding="UTF-8" standalone="no"?><!DOCTYPE svg PUBLIC "-//W3C//DTD SVG 1.1//EN" "http://www.w3.org/Graphics/SVG/1.1/DTD/svg11.dtd"><!-- Generated by graphviz version 2.40.1 (20161225.0304)
 --><!-- Title: G Pages: 1 --><svg xmlns="http://www.w3.org/2000/svg" xmlns:xlink="http://www.w3.org/1999/xlink" width="232pt" height="310pt" viewBox="0.00 0.00 231.92 310.40">
<g id="graph0" class="graph" transform="scale(1 1) rotate(0) translate(4 306.4)">
<title>G</title>
<polygon fill="#ffffff" stroke="transparent" points="-4,4 -4,-306.4 227.923,-306.4 227.923,4 -4,4"/>
<!-- a1 -->
<g id="node1" class="node">
<title>a1</title>
<ellipse fill="none" stroke="#000000" cx="29.0821" cy="-195.6" rx="27" ry="18"/>
<text text-anchor="middle" x="29.0821" y="-191.4" font-family="Times,serif" font-size="14.00" fill="#000000">¬b</text>
</g>
<!-- n3 -->
<g id="node4" class="node">
<title>n3</title>
<ellipse fill="none" stroke="#000000" cx="45.0821" cy="-106.8" rx="45.1643" ry="18"/>
<text text-anchor="middle" x="45.0821" y="-102.6" font-family="Times,serif" font-size="14.00" fill="#000000">¬a → ¬b</text>
</g>
<!-- a1&#45;&gt;n3 -->
<g id="edge3" class="edge">
<title>a1-&gt;n3</title>
<path fill="none" stroke="#000000" d="M32.3199,-177.63C34.5174,-165.4338 37.4687,-149.0543 39.9796,-135.1187"/>
<polygon fill="#000000" stroke="#000000" points="43.4653,-135.5103 41.7941,-125.0481 36.5763,-134.2689 43.4653,-135.5103"/>
</g>
<!-- n1 -->
<g id="node2" class="node">
<title>n1</title>
<ellipse fill="none" stroke="#000000" cx="149.0821" cy="-284.4" rx="45.2069" ry="18"/>
<text text-anchor="middle" x="149.0821" y="-280.2" font-family="Times,serif" font-size="14.00" fill="#000000">Axiom 1</text>
</g>
<!-- n2 -->
<g id="node3" class="node">
<title>n2</title>
<ellipse fill="none" stroke="#000000" cx="149.0821" cy="-195.6" rx="74.6822" ry="18"/>
<text text-anchor="middle" x="149.0821" y="-191.4" font-family="Times,serif" font-size="14.00" fill="#000000">¬b → (¬a → ¬b)</text>
</g>
<!-- n1&#45;&gt;n2 -->
<g id="edge1" class="edge">
<title>n1-&gt;n2</title>
<path fill="none" stroke="#000000" d="M149.0821,-266.0006C149.0821,-253.8949 149.0821,-237.8076 149.0821,-224.0674"/>
<polygon fill="#000000" stroke="#000000" points="152.5822,-223.672 149.0821,-213.672 145.5822,-223.6721 152.5822,-223.672"/>
<text text-anchor="middle" x="184.0758" y="-235.8" font-family="Times,serif" font-size="14.00" fill="#000000">Instantiation</text>
</g>
<!-- n2&#45;&gt;n3 -->
<g id="edge2" class="edge">
<title>n2-&gt;n3</title>
<path fill="none" stroke="#000000" d="M128.535,-178.056C112.3132,-164.2051 89.5501,-144.7688 71.8945,-129.6937"/>
<polygon fill="#000000" stroke="#000000" points="74.0614,-126.9417 64.1838,-123.1099 69.516,-132.2651 74.0614,-126.9417"/>
<text text-anchor="middle" x="116.1957" y="-147" font-family="Times,serif" font-size="14.00" fill="#000000">MP</text>
</g>
<!-- n4 -->
<g id="node5" class="node">
<title>n4</title>
<ellipse fill="none" stroke="#000000" cx="45.0821" cy="-18" rx="32.4473" ry="18"/>
<text text-anchor="middle" x="45.0821" y="-13.8" font-family="Times,serif" font-size="14.00" fill="#000000">b → a</text>
</g>
<!-- n3&#45;&gt;n4 -->
<g id="edge4" class="edge">
<title>n3-&gt;n4</title>
<path fill="none" stroke="#000000" d="M45.0821,-88.4006C45.0821,-76.2949 45.0821,-60.2076 45.0821,-46.4674"/>
<polygon fill="#000000" stroke="#000000" points="48.5822,-46.072 45.0821,-36.072 41.5822,-46.0721 48.5822,-46.072"/>
<text text-anchor="middle" x="69.776" y="-58.2" font-family="Times,serif" font-size="14.00" fill="#000000">Axiom 3</text>
</g>
</g>
</svg>