<?xml version="1.0" encoding="UTF-8" standalone="no"?><!DOCTYPE svg PUBLIC "-//W3C//DTD SVG 1.1//EN" "http://www.w3.org/Graphics/SVG/1.1/DTD/svg11.dtd"><!-- Generated by graphviz version 2.40.1 (20161225.0304)
 --><!-- Title: G Pages: 1 --><svg xmlns="http://www.w3.org/2000/svg" xmlns:xlink="http://www.w3.org/1999/xlink" width="337pt" height="399pt" viewBox="0.00 0.00 337.06 399.20">
<g id="graph0" class="graph" transform="scale(1 1) rotate(0) translate(4 395.2)">
<title>G</title>
<polygon fill="#ffffff" stroke="transparent" points="-4,4 -4,-395.2 333.058,-395.2 333.058,4 -4,4"/>
<!-- a1 -->
<g id="node1" class="node">
<title>a1</title>
<ellipse fill="none" stroke="#000000" cx="27" cy="-106.8" rx="27" ry="18"/>
<text text-anchor="middle" x="27" y="-102.6" font-family="Times,serif" font-size="14.00" fill="#000000">¬b</text>
</g>
<!-- n5 -->
<g id="node7" class="node">
<title>n5</title>
<ellipse fill="none" stroke="#000000" cx="57" cy="-18" rx="27" ry="18"/>
<text text-anchor="middle" x="57" y="-13.8" font-family="Times,serif" font-size="14.00" fill="#000000">¬a</text>
</g>
<!-- a1&#45;&gt;n5 -->
<g id="edge5" class="edge">
<title>a1-&gt;n5</title>
<path fill="none" stroke="#000000" d="M33.0709,-88.83C37.2868,-76.3511 42.9822,-59.4928 47.7589,-45.3536"/>
<polygon fill="#000000" stroke="#000000" points="51.1556,-46.2344 51.0405,-35.6402 44.5239,-43.9939 51.1556,-46.2344"/>
</g>
<!-- a2 -->
<g id="node2" class="node">
<title>a2</title>
<ellipse fill="none" stroke="#000000" cx="71" cy="-284.4" rx="32.4473" ry="18"/>
<text text-anchor="middle" x="71" y="-280.2" font-family="Times,serif" font-size="14.00" fill="#000000">a → b</text>
</g>
<!-- n3 -->
<g id="node5" class="node">
<title>n3</title>
<ellipse fill="none" stroke="#000000" cx="117" cy="-195.6" rx="57.8826" ry="18"/>
<text text-anchor="middle" x="117" y="-191.4" font-family="Times,serif" font-size="14.00" fill="#000000">¬¬a → ¬¬b</text>
</g>
<!-- a2&#45;&gt;n3 -->
<g id="edge6" class="edge">
<title>a2-&gt;n3</title>
<path fill="none" stroke="#000000" d="M80.0881,-266.856C86.6605,-254.1684 95.6606,-236.7943 103.1282,-222.3785"/>
<polygon fill="#000000" stroke="#000000" points="106.2814,-223.9008 107.7733,-213.4115 100.0658,-220.681 106.2814,-223.9008"/>
</g>
<!-- n1 -->
<g id="node3" class="node">
<title>n1</title>
<ellipse fill="none" stroke="#000000" cx="225" cy="-373.2" rx="45.2069" ry="18"/>
<text text-anchor="middle" x="225" y="-369" font-family="Times,serif" font-size="14.00" fill="#000000">Axiom 4</text>
</g>
<!-- n2 -->
<g id="node4" class="node">
<title>n2</title>
<ellipse fill="none" stroke="#000000" cx="225" cy="-284.4" rx="104.116" ry="18"/>
<text text-anchor="middle" x="225" y="-280.2" font-family="Times,serif" font-size="14.00" fill="#000000">(a → b) → (¬¬a → ¬¬b)</text>
</g>
<!-- n1&#45;&gt;n2 -->
<g id="edge1" class="edge">
<title>n1-&gt;n2</title>
<path fill="none" stroke="#000000" d="M225,-354.8006C225,-342.6949 225,-326.6076 225,-312.8674"/>
<polygon fill="#000000" stroke="#000000" points="228.5001,-312.472 225,-302.472 221.5001,-312.4721 228.5001,-312.472"/>
<text text-anchor="middle" x="259.9937" y="-324.6" font-family="Times,serif" font-size="14.00" fill="#000000">Instantiation</text>
</g>
<!-- n2&#45;&gt;n3 -->
<g id="edge2" class="edge">
<title>n2-&gt;n3</title>
<path fill="none" stroke="#000000" d="M203.4042,-266.6434C186.8559,-253.0371 163.865,-234.1335 145.759,-219.2463"/>
<polygon fill="#000000" stroke="#000000" points="147.7716,-216.3699 137.8245,-212.7224 143.3259,-221.7769 147.7716,-216.3699"/>
<text text-anchor="middle" x="190.1136" y="-235.8" font-family="Times,serif" font-size="14.00" fill="#000000">MP</text>
</g>
<!-- n4 -->
<g id="node6" class="node">
<title>n4</title>
<ellipse fill="none" stroke="#000000" cx="117" cy="-106.8" rx="45.1643" ry="18"/>
<text text-anchor="middle" x="117" y="-102.6" font-family="Times,serif" font-size="14.00" fill="#000000">¬b → ¬a</text>
</g>
<!-- n3&#45;&gt;n4 -->
<g id="edge3" class="edge">
<title>n3-&gt;n4</title>
<path fill="none" stroke="#000000" d="M117,-177.2006C117,-165.0949 117,-149.0076 117,-135.2674"/>
<polygon fill="#000000" stroke="#000000" points="120.5001,-134.872 117,-124.872 113.5001,-134.8721 120.5001,-134.872"/>
<text text-anchor="middle" x="141.6939" y="-147" font-family="Times,serif" font-size="14.00" fill="#000000">Axiom 3</text>
</g>
<!-- n4&#45;&gt;n5 -->
<g id="edge4" class="edge">
<title>n4-&gt;n5</title>
<path fill="none" stroke="#000000" d="M105.1459,-89.256C96.2653,-76.1127 83.9866,-57.9402 74.0521,-43.2371"/>
<polygon fill="#000000" stroke="#000000" points="76.7193,-40.933 68.2206,-34.6066 70.9192,-44.852 76.7193,-40.933"/>
<text text-anchor="middle" x="102.1136" y="-58.2" font-family="Times,serif" font-size="14.00" fill="#000000">MP</text>
</g>
</g>
</svg>