<?xml version="1.0" encoding="UTF-8" standalone="no"?><!DOCTYPE svg PUBLIC "-//W3C//DTD SVG 1.1//EN" "http://www.w3.org/Graphics/SVG/1.1/DTD/svg11.dtd"><!-- Generated by graphviz version 2.40.1 (20161225.0304)
 --><!-- Title: G Pages: 1 --><svg xmlns="http://www.w3.org/2000/svg" xmlns:xlink="http://www.w3.org/1999/xlink" width="354pt" height="488pt" viewBox="0.00 0.00 353.87 488.00">
<g id="graph0" class="graph" transform="scale(1 1) rotate(0) translate(4 484)">
<title>G</title>
<polygon fill="#ffffff" stroke="transparent" points="-4,4 -4,-484 349.8727,-484 349.8727,4 -4,4"/>
<!-- a1 -->
<g id="node1" class="node">
<title>a1</title>
<ellipse fill="none" stroke="#000000" cx="38.1107" cy="-284.4" rx="38.2218" ry="18"/>
<text text-anchor="middle" x="38.1107" y="-280.2" font-family="Times,serif" font-size="14.00" fill="#000000">¬a → a</text>
</g>
<!-- n4 -->
<g id="node5" class="node">
<title>n4</title>
<ellipse fill="none" stroke="#000000" cx="140.1107" cy="-195.6" rx="73.5156" ry="18"/>
<text text-anchor="middle" x="140.1107" y="-191.4" font-family="Times,serif" font-size="14.00" fill="#000000">¬a → ¬(¬a → a)</text>
</g>
<!-- a1&#45;&gt;n4 -->
<g id="edge6" class="edge">
<title>a1-&gt;n4</title>
<path fill="none" stroke="#000000" d="M56.3463,-268.5243C71.8501,-255.0268 94.3595,-235.4304 112.141,-219.9501"/>
<polygon fill="#000000" stroke="#000000" points="114.6919,-222.3699 119.936,-213.1639 110.0955,-217.0903 114.6919,-222.3699"/>
</g>
<!-- n6 -->
<g id="node7" class="node">
<title>n6</title>
<ellipse fill="none" stroke="#000000" cx="54.1107" cy="-18" rx="27" ry="18"/>
<text text-anchor="middle" x="54.1107" y="-13.8" font-family="Times,serif" font-size="14.00" fill="#000000">a</text>
</g>
<!-- a1&#45;&gt;n6 -->
<g id="edge7" class="edge">
<title>a1-&gt;n6</title>
<path fill="none" stroke="#000000" d="M39.2105,-266.0892C41.9573,-220.3536 49.1334,-100.8719 52.4212,-46.1306"/>
<polygon fill="#000000" stroke="#000000" points="55.9185,-46.2785 53.0244,-36.0866 48.9311,-45.8588 55.9185,-46.2785"/>
</g>
<!-- n1 -->
<g id="node2" class="node">
<title>n1</title>
<ellipse fill="none" stroke="#000000" cx="220.1107" cy="-462" rx="47.5537" ry="18"/>
<text text-anchor="middle" x="220.1107" y="-457.8" font-family="Times,serif" font-size="14.00" fill="#000000">Lemma 8</text>
</g>
<!-- n2 -->
<g id="node3" class="node">
<title>n2</title>
<ellipse fill="none" stroke="#000000" cx="220.1107" cy="-373.2" rx="93.1605" ry="18"/>
<text text-anchor="middle" x="220.1107" y="-369" font-family="Times,serif" font-size="14.00" fill="#000000">¬a → (a → ¬(¬a → a)</text>
</g>
<!-- n1&#45;&gt;n2 -->
<g id="edge1" class="edge">
<title>n1-&gt;n2</title>
<path fill="none" stroke="#000000" d="M220.1107,-443.6006C220.1107,-431.4949 220.1107,-415.4076 220.1107,-401.6674"/>
<polygon fill="#000000" stroke="#000000" points="223.6108,-401.272 220.1107,-391.272 216.6108,-401.2721 223.6108,-401.272"/>
<text text-anchor="middle" x="255.1044" y="-413.4" font-family="Times,serif" font-size="14.00" fill="#000000">Instantiation</text>
</g>
<!-- n3 -->
<g id="node4" class="node">
<title>n3</title>
<ellipse fill="none" stroke="#000000" cx="220.1107" cy="-284.4" rx="125.5244" ry="18"/>
<text text-anchor="middle" x="220.1107" y="-280.2" font-family="Times,serif" font-size="14.00" fill="#000000">(¬a → a) → (¬a → ¬(¬a → a))</text>
</g>
<!-- n2&#45;&gt;n3 -->
<g id="edge2" class="edge">
<title>n2-&gt;n3</title>
<path fill="none" stroke="#000000" d="M220.1107,-354.8006C220.1107,-342.6949 220.1107,-326.6076 220.1107,-312.8674"/>
<polygon fill="#000000" stroke="#000000" points="223.6108,-312.472 220.1107,-302.472 216.6108,-312.4721 223.6108,-312.472"/>
<text text-anchor="middle" x="244.8046" y="-324.6" font-family="Times,serif" font-size="14.00" fill="#000000">Axiom 2</text>
</g>
<!-- n3&#45;&gt;n4 -->
<g id="edge3" class="edge">
<title>n3-&gt;n4</title>
<path fill="none" stroke="#000000" d="M203.9215,-266.43C192.1335,-253.3453 176.0078,-235.4457 162.9166,-220.9146"/>
<polygon fill="#000000" stroke="#000000" points="165.2966,-218.3272 156.0028,-213.2402 160.0958,-223.0125 165.2966,-218.3272"/>
<text text-anchor="middle" x="197.2243" y="-235.8" font-family="Times,serif" font-size="14.00" fill="#000000">MP</text>
</g>
<!-- n5 -->
<g id="node6" class="node">
<title>n5</title>
<ellipse fill="none" stroke="#000000" cx="133.1107" cy="-106.8" rx="60.7966" ry="18"/>
<text text-anchor="middle" x="133.1107" y="-102.6" font-family="Times,serif" font-size="14.00" fill="#000000">(¬a → a) → a</text>
</g>
<!-- n4&#45;&gt;n5 -->
<g id="edge4" class="edge">
<title>n4-&gt;n5</title>
<path fill="none" stroke="#000000" d="M138.6603,-177.2006C137.6966,-164.975 136.4128,-148.6887 135.3226,-134.8599"/>
<polygon fill="#000000" stroke="#000000" points="138.8104,-134.566 134.5353,-124.872 131.8321,-135.1162 138.8104,-134.566"/>
<text text-anchor="middle" x="161.8046" y="-147" font-family="Times,serif" font-size="14.00" fill="#000000">Axiom 3</text>
</g>
<!-- n5&#45;&gt;n6 -->
<g id="edge5" class="edge">
<title>n5-&gt;n6</title>
<path fill="none" stroke="#000000" d="M117.5029,-89.256C105.3618,-75.6088 88.397,-56.5395 75.0722,-41.5618"/>
<polygon fill="#000000" stroke="#000000" points="77.3596,-38.8672 68.0979,-33.7223 72.1297,-43.52 77.3596,-38.8672"/>
<text text-anchor="middle" x="110.2243" y="-58.2" font-family="Times,serif" font-size="14.00" fill="#000000">MP</text>
</g>
</g>
</svg>