<?xml version="1.0" encoding="UTF-8" standalone="no"?><!DOCTYPE svg PUBLIC "-//W3C//DTD SVG 1.1//EN" "http://www.w3.org/Graphics/SVG/1.1/DTD/svg11.dtd"><!-- Generated by graphviz version 2.40.1 (20161225.0304)
 --><!-- Title: G Pages: 1 --><svg xmlns="http://www.w3.org/2000/svg" xmlns:xlink="http://www.w3.org/1999/xlink" width="182pt" height="222pt" viewBox="0.00 0.00 182.22 221.60">
<g id="graph0" class="graph" transform="scale(1 1) rotate(0) translate(4 217.6)">
<title>G</title>
<polygon fill="#ffffff" stroke="transparent" points="-4,4 -4,-217.6 178.2229,-217.6 178.2229,4 -4,4"/>
<!-- a1 -->
<g id="node1" class="node">
<title>a1</title>
<ellipse fill="none" stroke="#000000" cx="27" cy="-195.6" rx="27" ry="18"/>
<text text-anchor="middle" x="27" y="-191.4" font-family="Times,serif" font-size="14.00" fill="#000000">a</text>
</g>
<!-- n1 -->
<g id="node4" class="node">
<title>n1</title>
<ellipse fill="none" stroke="#000000" cx="65" cy="-106.8" rx="27" ry="18"/>
<text text-anchor="middle" x="65" y="-102.6" font-family="Times,serif" font-size="14.00" fill="#000000">b</text>
</g>
<!-- a1&#45;&gt;n1 -->
<g id="edge1" class="edge">
<title>a1-&gt;n1</title>
<path fill="none" stroke="#000000" d="M34.5076,-178.056C39.9204,-165.4071 47.3265,-148.1002 53.4842,-133.7105"/>
<polygon fill="#000000" stroke="#000000" points="56.7915,-134.8782 57.508,-124.3076 50.356,-132.1242 56.7915,-134.8782"/>
</g>
<!-- a2 -->
<g id="node2" class="node">
<title>a2</title>
<ellipse fill="none" stroke="#000000" cx="104" cy="-195.6" rx="32.4473" ry="18"/>
<text text-anchor="middle" x="104" y="-191.4" font-family="Times,serif" font-size="14.00" fill="#000000">a → b</text>
</g>
<!-- a2&#45;&gt;n1 -->
<g id="edge2" class="edge">
<title>a2-&gt;n1</title>
<path fill="none" stroke="#000000" d="M96.2949,-178.056C90.7396,-165.4071 83.1386,-148.1002 76.8188,-133.7105"/>
<polygon fill="#000000" stroke="#000000" points="79.9149,-132.056 72.6891,-124.3076 73.5058,-134.8709 79.9149,-132.056"/>
<text text-anchor="middle" x="97.1136" y="-147" font-family="Times,serif" font-size="14.00" fill="#000000">MP</text>
</g>
<!-- a3 -->
<g id="node3" class="node">
<title>a3</title>
<ellipse fill="none" stroke="#000000" cx="142" cy="-106.8" rx="32.4473" ry="18"/>
<text text-anchor="middle" x="142" y="-102.6" font-family="Times,serif" font-size="14.00" fill="#000000">b → c</text>
</g>
<!-- n2 -->
<g id="node5" class="node">
<title>n2</title>
<ellipse fill="none" stroke="#000000" cx="103" cy="-18" rx="27" ry="18"/>
<text text-anchor="middle" x="103" y="-13.8" font-family="Times,serif" font-size="14.00" fill="#000000">c</text>
</g>
<!-- a3&#45;&gt;n2 -->
<g id="edge3" class="edge">
<title>a3-&gt;n2</title>
<path fill="none" stroke="#000000" d="M134.2949,-89.256C128.7396,-76.6071 121.1386,-59.3002 114.8188,-44.9105"/>
<polygon fill="#000000" stroke="#000000" points="117.9149,-43.256 110.6891,-35.5076 111.5058,-46.0709 117.9149,-43.256"/>
<text text-anchor="middle" x="135.1136" y="-58.2" font-family="Times,serif" font-size="14.00" fill="#000000">MP</text>
</g>
<!-- n1&#45;&gt;n2 -->
<g id="edge4" class="edge">
<title>n1-&gt;n2</title>
<path fill="none" stroke="#000000" d="M72.5076,-89.256C77.9204,-76.6071 85.3265,-59.3002 91.4842,-44.9105"/>
<polygon fill="#000000" stroke="#000000" points="94.7915,-46.0782 95.508,-35.5076 88.356,-43.3242 94.7915,-46.0782"/>
</g>
</g>
</svg>