<?xml version="1.0" encoding="UTF-8" standalone="no"?><!DOCTYPE svg PUBLIC "-//W3C//DTD SVG 1.1//EN" "http://www.w3.org/Graphics/SVG/1.1/DTD/svg11.dtd"><!-- Generated by graphviz version 2.40.1 (20161225.0304)
 --><!-- Title: G Pages: 1 --><svg xmlns="http://www.w3.org/2000/svg" xmlns:xlink="http://www.w3.org/1999/xlink" width="216pt" height="310pt" viewBox="0.00 0.00 216.41 310.40">
<g id="graph0" class="graph" transform="scale(1 1) rotate(0) translate(4 306.4)">
<title>G</title>
<polygon fill="#ffffff" stroke="transparent" points="-4,4 -4,-306.4 212.4113,-306.4 212.4113,4 -4,4"/>
<!-- a2 -->
<g id="node1" class="node">
<title>a2</title>
<ellipse fill="none" stroke="#000000" cx="27" cy="-106.8" rx="27" ry="18"/>
<text text-anchor="middle" x="27" y="-102.6" font-family="Times,serif" font-size="14.00" fill="#000000">¬b</text>
</g>
<!-- n3 -->
<g id="node5" class="node">
<title>n3</title>
<ellipse fill="none" stroke="#000000" cx="63" cy="-18" rx="45.1643" ry="18"/>
<text text-anchor="middle" x="63" y="-13.8" font-family="Times,serif" font-size="14.00" fill="#000000">¬(a → b)</text>
</g>
<!-- a2&#45;&gt;n3 -->
<g id="edge4" class="edge">
<title>a2-&gt;n3</title>
<path fill="none" stroke="#000000" d="M34.1124,-89.256C39.2071,-76.6892 46.1656,-59.5248 51.9765,-45.1912"/>
<polygon fill="#000000" stroke="#000000" points="55.2656,-46.3939 55.7791,-35.8115 48.7784,-43.7639 55.2656,-46.3939"/>
</g>
<!-- a1 -->
<g id="node2" class="node">
<title>a1</title>
<ellipse fill="none" stroke="#000000" cx="140" cy="-284.4" rx="27" ry="18"/>
<text text-anchor="middle" x="140" y="-280.2" font-family="Times,serif" font-size="14.00" fill="#000000">a</text>
</g>
<!-- n1 -->
<g id="node3" class="node">
<title>n1</title>
<ellipse fill="none" stroke="#000000" cx="140" cy="-195.6" rx="55.6043" ry="18"/>
<text text-anchor="middle" x="140" y="-191.4" font-family="Times,serif" font-size="14.00" fill="#000000">(a → b) → b</text>
</g>
<!-- a1&#45;&gt;n1 -->
<g id="edge1" class="edge">
<title>a1-&gt;n1</title>
<path fill="none" stroke="#000000" d="M140,-266.0006C140,-253.8949 140,-237.8076 140,-224.0674"/>
<polygon fill="#000000" stroke="#000000" points="143.5001,-223.672 140,-213.672 136.5001,-223.6721 143.5001,-223.672"/>
<text text-anchor="middle" x="166.6315" y="-235.8" font-family="Times,serif" font-size="14.00" fill="#000000">Lemma 6</text>
</g>
<!-- n2 -->
<g id="node4" class="node">
<title>n2</title>
<ellipse fill="none" stroke="#000000" cx="140" cy="-106.8" rx="68.3227" ry="18"/>
<text text-anchor="middle" x="140" y="-102.6" font-family="Times,serif" font-size="14.00" fill="#000000">¬b → ¬(a → b)</text>
</g>
<!-- n1&#45;&gt;n2 -->
<g id="edge2" class="edge">
<title>n1-&gt;n2</title>
<path fill="none" stroke="#000000" d="M140,-177.2006C140,-165.0949 140,-149.0076 140,-135.2674"/>
<polygon fill="#000000" stroke="#000000" points="143.5001,-134.872 140,-124.872 136.5001,-134.8721 143.5001,-134.872"/>
<text text-anchor="middle" x="170.1315" y="-147" font-family="Times,serif" font-size="14.00" fill="#000000">Lemma 11</text>
</g>
<!-- n2&#45;&gt;n3 -->
<g id="edge3" class="edge">
<title>n2-&gt;n3</title>
<path fill="none" stroke="#000000" d="M124.4179,-88.83C112.9236,-75.5743 97.1444,-57.3769 84.4581,-42.7465"/>
<polygon fill="#000000" stroke="#000000" points="86.9708,-40.3017 77.7752,-35.0394 81.6821,-44.8876 86.9708,-40.3017"/>
<text text-anchor="middle" x="118.1136" y="-58.2" font-family="Times,serif" font-size="14.00" fill="#000000">MP</text>
</g>
</g>
</svg>