<?xml version="1.0" encoding="UTF-8" standalone="no"?><!DOCTYPE svg PUBLIC "-//W3C//DTD SVG 1.1//EN" "http://www.w3.org/Graphics/SVG/1.1/DTD/svg11.dtd"><!-- Generated by graphviz version 2.40.1 (20161225.0304)
 --><!-- Title: G Pages: 1 --><svg xmlns="http://www.w3.org/2000/svg" xmlns:xlink="http://www.w3.org/1999/xlink" width="284pt" height="399pt" viewBox="0.00 0.00 284.31 399.20">
<g id="graph0" class="graph" transform="scale(1 1) rotate(0) translate(4 395.2)">
<title>G</title>
<polygon fill="#ffffff" stroke="transparent" points="-4,4 -4,-395.2 280.3095,-395.2 280.3095,4 -4,4"/>
<!-- a2 -->
<g id="node1" class="node">
<title>a2</title>
<ellipse fill="none" stroke="#000000" cx="38.6525" cy="-195.6" rx="38.8055" ry="18"/>
<text text-anchor="middle" x="38.6525" y="-191.4" font-family="Times,serif" font-size="14.00" fill="#000000">¬b → a</text>
</g>
<!-- n3 -->
<g id="node5" class="node">
<title>n3</title>
<ellipse fill="none" stroke="#000000" cx="83.6525" cy="-106.8" rx="38.2218" ry="18"/>
<text text-anchor="middle" x="83.6525" y="-102.6" font-family="Times,serif" font-size="14.00" fill="#000000">¬a → a</text>
</g>
<!-- a2&#45;&gt;n3 -->
<g id="edge4" class="edge">
<title>a2-&gt;n3</title>
<path fill="none" stroke="#000000" d="M47.543,-178.056C54.0146,-165.2855 62.8922,-147.767 70.2253,-133.2963"/>
<polygon fill="#000000" stroke="#000000" points="73.3821,-134.8097 74.7804,-124.3076 67.138,-131.6455 73.3821,-134.8097"/>
</g>
<!-- a1 -->
<g id="node2" class="node">
<title>a1</title>
<ellipse fill="none" stroke="#000000" cx="185.6525" cy="-373.2" rx="32.4473" ry="18"/>
<text text-anchor="middle" x="185.6525" y="-369" font-family="Times,serif" font-size="14.00" fill="#000000">b → a</text>
</g>
<!-- n1 -->
<g id="node3" class="node">
<title>n1</title>
<ellipse fill="none" stroke="#000000" cx="185.6525" cy="-284.4" rx="45.1643" ry="18"/>
<text text-anchor="middle" x="185.6525" y="-280.2" font-family="Times,serif" font-size="14.00" fill="#000000">¬a → ¬b</text>
</g>
<!-- a1&#45;&gt;n1 -->
<g id="edge1" class="edge">
<title>a1-&gt;n1</title>
<path fill="none" stroke="#000000" d="M185.6525,-354.8006C185.6525,-342.6949 185.6525,-326.6076 185.6525,-312.8674"/>
<polygon fill="#000000" stroke="#000000" points="189.1526,-312.472 185.6525,-302.472 182.1526,-312.4721 189.1526,-312.472"/>
<text text-anchor="middle" x="215.784" y="-324.6" font-family="Times,serif" font-size="14.00" fill="#000000">Lemma 11</text>
</g>
<!-- n2 -->
<g id="node4" class="node">
<title>n2</title>
<ellipse fill="none" stroke="#000000" cx="185.6525" cy="-195.6" rx="90.8144" ry="18"/>
<text text-anchor="middle" x="185.6525" y="-191.4" font-family="Times,serif" font-size="14.00" fill="#000000">(¬b → a) → (¬a → a)</text>
</g>
<!-- n1&#45;&gt;n2 -->
<g id="edge2" class="edge">
<title>n1-&gt;n2</title>
<path fill="none" stroke="#000000" d="M185.6525,-266.0006C185.6525,-253.8949 185.6525,-237.8076 185.6525,-224.0674"/>
<polygon fill="#000000" stroke="#000000" points="189.1526,-223.672 185.6525,-213.672 182.1526,-223.6721 189.1526,-223.672"/>
<text text-anchor="middle" x="212.284" y="-235.8" font-family="Times,serif" font-size="14.00" fill="#000000">Lemma 5</text>
</g>
<!-- n2&#45;&gt;n3 -->
<g id="edge3" class="edge">
<title>n2-&gt;n3</title>
<path fill="none" stroke="#000000" d="M165.0113,-177.63C149.1029,-163.7804 126.9984,-144.5364 109.8442,-129.6023"/>
<polygon fill="#000000" stroke="#000000" points="111.7101,-126.5861 101.8696,-122.6597 107.1137,-131.8657 111.7101,-126.5861"/>
<text text-anchor="middle" x="153.7661" y="-147" font-family="Times,serif" font-size="14.00" fill="#000000">MP</text>
</g>
<!-- n4 -->
<g id="node6" class="node">
<title>n4</title>
<ellipse fill="none" stroke="#000000" cx="83.6525" cy="-18" rx="27" ry="18"/>
<text text-anchor="middle" x="83.6525" y="-13.8" font-family="Times,serif" font-size="14.00" fill="#000000">a</text>
</g>
<!-- n3&#45;&gt;n4 -->
<g id="edge5" class="edge">
<title>n3-&gt;n4</title>
<path fill="none" stroke="#000000" d="M83.6525,-88.4006C83.6525,-76.2949 83.6525,-60.2076 83.6525,-46.4674"/>
<polygon fill="#000000" stroke="#000000" points="87.1526,-46.072 83.6525,-36.072 80.1526,-46.0721 87.1526,-46.072"/>
<text text-anchor="middle" x="113.784" y="-58.2" font-family="Times,serif" font-size="14.00" fill="#000000">Lemma 10</text>
</g>
</g>
</svg>