<?xml version="1.0" encoding="UTF-8" standalone="no"?><!DOCTYPE svg PUBLIC "-//W3C//DTD SVG 1.1//EN" "http://www.w3.org/Graphics/SVG/1.1/DTD/svg11.dtd"><!-- Generated by graphviz version 2.40.1 (20161225.0304)
 --><!-- Title: G Pages: 1 --><svg xmlns="http://www.w3.org/2000/svg" xmlns:xlink="http://www.w3.org/1999/xlink" width="280pt" height="330pt" viewBox="0.00 0.00 279.51 329.60">
<g id="graph0" class="graph" transform="scale(1 1) rotate(0) translate(4 325.6)">
<title>G</title>
<polygon fill="#ffffff" stroke="transparent" points="-4,4 -4,-325.6 275.5122,-325.6 275.5122,4 -4,4"/>
<!-- n1 -->
<g id="node1" class="node">
<title>n1</title>
<ellipse fill="none" stroke="#000000" cx="106.4686" cy="-303.6" rx="45.2069" ry="18"/>
<text text-anchor="middle" x="106.4686" y="-299.4" font-family="Times,serif" font-size="14.00" fill="#000000">Axiom 1</text>
</g>
<!-- n2 -->
<g id="node2" class="node">
<title>n2</title>
<ellipse fill="none" stroke="#000000" cx="54.4686" cy="-160.8" rx="54.4373" ry="18"/>
<text text-anchor="middle" x="54.4686" y="-156.6" font-family="Times,serif" font-size="14.00" fill="#000000">a → (a → a)</text>
</g>
<!-- n1&#45;&gt;n2 -->
<g id="edge1" class="edge">
<title>n1-&gt;n2</title>
<path fill="none" stroke="#000000" d="M79.8307,-288.7454C72.2671,-283.1453 64.8945,-276.0476 60.4812,-267.6 47.7869,-243.3014 47.7335,-211.513 49.9635,-188.9526"/>
<polygon fill="#000000" stroke="#000000" points="53.4421,-189.3392 51.1537,-178.9945 46.4916,-188.5085 53.4421,-189.3392"/>
<text text-anchor="middle" x="96.4623" y="-255" font-family="Times,serif" font-size="14.00" fill="#000000">Instantiation</text>
</g>
<!-- n3 -->
<g id="node3" class="node">
<title>n3</title>
<ellipse fill="none" stroke="#000000" cx="168.4686" cy="-214.8" rx="77.013" ry="18"/>
<text text-anchor="middle" x="168.4686" y="-210.6" font-family="Times,serif" font-size="14.00" fill="#000000">a → ((a → a) → a)</text>
</g>
<!-- n1&#45;&gt;n3 -->
<g id="edge2" class="edge">
<title>n1-&gt;n3</title>
<path fill="none" stroke="#000000" d="M120.4585,-286.258C125.037,-280.4144 130.0733,-273.8015 134.4686,-267.6 140.4578,-259.1496 146.6841,-249.6998 152.1467,-241.1562"/>
<polygon fill="#000000" stroke="#000000" points="155.1327,-242.9828 157.5209,-232.6606 149.2169,-239.2405 155.1327,-242.9828"/>
<text text-anchor="middle" x="179.4623" y="-255" font-family="Times,serif" font-size="14.00" fill="#000000">Instantiation</text>
</g>
<!-- n5 -->
<g id="node5" class="node">
<title>n5</title>
<ellipse fill="none" stroke="#000000" cx="59.4686" cy="-18" rx="31.8633" ry="18"/>
<text text-anchor="middle" x="59.4686" y="-13.8" font-family="Times,serif" font-size="14.00" fill="#000000">a → a</text>
</g>
<!-- n2&#45;&gt;n5 -->
<g id="edge5" class="edge">
<title>n2-&gt;n5</title>
<path fill="none" stroke="#000000" d="M55.1019,-142.7143C55.95,-118.4908 57.4642,-75.2461 58.4676,-46.5888"/>
<polygon fill="#000000" stroke="#000000" points="61.9725,-46.5063 58.8247,-36.3899 54.9768,-46.2613 61.9725,-46.5063"/>
</g>
<!-- n4 -->
<g id="node4" class="node">
<title>n4</title>
<ellipse fill="none" stroke="#000000" cx="171.4686" cy="-106.8" rx="100.0872" ry="18"/>
<text text-anchor="middle" x="171.4686" y="-102.6" font-family="Times,serif" font-size="14.00" fill="#000000">(a → (a → a)) → (a → a)</text>
</g>
<!-- n3&#45;&gt;n4 -->
<g id="edge3" class="edge">
<title>n3-&gt;n4</title>
<path fill="none" stroke="#000000" d="M168.9775,-196.4793C169.4458,-179.621 170.1474,-154.3651 170.6868,-134.947"/>
<polygon fill="#000000" stroke="#000000" points="174.1881,-134.9435 170.9672,-124.8502 167.1908,-134.7491 174.1881,-134.9435"/>
<text text-anchor="middle" x="194.1625" y="-156.6" font-family="Times,serif" font-size="14.00" fill="#000000">Axiom 2</text>
</g>
<!-- n4&#45;&gt;n5 -->
<g id="edge4" class="edge">
<title>n4-&gt;n5</title>
<path fill="none" stroke="#000000" d="M149.0729,-89.0434C130.9448,-74.6704 105.3611,-54.3862 86.169,-39.1696"/>
<polygon fill="#000000" stroke="#000000" points="88.1239,-36.2529 78.1135,-32.7827 83.7749,-41.7381 88.1239,-36.2529"/>
<text text-anchor="middle" x="136.5822" y="-58.2" font-family="Times,serif" font-size="14.00" fill="#000000">MP</text>
</g>
</g>
</svg>