<?xml version="1.0" encoding="UTF-8" standalone="no"?><!DOCTYPE svg PUBLIC "-//W3C//DTD SVG 1.1//EN" "http://www.w3.org/Graphics/SVG/1.1/DTD/svg11.dtd"><!-- Generated by graphviz version 2.40.1 (20161225.0304)
 --><!-- Title: G Pages: 1 --><svg xmlns="http://www.w3.org/2000/svg" xmlns:xlink="http://www.w3.org/1999/xlink" width="170pt" height="310pt" viewBox="0.00 0.00 170.49 310.40">
<g id="graph0" class="graph" transform="scale(1 1) rotate(0) translate(4 306.4)">
<title>G</title>
<polygon fill="#ffffff" stroke="transparent" points="-4,4 -4,-306.4 166.4859,-306.4 166.4859,4 -4,4"/>
<!-- a1 -->
<g id="node1" class="node">
<title>a1</title>
<ellipse fill="none" stroke="#000000" cx="32.2229" cy="-195.6" rx="32.4473" ry="18"/>
<text text-anchor="middle" x="32.2229" y="-191.4" font-family="Times,serif" font-size="14.00" fill="#000000">a → b</text>
</g>
<!-- n2 -->
<g id="node4" class="node">
<title>n2</title>
<ellipse fill="none" stroke="#000000" cx="60.2229" cy="-106.8" rx="27" ry="18"/>
<text text-anchor="middle" x="60.2229" y="-102.6" font-family="Times,serif" font-size="14.00" fill="#000000">b</text>
</g>
<!-- a1&#45;&gt;n2 -->
<g id="edge3" class="edge">
<title>a1-&gt;n2</title>
<path fill="none" stroke="#000000" d="M37.8891,-177.63C41.8239,-165.1511 47.1396,-148.2928 51.5979,-134.1536"/>
<polygon fill="#000000" stroke="#000000" points="54.9914,-135.0299 54.6606,-124.4402 48.3154,-132.9248 54.9914,-135.0299"/>
<text text-anchor="middle" x="58.3365" y="-147" font-family="Times,serif" font-size="14.00" fill="#000000">MP</text>
</g>
<!-- a2 -->
<g id="node2" class="node">
<title>a2</title>
<ellipse fill="none" stroke="#000000" cx="109.2229" cy="-284.4" rx="28.366" ry="18"/>
<text text-anchor="middle" x="109.2229" y="-280.2" font-family="Times,serif" font-size="14.00" fill="#000000">¬¬a</text>
</g>
<!-- n1 -->
<g id="node3" class="node">
<title>n1</title>
<ellipse fill="none" stroke="#000000" cx="109.2229" cy="-195.6" rx="27" ry="18"/>
<text text-anchor="middle" x="109.2229" y="-191.4" font-family="Times,serif" font-size="14.00" fill="#000000">a</text>
</g>
<!-- a2&#45;&gt;n1 -->
<g id="edge1" class="edge">
<title>a2-&gt;n1</title>
<path fill="none" stroke="#000000" d="M109.2229,-266.0006C109.2229,-253.8949 109.2229,-237.8076 109.2229,-224.0674"/>
<polygon fill="#000000" stroke="#000000" points="112.723,-223.672 109.2229,-213.672 105.723,-223.6721 112.723,-223.672"/>
<text text-anchor="middle" x="135.8544" y="-235.8" font-family="Times,serif" font-size="14.00" fill="#000000">Lemma 2</text>
</g>
<!-- n1&#45;&gt;n2 -->
<g id="edge2" class="edge">
<title>n1-&gt;n2</title>
<path fill="none" stroke="#000000" d="M99.7752,-178.4785C92.6575,-165.5795 82.7725,-147.6655 74.6654,-132.9734"/>
<polygon fill="#000000" stroke="#000000" points="77.5373,-130.9335 69.6416,-123.869 71.4085,-134.3154 77.5373,-130.9335"/>
</g>
<!-- n3 -->
<g id="node5" class="node">
<title>n3</title>
<ellipse fill="none" stroke="#000000" cx="60.2229" cy="-18" rx="28.9501" ry="18"/>
<text text-anchor="middle" x="60.2229" y="-13.8" font-family="Times,serif" font-size="14.00" fill="#000000">¬¬b</text>
</g>
<!-- n2&#45;&gt;n3 -->
<g id="edge4" class="edge">
<title>n2-&gt;n3</title>
<path fill="none" stroke="#000000" d="M60.2229,-88.4006C60.2229,-76.2949 60.2229,-60.2076 60.2229,-46.4674"/>
<polygon fill="#000000" stroke="#000000" points="63.723,-46.072 60.2229,-36.072 56.723,-46.0721 63.723,-46.072"/>
<text text-anchor="middle" x="86.8544" y="-58.2" font-family="Times,serif" font-size="14.00" fill="#000000">Lemma 3</text>
</g>
</g>
</svg>