<?xml version="1.0" encoding="UTF-8" standalone="no"?><!DOCTYPE svg PUBLIC "-//W3C//DTD SVG 1.1//EN" "http://www.w3.org/Graphics/SVG/1.1/DTD/svg11.dtd"><!-- Generated by graphviz version 2.40.1 (20161225.0304)
 --><!-- Title: G Pages: 1 --><svg xmlns="http://www.w3.org/2000/svg" xmlns:xlink="http://www.w3.org/1999/xlink" width="432pt" height="399pt" viewBox="0.00 0.00 431.64 399.20">
<g id="graph0" class="graph" transform="scale(1 1) rotate(0) translate(4 395.2)">
<title>G</title>
<polygon fill="#ffffff" stroke="transparent" points="-4,4 -4,-395.2 427.6445,-395.2 427.6445,4 -4,4"/>
<!-- a1 -->
<g id="node1" class="node">
<title>a1</title>
<ellipse fill="none" stroke="#000000" cx="74.6571" cy="-284.4" rx="32.4473" ry="18"/>
<text text-anchor="middle" x="74.6571" y="-280.2" font-family="Times,serif" font-size="14.00" fill="#000000">a → b</text>
</g>
<!-- n3 -->
<g id="node5" class="node">
<title>n3</title>
<ellipse fill="none" stroke="#000000" cx="90.6571" cy="-195.6" rx="90.8144" ry="18"/>
<text text-anchor="middle" x="90.6571" y="-191.4" font-family="Times,serif" font-size="14.00" fill="#000000">(a → ¬b) → (a → ¬a)</text>
</g>
<!-- a1&#45;&gt;n3 -->
<g id="edge3" class="edge">
<title>a1-&gt;n3</title>
<path fill="none" stroke="#000000" d="M77.8949,-266.43C80.0924,-254.2338 83.0437,-237.8543 85.5546,-223.9187"/>
<polygon fill="#000000" stroke="#000000" points="89.0403,-224.3103 87.3691,-213.8481 82.1512,-223.0689 89.0403,-224.3103"/>
</g>
<!-- a2 -->
<g id="node2" class="node">
<title>a2</title>
<ellipse fill="none" stroke="#000000" cx="237.6571" cy="-195.6" rx="38.8055" ry="18"/>
<text text-anchor="middle" x="237.6571" y="-191.4" font-family="Times,serif" font-size="14.00" fill="#000000">a → ¬b</text>
</g>
<!-- n4 -->
<g id="node6" class="node">
<title>n4</title>
<ellipse fill="none" stroke="#000000" cx="230.6571" cy="-106.8" rx="38.2218" ry="18"/>
<text text-anchor="middle" x="230.6571" y="-102.6" font-family="Times,serif" font-size="14.00" fill="#000000">a → ¬a</text>
</g>
<!-- a2&#45;&gt;n4 -->
<g id="edge5" class="edge">
<title>a2-&gt;n4</title>
<path fill="none" stroke="#000000" d="M236.2066,-177.2006C235.2429,-164.975 233.9591,-148.6887 232.869,-134.8599"/>
<polygon fill="#000000" stroke="#000000" points="236.3568,-134.566 232.0816,-124.872 229.3784,-135.1162 236.3568,-134.566"/>
</g>
<!-- n1 -->
<g id="node3" class="node">
<title>n1</title>
<ellipse fill="none" stroke="#000000" cx="261.6571" cy="-373.2" rx="47.5537" ry="18"/>
<text text-anchor="middle" x="261.6571" y="-369" font-family="Times,serif" font-size="14.00" fill="#000000">Lemma 9</text>
</g>
<!-- n2 -->
<g id="node4" class="node">
<title>n2</title>
<ellipse fill="none" stroke="#000000" cx="261.6571" cy="-284.4" rx="136.548" ry="18"/>
<text text-anchor="middle" x="261.6571" y="-280.2" font-family="Times,serif" font-size="14.00" fill="#000000">(a → b) → ((a → ¬b) → (a → ¬a))</text>
</g>
<!-- n1&#45;&gt;n2 -->
<g id="edge1" class="edge">
<title>n1-&gt;n2</title>
<path fill="none" stroke="#000000" d="M261.6571,-354.8006C261.6571,-342.6949 261.6571,-326.6076 261.6571,-312.8674"/>
<polygon fill="#000000" stroke="#000000" points="265.1571,-312.472 261.6571,-302.472 258.1571,-312.4721 265.1571,-312.472"/>
<text text-anchor="middle" x="296.6508" y="-324.6" font-family="Times,serif" font-size="14.00" fill="#000000">Instantiation</text>
</g>
<!-- n2&#45;&gt;n3 -->
<g id="edge2" class="edge">
<title>n2-&gt;n3</title>
<path fill="none" stroke="#000000" d="M227.873,-266.856C200.4706,-252.626 161.7159,-232.5008 132.3786,-217.2659"/>
<polygon fill="#000000" stroke="#000000" points="133.6985,-214.0076 123.2107,-212.5051 130.4724,-220.2199 133.6985,-214.0076"/>
<text text-anchor="middle" x="200.7707" y="-235.8" font-family="Times,serif" font-size="14.00" fill="#000000">MP</text>
</g>
<!-- n3&#45;&gt;n4 -->
<g id="edge4" class="edge">
<title>n3-&gt;n4</title>
<path fill="none" stroke="#000000" d="M117.9828,-178.2677C141.2287,-163.5231 174.6278,-142.3385 199.0268,-126.8626"/>
<polygon fill="#000000" stroke="#000000" points="201.0034,-129.7536 207.5732,-121.4417 197.2539,-123.8424 201.0034,-129.7536"/>
<text text-anchor="middle" x="182.7707" y="-147" font-family="Times,serif" font-size="14.00" fill="#000000">MP</text>
</g>
<!-- n7 -->
<g id="node9" class="node">
<title>n7</title>
<ellipse fill="none" stroke="#000000" cx="291.6571" cy="-18" rx="27" ry="18"/>
<text text-anchor="middle" x="291.6571" y="-13.8" font-family="Times,serif" font-size="14.00" fill="#000000">¬a</text>
</g>
<!-- n4&#45;&gt;n7 -->
<g id="edge6" class="edge">
<title>n4-&gt;n7</title>
<path fill="none" stroke="#000000" d="M242.4185,-89.6785C251.5638,-76.3653 264.3789,-57.7098 274.6428,-42.7683"/>
<polygon fill="#000000" stroke="#000000" points="277.5669,-44.6929 280.3442,-34.4685 271.7971,-40.7294 277.5669,-44.6929"/>
</g>
<!-- n5 -->
<g id="node7" class="node">
<title>n5</title>
<ellipse fill="none" stroke="#000000" cx="353.6571" cy="-195.6" rx="52.7099" ry="18"/>
<text text-anchor="middle" x="353.6571" y="-191.4" font-family="Times,serif" font-size="14.00" fill="#000000">Lemma 14</text>
</g>
<!-- n6 -->
<g id="node8" class="node">
<title>n6</title>
<ellipse fill="none" stroke="#000000" cx="353.6571" cy="-106.8" rx="67.156" ry="18"/>
<text text-anchor="middle" x="353.6571" y="-102.6" font-family="Times,serif" font-size="14.00" fill="#000000">(a → ¬a) → ¬a</text>
</g>
<!-- n5&#45;&gt;n6 -->
<g id="edge7" class="edge">
<title>n5-&gt;n6</title>
<path fill="none" stroke="#000000" d="M353.6571,-177.2006C353.6571,-165.0949 353.6571,-149.0076 353.6571,-135.2674"/>
<polygon fill="#000000" stroke="#000000" points="357.1571,-134.872 353.6571,-124.872 350.1571,-134.8721 357.1571,-134.872"/>
<text text-anchor="middle" x="388.6508" y="-147" font-family="Times,serif" font-size="14.00" fill="#000000">Instantiation</text>
</g>
<!-- n6&#45;&gt;n7 -->
<g id="edge8" class="edge">
<title>n6-&gt;n7</title>
<path fill="none" stroke="#000000" d="M341.1104,-88.83C331.9095,-75.6519 319.2986,-57.5898 309.1146,-43.0038"/>
<polygon fill="#000000" stroke="#000000" points="311.734,-40.6415 303.1395,-34.4458 305.9945,-44.6488 311.734,-40.6415"/>
<text text-anchor="middle" x="337.7707" y="-58.2" font-family="Times,serif" font-size="14.00" fill="#000000">MP</text>
</g>
</g>
</svg>