<?xml version="1.0" encoding="UTF-8" standalone="no"?><!DOCTYPE svg PUBLIC "-//W3C//DTD SVG 1.1//EN" "http://www.w3.org/Graphics/SVG/1.1/DTD/svg11.dtd"><!-- Generated by graphviz version 2.40.1 (20161225.0304)
 --><!-- Title: G Pages: 1 --><svg xmlns="http://www.w3.org/2000/svg" xmlns:xlink="http://www.w3.org/1999/xlink" width="508pt" height="488pt" viewBox="0.00 0.00 508.03 488.00">
<g id="graph0" class="graph" transform="scale(1 1) rotate(0) translate(4 484)">
<title>G</title>
<polygon fill="#ffffff" stroke="transparent" points="-4,4 -4,-484 504.0278,-484 504.0278,4 -4,4"/>
<!-- a1 -->
<g id="node1" class="node">
<title>a1</title>
<ellipse fill="none" stroke="#000000" cx="63.8291" cy="-373.2" rx="38.2218" ry="18"/>
<text text-anchor="middle" x="63.8291" y="-369" font-family="Times,serif" font-size="14.00" fill="#000000">a → ¬a</text>
</g>
<!-- n4 -->
<g id="node5" class="node">
<title>n4</title>
<ellipse fill="none" stroke="#000000" cx="63.8291" cy="-284.4" rx="63.6586" ry="18"/>
<text text-anchor="middle" x="63.8291" y="-280.2" font-family="Times,serif" font-size="14.00" fill="#000000">¬¬a → ¬¬¬a</text>
</g>
<!-- a1&#45;&gt;n4 -->
<g id="edge1" class="edge">
<title>a1-&gt;n4</title>
<path fill="none" stroke="#000000" d="M63.8291,-354.8006C63.8291,-342.6949 63.8291,-326.6076 63.8291,-312.8674"/>
<polygon fill="#000000" stroke="#000000" points="67.3292,-312.472 63.8291,-302.472 60.3292,-312.4721 67.3292,-312.472"/>
<text text-anchor="middle" x="98.8228" y="-324.6" font-family="Times,serif" font-size="14.00" fill="#000000">Instantiation</text>
</g>
<!-- n1 -->
<g id="node2" class="node">
<title>n1</title>
<ellipse fill="none" stroke="#000000" cx="322.8291" cy="-462" rx="52.7099" ry="18"/>
<text text-anchor="middle" x="322.8291" y="-457.8" font-family="Times,serif" font-size="14.00" fill="#000000">Lemma 13</text>
</g>
<!-- n2 -->
<g id="node3" class="node">
<title>n2</title>
<ellipse fill="none" stroke="#000000" cx="322.8291" cy="-373.2" rx="141.6041" ry="18"/>
<text text-anchor="middle" x="322.8291" y="-369" font-family="Times,serif" font-size="14.00" fill="#000000">¬¬a → (¬¬¬a → ¬(¬¬a → ¬¬a))</text>
</g>
<!-- n1&#45;&gt;n2 -->
<g id="edge2" class="edge">
<title>n1-&gt;n2</title>
<path fill="none" stroke="#000000" d="M322.8291,-443.6006C322.8291,-431.4949 322.8291,-415.4076 322.8291,-401.6674"/>
<polygon fill="#000000" stroke="#000000" points="326.3292,-401.272 322.8291,-391.272 319.3292,-401.2721 326.3292,-401.272"/>
<text text-anchor="middle" x="357.8228" y="-413.4" font-family="Times,serif" font-size="14.00" fill="#000000">Instantiation</text>
</g>
<!-- n3 -->
<g id="node4" class="node">
<title>n3</title>
<ellipse fill="none" stroke="#000000" cx="322.8291" cy="-284.4" rx="177.3977" ry="18"/>
<text text-anchor="middle" x="322.8291" y="-280.2" font-family="Times,serif" font-size="14.00" fill="#000000">(¬¬a → ¬¬¬a) → (¬¬a → ¬(¬¬a → ¬¬a))</text>
</g>
<!-- n2&#45;&gt;n3 -->
<g id="edge3" class="edge">
<title>n2-&gt;n3</title>
<path fill="none" stroke="#000000" d="M322.8291,-354.8006C322.8291,-342.6949 322.8291,-326.6076 322.8291,-312.8674"/>
<polygon fill="#000000" stroke="#000000" points="326.3292,-312.472 322.8291,-302.472 319.3292,-312.4721 326.3292,-312.472"/>
<text text-anchor="middle" x="347.523" y="-324.6" font-family="Times,serif" font-size="14.00" fill="#000000">Axiom 2</text>
</g>
<!-- n5 -->
<g id="node6" class="node">
<title>n5</title>
<ellipse fill="none" stroke="#000000" cx="192.8291" cy="-195.6" rx="99.4516" ry="18"/>
<text text-anchor="middle" x="192.8291" y="-191.4" font-family="Times,serif" font-size="14.00" fill="#000000">¬¬a → ¬(¬¬a → ¬¬a)</text>
</g>
<!-- n3&#45;&gt;n5 -->
<g id="edge4" class="edge">
<title>n3-&gt;n5</title>
<path fill="none" stroke="#000000" d="M296.5217,-266.43C276.4793,-252.7396 248.7204,-233.778 226.967,-218.9188"/>
<polygon fill="#000000" stroke="#000000" points="228.8854,-215.9906 218.6538,-213.2402 224.937,-221.7708 228.8854,-215.9906"/>
<text text-anchor="middle" x="278.9427" y="-235.8" font-family="Times,serif" font-size="14.00" fill="#000000">MP</text>
</g>
<!-- n4&#45;&gt;n5 -->
<g id="edge5" class="edge">
<title>n4-&gt;n5</title>
<path fill="none" stroke="#000000" d="M88.093,-267.6974C108.0669,-253.948 136.6118,-234.2984 158.8585,-218.9844"/>
<polygon fill="#000000" stroke="#000000" points="161.0976,-221.6922 167.3501,-213.1391 157.1284,-215.9263 161.0976,-221.6922"/>
</g>
<!-- n8 -->
<g id="node9" class="node">
<title>n8</title>
<ellipse fill="none" stroke="#000000" cx="194.8291" cy="-106.8" rx="86.7333" ry="18"/>
<text text-anchor="middle" x="194.8291" y="-102.6" font-family="Times,serif" font-size="14.00" fill="#000000">(¬¬a → ¬¬a) → ¬a</text>
</g>
<!-- n5&#45;&gt;n8 -->
<g id="edge6" class="edge">
<title>n5-&gt;n8</title>
<path fill="none" stroke="#000000" d="M193.2435,-177.2006C193.5161,-165.0949 193.8785,-149.0076 194.1879,-135.2674"/>
<polygon fill="#000000" stroke="#000000" points="197.6959,-134.9483 194.4221,-124.872 190.6977,-134.7906 197.6959,-134.9483"/>
<text text-anchor="middle" x="219.523" y="-147" font-family="Times,serif" font-size="14.00" fill="#000000">Axiom 3</text>
</g>
<!-- n6 -->
<g id="node7" class="node">
<title>n6</title>
<ellipse fill="none" stroke="#000000" cx="357.8291" cy="-195.6" rx="47.5537" ry="18"/>
<text text-anchor="middle" x="357.8291" y="-191.4" font-family="Times,serif" font-size="14.00" fill="#000000">Lemma 1</text>
</g>
<!-- n7 -->
<g id="node8" class="node">
<title>n7</title>
<ellipse fill="none" stroke="#000000" cx="357.8291" cy="-106.8" rx="57.2992" ry="18"/>
<text text-anchor="middle" x="357.8291" y="-102.6" font-family="Times,serif" font-size="14.00" fill="#000000">¬¬a → ¬¬a</text>
</g>
<!-- n6&#45;&gt;n7 -->
<g id="edge7" class="edge">
<title>n6-&gt;n7</title>
<path fill="none" stroke="#000000" d="M357.8291,-177.2006C357.8291,-165.0949 357.8291,-149.0076 357.8291,-135.2674"/>
<polygon fill="#000000" stroke="#000000" points="361.3292,-134.872 357.8291,-124.872 354.3292,-134.8721 361.3292,-134.872"/>
<text text-anchor="middle" x="392.8228" y="-147" font-family="Times,serif" font-size="14.00" fill="#000000">Instantiation</text>
</g>
<!-- n9 -->
<g id="node10" class="node">
<title>n9</title>
<ellipse fill="none" stroke="#000000" cx="274.8291" cy="-18" rx="27" ry="18"/>
<text text-anchor="middle" x="274.8291" y="-13.8" font-family="Times,serif" font-size="14.00" fill="#000000">¬a</text>
</g>
<!-- n7&#45;&gt;n9 -->
<g id="edge8" class="edge">
<title>n7-&gt;n9</title>
<path fill="none" stroke="#000000" d="M341.431,-89.256C328.4766,-75.3964 310.2952,-55.9445 296.201,-40.8653"/>
<polygon fill="#000000" stroke="#000000" points="298.638,-38.347 289.2525,-33.4313 293.524,-43.1269 298.638,-38.347"/>
</g>
<!-- n8&#45;&gt;n9 -->
<g id="edge9" class="edge">
<title>n8-&gt;n9</title>
<path fill="none" stroke="#000000" d="M211.0183,-88.83C223.3456,-75.1467 240.4167,-56.1978 253.8002,-41.342"/>
<polygon fill="#000000" stroke="#000000" points="256.7096,-43.3417 260.8026,-33.5694 251.5089,-38.6564 256.7096,-43.3417"/>
<text text-anchor="middle" x="251.9427" y="-58.2" font-family="Times,serif" font-size="14.00" fill="#000000">MP</text>
</g>
</g>
</svg>