<?xml version="1.0" encoding="UTF-8" standalone="no"?><!DOCTYPE svg PUBLIC "-//W3C//DTD SVG 1.1//EN" "http://www.w3.org/Graphics/SVG/1.1/DTD/svg11.dtd"><!-- Generated by graphviz version 2.40.1 (20161225.0304)
 --><!-- Title: G Pages: 1 --><svg xmlns="http://www.w3.org/2000/svg" xmlns:xlink="http://www.w3.org/1999/xlink" width="135pt" height="222pt" viewBox="0.00 0.00 135.39 221.60">
<g id="graph0" class="graph" transform="scale(1 1) rotate(0) translate(4 217.6)">
<title>G</title>
<polygon fill="#ffffff" stroke="transparent" points="-4,4 -4,-217.6 131.3869,-217.6 131.3869,4 -4,4"/>
<!-- n1 -->
<g id="node1" class="node">
<title>n1</title>
<ellipse fill="none" stroke="#000000" cx="57.3995" cy="-195.6" rx="47.5537" ry="18"/>
<text text-anchor="middle" x="57.3995" y="-191.4" font-family="Times,serif" font-size="14.00" fill="#000000">Lemma 2</text>
</g>
<!-- n2 -->
<g id="node2" class="node">
<title>n2</title>
<ellipse fill="none" stroke="#000000" cx="57.3995" cy="-106.8" rx="57.2992" ry="18"/>
<text text-anchor="middle" x="57.3995" y="-102.6" font-family="Times,serif" font-size="14.00" fill="#000000">¬¬¬a → ¬a</text>
</g>
<!-- n1&#45;&gt;n2 -->
<g id="edge1" class="edge">
<title>n1-&gt;n2</title>
<path fill="none" stroke="#000000" d="M57.3995,-177.2006C57.3995,-165.0949 57.3995,-149.0076 57.3995,-135.2674"/>
<polygon fill="#000000" stroke="#000000" points="60.8996,-134.872 57.3995,-124.872 53.8996,-134.8721 60.8996,-134.872"/>
<text text-anchor="middle" x="92.3932" y="-147" font-family="Times,serif" font-size="14.00" fill="#000000">Instantiation</text>
</g>
<!-- n3 -->
<g id="node3" class="node">
<title>n3</title>
<ellipse fill="none" stroke="#000000" cx="57.3995" cy="-18" rx="44.5807" ry="18"/>
<text text-anchor="middle" x="57.3995" y="-13.8" font-family="Times,serif" font-size="14.00" fill="#000000">a → ¬¬a</text>
</g>
<!-- n2&#45;&gt;n3 -->
<g id="edge2" class="edge">
<title>n2-&gt;n3</title>
<path fill="none" stroke="#000000" d="M57.3995,-88.4006C57.3995,-76.2949 57.3995,-60.2076 57.3995,-46.4674"/>
<polygon fill="#000000" stroke="#000000" points="60.8996,-46.072 57.3995,-36.072 53.8996,-46.0721 60.8996,-46.072"/>
<text text-anchor="middle" x="82.0934" y="-58.2" font-family="Times,serif" font-size="14.00" fill="#000000">Axiom 3</text>
</g>
</g>
</svg>