<?xml version="1.0" encoding="UTF-8" standalone="no"?><!DOCTYPE svg PUBLIC "-//W3C//DTD SVG 1.1//EN" "http://www.w3.org/Graphics/SVG/1.1/DTD/svg11.dtd"><!-- Generated by graphviz version 2.40.1 (20161225.0304)
 --><!-- Title: G Pages: 1 --><svg xmlns="http://www.w3.org/2000/svg" xmlns:xlink="http://www.w3.org/1999/xlink" width="383pt" height="365pt" viewBox="0.00 0.00 382.86 364.86">
<g id="graph0" class="graph" transform="scale(1 1) rotate(0) translate(4 360.8564)">
<title>G</title>
<polygon fill="#ffffff" stroke="transparent" points="-4,4 -4,-360.8564 378.8564,-360.8564 378.8564,4 -4,4"/>
<!-- n1 -->
<g id="node1" class="node">
<title>n1</title>
<ellipse fill="none" stroke="#000000" cx="73.9883" cy="-64.9883" rx="27" ry="18"/>
<text text-anchor="middle" x="73.9883" y="-60.7883" font-family="times-roman-bold" font-size="14.00" fill="#000000">1</text>
</g>
<!-- n2 -->
<g id="node2" class="node">
<title>n2</title>
<ellipse fill="none" stroke="#000000" cx="27" cy="-178.4282" rx="27" ry="18"/>
<text text-anchor="middle" x="27" y="-174.2282" font-family="times-roman-bold" font-size="14.00" fill="#000000">2</text>
</g>
<!-- n1&#45;&#45;n2 -->
<g id="edge1" class="edge">
<title>n1--n2</title>
<path fill="none" stroke="#ff0000" d="M66.6464,-82.7133C57.8189,-104.0248 43.0949,-139.5718 34.2904,-160.8277"/>
</g>
<!-- n5 -->
<g id="node5" class="node">
<title>n5</title>
<ellipse fill="none" stroke="#000000" cx="347.8564" cy="-178.4282" rx="27" ry="18"/>
<text text-anchor="middle" x="347.8564" y="-174.2282" font-family="times-roman-bold" font-size="14.00" fill="#000000">5</text>
</g>
<!-- n1&#45;&#45;n5 -->
<g id="edge7" class="edge">
<title>n1--n5</title>
<path fill="none" stroke="#000000" d="M97.3382,-74.6601C149.0795,-96.0921 272.8792,-147.3716 324.5656,-168.7808"/>
</g>
<!-- n6 -->
<g id="node7" class="node">
<title>n6</title>
<ellipse fill="none" stroke="#000000" cx="187.4282" cy="-18" rx="27" ry="18"/>
<text text-anchor="middle" x="187.4282" y="-13.8" font-family="times-roman-bold" font-size="14.00" fill="#000000">6</text>
</g>
<!-- n1&#45;&#45;n6 -->
<g id="edge2" class="edge">
<title>n1--n6</title>
<path fill="none" stroke="#ff0000" d="M96.9446,-55.4795C116.4964,-47.3809 144.4638,-35.7964 164.1167,-27.6559"/>
</g>
<!-- n3 -->
<g id="node3" class="node">
<title>n3</title>
<ellipse fill="none" stroke="#000000" cx="73.9883" cy="-291.868" rx="27" ry="18"/>
<text text-anchor="middle" x="73.9883" y="-287.668" font-family="times-roman-bold" font-size="14.00" fill="#000000">3</text>
</g>
<!-- n2&#45;&#45;n3 -->
<g id="edge8" class="edge">
<title>n2--n3</title>
<path fill="none" stroke="#ff0000" d="M34.3419,-196.1532C43.1694,-217.4647 57.8935,-253.0116 66.698,-274.2675"/>
</g>
<!-- n7 -->
<g id="node8" class="node">
<title>n7</title>
<ellipse fill="none" stroke="#000000" cx="300.868" cy="-64.9883" rx="27" ry="18"/>
<text text-anchor="middle" x="300.868" y="-60.7883" font-family="times-roman-bold" font-size="14.00" fill="#000000">7</text>
</g>
<!-- n2&#45;&#45;n7 -->
<g id="edge9" class="edge">
<title>n2--n7</title>
<path fill="none" stroke="#000000" d="M50.3498,-168.7564C102.0912,-147.3244 225.8909,-96.0449 277.5773,-74.6357"/>
</g>
<!-- n4 -->
<g id="node4" class="node">
<title>n4</title>
<ellipse fill="none" stroke="#000000" cx="300.868" cy="-291.868" rx="27" ry="18"/>
<text text-anchor="middle" x="300.868" y="-287.668" font-family="times-roman-bold" font-size="14.00" fill="#000000">4</text>
</g>
<!-- n3&#45;&#45;n4 -->
<g id="edge3" class="edge">
<title>n3--n4</title>
<path fill="none" stroke="#ff0000" d="M101.3553,-291.868C145.0805,-291.868 230.1942,-291.868 273.7572,-291.868"/>
</g>
<!-- n8 -->
<g id="node6" class="node">
<title>n8</title>
<ellipse fill="none" stroke="#000000" cx="187.4282" cy="-338.8564" rx="27" ry="18"/>
<text text-anchor="middle" x="187.4282" y="-334.6564" font-family="times-roman-bold" font-size="14.00" fill="#000000">8</text>
</g>
<!-- n3&#45;&#45;n8 -->
<g id="edge4" class="edge">
<title>n3--n8</title>
<path fill="none" stroke="#000000" d="M96.9446,-301.3768C116.4964,-309.4755 144.4638,-321.06 164.1167,-329.2004"/>
</g>
<!-- n4&#45;&#45;n5 -->
<g id="edge5" class="edge">
<title>n4--n5</title>
<path fill="none" stroke="#ff0000" d="M308.21,-274.1431C317.0375,-252.8315 331.7615,-217.2846 340.566,-196.0287"/>
</g>
<!-- n5&#45;&#45;n8 -->
<g id="edge6" class="edge">
<title>n5--n8</title>
<path fill="none" stroke="#ff0000" d="M332.7637,-193.5209C302.1874,-224.0972 233.238,-293.0465 202.5976,-323.6869"/>
</g>
<!-- n6&#45;&#45;n7 -->
<g id="edge10" class="edge">
<title>n6--n7</title>
<path fill="none" stroke="#ff0000" d="M210.3844,-27.5088C229.9363,-35.6074 257.9037,-47.1919 277.5566,-55.3324"/>
</g>
<!-- n7&#45;&#45;n8 -->
<g id="edge11" class="edge">
<title>n7--n8</title>
<path fill="none" stroke="#ff0000" d="M293.5993,-82.5366C273.1097,-132.0028 215.0517,-272.1672 194.6364,-321.4542"/>
</g>
</g>
</svg>