<?xml version="1.0" encoding="UTF-8" standalone="no"?><!DOCTYPE svg PUBLIC "-//W3C//DTD SVG 1.1//EN" "http://www.w3.org/Graphics/SVG/1.1/DTD/svg11.dtd"><!-- Generated by graphviz version 2.40.1 (20161225.0304)
 --><!-- Title: G Pages: 1 --><svg xmlns="http://www.w3.org/2000/svg" xmlns:xlink="http://www.w3.org/1999/xlink" width="314pt" height="148pt" viewBox="0.00 0.00 314.48 148.20">
<g id="graph0" class="graph" transform="scale(1 1) rotate(0) translate(4 144.2012)">
<title>G</title>
<polygon fill="#ffffff" stroke="transparent" points="-4,4 -4,-144.2012 310.4817,-144.2012 310.4817,4 -4,4"/>
<!-- n1 -->
<g id="node1" class="node">
<title>n1</title>
<ellipse fill="none" stroke="#000000" cx="27" cy="-18" rx="27" ry="18"/>
<text text-anchor="middle" x="27" y="-13.8" font-family="times-roman-bold" font-size="14.00" fill="#000000">1</text>
</g>
<!-- n2 -->
<g id="node2" class="node">
<title>n2</title>
<ellipse fill="none" stroke="#000000" cx="27" cy="-122.2012" rx="27" ry="18"/>
<text text-anchor="middle" x="27" y="-118.0012" font-family="times-roman-bold" font-size="14.00" fill="#000000">2</text>
</g>
<!-- n1&#45;&#45;n2 -->
<g id="edge1" class="edge">
<title>n1--n2</title>
<path fill="none" stroke="#006400" d="M27,-36.1505C27,-55.1593 27,-84.8474 27,-103.9091"/>
</g>
<!-- n3 -->
<g id="node3" class="node">
<title>n3</title>
<ellipse fill="none" stroke="#000000" cx="117.2409" cy="-70.1006" rx="27" ry="18"/>
<text text-anchor="middle" x="117.2409" y="-65.9006" font-family="times-roman-bold" font-size="14.00" fill="#000000">3</text>
</g>
<!-- n2&#45;&#45;n3 -->
<g id="edge2" class="edge">
<title>n2--n3</title>
<path fill="none" stroke="#006400" d="M47.477,-110.3787C62.1415,-101.9122 81.8157,-90.5533 96.5325,-82.0566"/>
</g>
<!-- n3&#45;&#45;n1 -->
<g id="edge3" class="edge">
<title>n3--n1</title>
<path fill="none" stroke="#006400" d="M96.7638,-58.2782C82.0993,-49.8116 62.4252,-38.4527 47.7084,-29.956"/>
</g>
<!-- n6 -->
<g id="node6" class="node">
<title>n6</title>
<ellipse fill="none" stroke="#000000" cx="189.2409" cy="-70.1006" rx="27" ry="18"/>
<text text-anchor="middle" x="189.2409" y="-65.9006" font-family="times-roman-bold" font-size="14.00" fill="#000000">6</text>
</g>
<!-- n3&#45;&#45;n6 -->
<g id="edge4" class="edge">
<title>n3--n6</title>
<path fill="none" stroke="#000000" d="M144.461,-70.1006C150.1954,-70.1006 156.2464,-70.1006 161.9822,-70.1006"/>
</g>
<!-- n4 -->
<g id="node4" class="node">
<title>n4</title>
<ellipse fill="none" stroke="#000000" cx="279.4817" cy="-18" rx="27" ry="18"/>
<text text-anchor="middle" x="279.4817" y="-13.8" font-family="times-roman-bold" font-size="14.00" fill="#000000">4</text>
</g>
<!-- n4&#45;&#45;n6 -->
<g id="edge5" class="edge">
<title>n4--n6</title>
<path fill="none" stroke="#ee82ee" d="M259.0047,-29.8224C244.3402,-38.289 224.666,-49.6479 209.9492,-58.1446"/>
</g>
<!-- n5 -->
<g id="node5" class="node">
<title>n5</title>
<ellipse fill="none" stroke="#000000" cx="279.4817" cy="-122.2012" rx="27" ry="18"/>
<text text-anchor="middle" x="279.4817" y="-118.0012" font-family="times-roman-bold" font-size="14.00" fill="#000000">5</text>
</g>
<!-- n5&#45;&#45;n4 -->
<g id="edge7" class="edge">
<title>n5--n4</title>
<path fill="none" stroke="#ee82ee" d="M279.4817,-104.0507C279.4817,-85.0419 279.4817,-55.3537 279.4817,-36.2921"/>
</g>
<!-- n6&#45;&#45;n5 -->
<g id="edge6" class="edge">
<title>n6--n5</title>
<path fill="none" stroke="#ee82ee" d="M209.7179,-81.923C224.3824,-90.3895 244.0565,-101.7484 258.7733,-110.2452"/>
</g>
</g>
</svg>