<?xml version="1.0" encoding="UTF-8" standalone="no"?>
<!DOCTYPE svg PUBLIC "-//W3C//DTD SVG 1.1//EN"
 "http://www.w3.org/Graphics/SVG/1.1/DTD/svg11.dtd">
<svg width="2399pt" height="1862pt"
 viewBox="0.00 0.00 2399.43 1862.16" xmlns="http://www.w3.org/2000/svg" xmlns:xlink="http://www.w3.org/1999/xlink">
<g id="graph0" class="graph" transform="scale(1 1) rotate(0) translate(4 1858.1641)">
<polygon fill="#ffffff" stroke="transparent" points="-4,4 -4,-1858.1641 2395.4255,-1858.1641 2395.4255,4 -4,4"/>
<!-- a1 -->
<g id="node1" class="node">
<title>a1</title>
<ellipse fill="#ffd700" stroke="#ffd700" cx="1660.3089" cy="-807.3848" rx="39.6962" ry="39.6962"/>
<text text-anchor="middle" x="1660.3089" y="-795.3848" font-family="times-roman-bold" font-size="40.00" fill="#000000">a</text>
</g>
<!-- b1 -->
<g id="node2" class="node">
<title>b1</title>
<ellipse fill="#ff3030" stroke="#ff3030" cx="1892.0517" cy="-1016.0469" rx="39.6962" ry="39.6962"/>
<text text-anchor="middle" x="1892.0517" y="-1004.0469" font-family="times-roman-bold" font-size="40.00" fill="#000000">b</text>
</g>
<!-- a1&#45;&#45;b1 -->
<g id="edge1" class="edge">
<title>a1&#45;&#45;b1</title>
<path fill="none" stroke="#000000" d="M1690.1308,-834.2365C1734.6284,-874.3023 1817.9133,-949.2924 1862.3442,-989.2982"/>
</g>
<!-- c1 -->
<g id="node3" class="node">
<title>c1</title>
<ellipse fill="#ff3030" stroke="#ff3030" cx="1798.3566" cy="-887.0866" rx="39.6962" ry="39.6962"/>
<text text-anchor="middle" x="1798.3566" y="-875.0866" font-family="times-roman-bold" font-size="40.00" fill="#000000">c</text>
</g>
<!-- a1&#45;&#45;c1 -->
<g id="edge3" class="edge">
<title>a1&#45;&#45;c1</title>
<path fill="none" stroke="#000000" d="M1694.7881,-827.2913C1715.8713,-839.4638 1742.7481,-854.9811 1763.8385,-867.1576"/>
</g>
<!-- a3 -->
<g id="node7" class="node">
<title>a3</title>
<ellipse fill="#ff3030" stroke="#ff3030" cx="1501.7785" cy="-790.7226" rx="42.9025" ry="42.9025"/>
<text text-anchor="middle" x="1501.7785" y="-778.7226" font-family="times-roman-bold" font-size="40.00" fill="#000000">¬a</text>
</g>
<!-- a1&#45;&#45;a3 -->
<g id="edge16" class="edge">
<title>a1&#45;&#45;a3</title>
<path fill="none" stroke="#000000" d="M1620.7139,-803.2232C1597.5113,-800.7845 1568.1983,-797.7036 1544.4793,-795.2106"/>
</g>
<!-- a4 -->
<g id="node10" class="node">
<title>a4</title>
<ellipse fill="#ff3030" stroke="#ff3030" cx="1166.8813" cy="-1251.669" rx="42.9025" ry="42.9025"/>
<text text-anchor="middle" x="1166.8813" y="-1239.669" font-family="times-roman-bold" font-size="40.00" fill="#000000">¬a</text>
</g>
<!-- a1&#45;&#45;a4 -->
<g id="edge17" class="edge">
<title>a1&#45;&#45;a4</title>
<path fill="none" stroke="#000000" d="M1630.554,-834.1762C1543.356,-912.6897 1288.9197,-1141.7851 1198.8989,-1222.8403"/>
</g>
<!-- b1&#45;&#45;c1 -->
<g id="edge2" class="edge">
<title>b1&#45;&#45;c1</title>
<path fill="none" stroke="#000000" d="M1868.6501,-983.8374C1854.3406,-964.142 1836.0989,-939.0345 1821.7845,-919.3324"/>
</g>
<!-- b2 -->
<g id="node4" class="node">
<title>b2</title>
<ellipse fill="#ffd700" stroke="#ffd700" cx="1798.3566" cy="-1456.8478" rx="44.076" ry="44.076"/>
<text text-anchor="middle" x="1798.3566" y="-1444.8478" font-family="times-roman-bold" font-size="40.00" fill="#000000">¬b</text>
</g>
<!-- b1&#45;&#45;b2 -->
<g id="edge19" class="edge">
<title>b1&#45;&#45;b2</title>
<path fill="none" stroke="#000000" d="M1883.7369,-1055.165C1866.2701,-1137.3396 1825.8739,-1327.3889 1807.6143,-1413.2935"/>
</g>
<!-- b3 -->
<g id="node8" class="node">
<title>b3</title>
<ellipse fill="#ffd700" stroke="#ffd700" cx="1350.1766" cy="-839.981" rx="44.076" ry="44.076"/>
<text text-anchor="middle" x="1350.1766" y="-827.981" font-family="times-roman-bold" font-size="40.00" fill="#000000">¬b</text>
</g>
<!-- b1&#45;&#45;b3 -->
<g id="edge18" class="edge">
<title>b1&#45;&#45;b3</title>
<path fill="none" stroke="#000000" d="M1854.3783,-1003.8061C1756.5742,-972.0276 1495.0656,-887.0583 1392.3913,-853.6974"/>
</g>
<!-- c3 -->
<g id="node9" class="node">
<title>c3</title>
<ellipse fill="#ff3030" stroke="#ff3030" cx="1231.7166" cy="-946.6429" rx="42.9025" ry="42.9025"/>
<text text-anchor="middle" x="1231.7166" y="-934.6429" font-family="times-roman-bold" font-size="40.00" fill="#000000">¬c</text>
</g>
<!-- c1&#45;&#45;c3 -->
<g id="edge20" class="edge">
<title>c1&#45;&#45;c3</title>
<path fill="none" stroke="#000000" d="M1758.9614,-891.2272C1656.1855,-902.0294 1380.5389,-931.001 1274.2917,-942.168"/>
</g>
<!-- c11 -->
<g id="node16" class="node">
<title>c11</title>
<ellipse fill="#ffd700" stroke="#ffd700" cx="1875.1063" cy="-801.8473" rx="42.9025" ry="42.9025"/>
<text text-anchor="middle" x="1875.1063" y="-789.8473" font-family="times-roman-bold" font-size="40.00" fill="#000000">¬c</text>
</g>
<!-- c1&#45;&#45;c11 -->
<g id="edge29" class="edge">
<title>c1&#45;&#45;c11</title>
<path fill="none" stroke="#000000" d="M1825.1999,-857.2741C1832.0298,-849.6887 1839.397,-841.5066 1846.3194,-833.8184"/>
</g>
<!-- c2 -->
<g id="node5" class="node">
<title>c2</title>
<ellipse fill="#ff3030" stroke="#ff3030" cx="1925.1936" cy="-1171.9672" rx="39.6962" ry="39.6962"/>
<text text-anchor="middle" x="1925.1936" y="-1159.9672" font-family="times-roman-bold" font-size="40.00" fill="#000000">c</text>
</g>
<!-- b2&#45;&#45;c2 -->
<g id="edge4" class="edge">
<title>b2&#45;&#45;c2</title>
<path fill="none" stroke="#000000" d="M1816.3945,-1416.3339C1841.1529,-1360.7255 1885.2893,-1261.5936 1909.0254,-1208.2814"/>
</g>
<!-- d2 -->
<g id="node6" class="node">
<title>d2</title>
<ellipse fill="#ff3030" stroke="#ff3030" cx="1892.0517" cy="-1327.8875" rx="44.076" ry="44.076"/>
<text text-anchor="middle" x="1892.0517" y="-1315.8875" font-family="times-roman-bold" font-size="40.00" fill="#000000">¬d</text>
</g>
<!-- b2&#45;&#45;d2 -->
<g id="edge6" class="edge">
<title>b2&#45;&#45;d2</title>
<path fill="none" stroke="#000000" d="M1824.4559,-1420.9252C1837.343,-1403.1875 1852.8552,-1381.8368 1865.7674,-1364.0648"/>
</g>
<!-- b5 -->
<g id="node14" class="node">
<title>b5</title>
<ellipse fill="#ff3030" stroke="#ff3030" cx="1660.3089" cy="-1536.5496" rx="39.6962" ry="39.6962"/>
<text text-anchor="middle" x="1660.3089" y="-1524.5496" font-family="times-roman-bold" font-size="40.00" fill="#000000">b</text>
</g>
<!-- b2&#45;&#45;b5 -->
<g id="edge21" class="edge">
<title>b2&#45;&#45;b5</title>
<path fill="none" stroke="#000000" d="M1759.9026,-1479.0492C1739.479,-1490.8407 1714.5806,-1505.2158 1694.7881,-1516.6431"/>
</g>
<!-- c2&#45;&#45;d2 -->
<g id="edge5" class="edge">
<title>c2&#45;&#45;d2</title>
<path fill="none" stroke="#000000" d="M1916.916,-1210.9103C1912.1611,-1233.2799 1906.1789,-1261.4241 1901.2739,-1284.5003"/>
</g>
<!-- c2&#45;&#45;c3 -->
<g id="edge22" class="edge">
<title>c2&#45;&#45;c3</title>
<path fill="none" stroke="#000000" d="M1887.4167,-1159.6928C1767.5762,-1120.7542 1396.5483,-1000.1999 1272.5477,-959.9097"/>
</g>
<!-- c21 -->
<g id="node18" class="node">
<title>c21</title>
<ellipse fill="#ff3030" stroke="#ff3030" cx="2197.5288" cy="-1171.9672" rx="42.9025" ry="42.9025"/>
<text text-anchor="middle" x="2197.5288" y="-1159.9672" font-family="times-roman-bold" font-size="40.00" fill="#000000">¬c</text>
</g>
<!-- c2&#45;&#45;c21 -->
<g id="edge31" class="edge">
<title>c2&#45;&#45;c21</title>
<path fill="none" stroke="#000000" d="M1964.7934,-1171.9672C2015.3937,-1171.9672 2102.648,-1171.9672 2154.7366,-1171.9672"/>
</g>
<!-- d4 -->
<g id="node12" class="node">
<title>d4</title>
<ellipse fill="#ffd700" stroke="#ffd700" cx="1231.7166" cy="-1397.2915" rx="39.6962" ry="39.6962"/>
<text text-anchor="middle" x="1231.7166" y="-1385.2915" font-family="times-roman-bold" font-size="40.00" fill="#000000">d</text>
</g>
<!-- d2&#45;&#45;d4 -->
<g id="edge23" class="edge">
<title>d2&#45;&#45;d4</title>
<path fill="none" stroke="#000000" d="M1847.9572,-1332.522C1726.307,-1345.308 1387.3086,-1380.9381 1271.2682,-1393.1345"/>
</g>
<!-- d21 -->
<g id="node20" class="node">
<title>d21</title>
<ellipse fill="#ffd700" stroke="#ffd700" cx="2137.2289" cy="-1437.0474" rx="39.6962" ry="39.6962"/>
<text text-anchor="middle" x="2137.2289" y="-1425.0474" font-family="times-roman-bold" font-size="40.00" fill="#000000">d</text>
</g>
<!-- d2&#45;&#45;d21 -->
<g id="edge33" class="edge">
<title>d2&#45;&#45;d21</title>
<path fill="none" stroke="#000000" d="M1932.5377,-1345.913C1979.3252,-1366.7442 2055.6429,-1400.723 2100.6889,-1420.7788"/>
</g>
<!-- a3&#45;&#45;b3 -->
<g id="edge7" class="edge">
<title>a3&#45;&#45;b3</title>
<path fill="none" stroke="#000000" d="M1461.152,-803.9229C1439.9267,-810.8194 1413.9736,-819.2521 1392.5038,-826.2281"/>
</g>
<!-- a3&#45;&#45;c3 -->
<g id="edge9" class="edge">
<title>a3&#45;&#45;c3</title>
<path fill="none" stroke="#000000" d="M1464.7938,-812.0757C1413.3663,-841.7674 1320.7718,-895.2268 1269.1213,-925.0473"/>
</g>
<!-- a5 -->
<g id="node13" class="node">
<title>a5</title>
<ellipse fill="#ffd700" stroke="#ffd700" cx="1350.1766" cy="-1503.9534" rx="39.6962" ry="39.6962"/>
<text text-anchor="middle" x="1350.1766" y="-1491.9534" font-family="times-roman-bold" font-size="40.00" fill="#000000">a</text>
</g>
<!-- a3&#45;&#45;a5 -->
<g id="edge26" class="edge">
<title>a3&#45;&#45;a5</title>
<path fill="none" stroke="#000000" d="M1492.8611,-832.6757C1465.7593,-960.1796 1384.6211,-1341.9047 1358.4277,-1465.1352"/>
</g>
<!-- b3&#45;&#45;c3 -->
<g id="edge8" class="edge">
<title>b3&#45;&#45;c3</title>
<path fill="none" stroke="#000000" d="M1317.1789,-869.6923C1300.4747,-884.7328 1280.2822,-902.9142 1263.7199,-917.827"/>
</g>
<!-- b3&#45;&#45;b5 -->
<g id="edge25" class="edge">
<title>b3&#45;&#45;b5</title>
<path fill="none" stroke="#000000" d="M1368.1911,-880.4423C1423.651,-1005.0071 1591.2567,-1381.4557 1644.1401,-1500.2339"/>
</g>
<!-- c4 -->
<g id="node11" class="node">
<title>c4</title>
<ellipse fill="#ff3030" stroke="#ff3030" cx="1166.8813" cy="-1092.2654" rx="39.6962" ry="39.6962"/>
<text text-anchor="middle" x="1166.8813" y="-1080.2654" font-family="times-roman-bold" font-size="40.00" fill="#000000">c</text>
</g>
<!-- c3&#45;&#45;c4 -->
<g id="edge24" class="edge">
<title>c3&#45;&#45;c4</title>
<path fill="none" stroke="#000000" d="M1214.3419,-985.667C1204.6644,-1007.4031 1192.6887,-1034.3009 1183.1884,-1055.6391"/>
</g>
<!-- c31 -->
<g id="node22" class="node">
<title>c31</title>
<ellipse fill="#ffd700" stroke="#ffd700" cx="287.4113" cy="-612.2789" rx="39.6962" ry="39.6962"/>
<text text-anchor="middle" x="287.4113" y="-600.2789" font-family="times-roman-bold" font-size="40.00" fill="#000000">c</text>
</g>
<!-- c3&#45;&#45;c31 -->
<g id="edge35" class="edge">
<title>c3&#45;&#45;c31</title>
<path fill="none" stroke="#000000" d="M1191.4431,-932.3826C1035.8445,-877.2876 475.1628,-678.7588 324.7598,-625.5035"/>
</g>
<!-- c32 -->
<g id="node23" class="node">
<title>c32</title>
<ellipse fill="#ff3030" stroke="#ff3030" cx="430.5573" cy="-364.5666" rx="39.6962" ry="39.6962"/>
<text text-anchor="middle" x="430.5573" y="-352.5666" font-family="times-roman-bold" font-size="40.00" fill="#000000">c</text>
</g>
<!-- c3&#45;&#45;c32 -->
<g id="edge37" class="edge">
<title>c3&#45;&#45;c32</title>
<path fill="none" stroke="#000000" d="M1197.0346,-921.445C1064.4345,-825.1053 590.5887,-480.8362 462.6101,-387.8543"/>
</g>
<!-- c33 -->
<g id="node24" class="node">
<title>c33</title>
<ellipse fill="#ffd700" stroke="#ffd700" cx="621.9112" cy="-151.8793" rx="39.6962" ry="39.6962"/>
<text text-anchor="middle" x="621.9112" y="-139.8793" font-family="times-roman-bold" font-size="40.00" fill="#000000">c</text>
</g>
<!-- c3&#45;&#45;c33 -->
<g id="edge39" class="edge">
<title>c3&#45;&#45;c33</title>
<path fill="none" stroke="#000000" d="M1205.7091,-912.7471C1105.228,-781.7894 743.1557,-309.8982 646.0298,-183.3133"/>
</g>
<!-- a4&#45;&#45;c4 -->
<g id="edge10" class="edge">
<title>a4&#45;&#45;c4</title>
<path fill="none" stroke="#000000" d="M1166.8813,-1208.9518C1166.8813,-1185.0665 1166.8813,-1155.4871 1166.8813,-1132.0865"/>
</g>
<!-- a4&#45;&#45;d4 -->
<g id="edge12" class="edge">
<title>a4&#45;&#45;d4</title>
<path fill="none" stroke="#000000" d="M1184.256,-1290.6932C1193.9335,-1312.4292 1205.9092,-1339.327 1215.4095,-1360.6653"/>
</g>
<!-- a4&#45;&#45;a5 -->
<g id="edge27" class="edge">
<title>a4&#45;&#45;a5</title>
<path fill="none" stroke="#000000" d="M1191.9834,-1286.2191C1227.5744,-1335.2059 1292.2157,-1424.177 1326.8247,-1471.8123"/>
</g>
<!-- c4&#45;&#45;d4 -->
<g id="edge11" class="edge">
<title>c4&#45;&#45;d4</title>
<path fill="none" stroke="#000000" d="M1175.1586,-1131.207C1187.5849,-1189.6682 1210.9288,-1299.4926 1223.3862,-1358.0999"/>
</g>
<!-- c41 -->
<g id="node28" class="node">
<title>c41</title>
<ellipse fill="#ff3030" stroke="#ff3030" cx="190.5249" cy="-884.7344" rx="42.9025" ry="42.9025"/>
<text text-anchor="middle" x="190.5249" y="-872.7344" font-family="times-roman-bold" font-size="40.00" fill="#000000">¬c</text>
</g>
<!-- c4&#45;&#45;c41 -->
<g id="edge41" class="edge">
<title>c4&#45;&#45;c41</title>
<path fill="none" stroke="#000000" d="M1128.0045,-1084.0018C972.2161,-1050.888 393.7384,-927.9288 232.4921,-893.6548"/>
</g>
<!-- d5 -->
<g id="node15" class="node">
<title>d5</title>
<ellipse fill="#ff3030" stroke="#ff3030" cx="1501.7785" cy="-1553.2118" rx="44.076" ry="44.076"/>
<text text-anchor="middle" x="1501.7785" y="-1541.2118" font-family="times-roman-bold" font-size="40.00" fill="#000000">¬d</text>
</g>
<!-- d4&#45;&#45;d5 -->
<g id="edge28" class="edge">
<title>d4&#45;&#45;d5</title>
<path fill="none" stroke="#000000" d="M1266.1944,-1417.1973C1316.6747,-1446.3421 1410.4094,-1500.4599 1463.1486,-1530.9088"/>
</g>
<!-- a5&#45;&#45;b5 -->
<g id="edge13" class="edge">
<title>a5&#45;&#45;b5</title>
<path fill="none" stroke="#000000" d="M1389.7701,-1508.1148C1449.21,-1514.3622 1560.8728,-1526.0985 1620.4613,-1532.3614"/>
</g>
<!-- a5&#45;&#45;d5 -->
<g id="edge15" class="edge">
<title>a5&#45;&#45;d5</title>
<path fill="none" stroke="#000000" d="M1388.0411,-1516.2563C1409.7912,-1523.3233 1437.1559,-1532.2147 1459.593,-1539.5049"/>
</g>
<!-- b5&#45;&#45;d5 -->
<g id="edge14" class="edge">
<title>b5&#45;&#45;d5</title>
<path fill="none" stroke="#000000" d="M1620.7139,-1540.7112C1597.9698,-1543.1017 1569.3545,-1546.1093 1545.892,-1548.5753"/>
</g>
<!-- d51 -->
<g id="node30" class="node">
<title>d51</title>
<ellipse fill="#ff3030" stroke="#ff3030" cx="1490.1133" cy="-1664.1985" rx="39.6962" ry="39.6962"/>
<text text-anchor="middle" x="1490.1133" y="-1652.1985" font-family="times-roman-bold" font-size="40.00" fill="#000000">d</text>
</g>
<!-- d5&#45;&#45;d51 -->
<g id="edge43" class="edge">
<title>d5&#45;&#45;d51</title>
<path fill="none" stroke="#000000" d="M1497.1346,-1597.3956C1496.1943,-1606.3422 1495.2109,-1615.6985 1494.2879,-1624.4799"/>
</g>
<!-- e -->
<g id="node17" class="node">
<title>e</title>
<ellipse fill="#ff3030" stroke="#ff3030" cx="1978.3524" cy="-687.181" rx="39.6962" ry="39.6962"/>
<text text-anchor="middle" x="1978.3524" y="-675.181" font-family="times-roman-bold" font-size="40.00" fill="#000000">e</text>
</g>
<!-- c11&#45;&#45;e -->
<g id="edge30" class="edge">
<title>c11&#45;&#45;e</title>
<path fill="none" stroke="#000000" d="M1903.8661,-769.9064C1918.7829,-753.3396 1936.8915,-733.228 1951.5183,-716.9832"/>
</g>
<!-- f -->
<g id="node19" class="node">
<title>f</title>
<ellipse fill="#ffd700" stroke="#ffd700" cx="2351.8276" cy="-1171.9672" rx="39.6962" ry="39.6962"/>
<text text-anchor="middle" x="2351.8276" y="-1159.9672" font-family="times-roman-bold" font-size="40.00" fill="#000000">f</text>
</g>
<!-- c21&#45;&#45;f -->
<g id="edge32" class="edge">
<title>c21&#45;&#45;f</title>
<path fill="none" stroke="#000000" d="M2240.5096,-1171.9672C2262.8916,-1171.9672 2290.0818,-1171.9672 2311.9868,-1171.9672"/>
</g>
<!-- l -->
<g id="node21" class="node">
<title>l</title>
<ellipse fill="#ff3030" stroke="#ff3030" cx="2275.3532" cy="-1498.5444" rx="39.6962" ry="39.6962"/>
<text text-anchor="middle" x="2275.3532" y="-1486.5444" font-family="times-roman-bold" font-size="40.00" fill="#000000">l</text>
</g>
<!-- d21&#45;&#45;l -->
<g id="edge34" class="edge">
<title>d21&#45;&#45;l</title>
<path fill="none" stroke="#000000" d="M2173.5194,-1453.205C2193.6616,-1462.1729 2218.6454,-1473.2964 2238.8255,-1482.2812"/>
</g>
<!-- g -->
<g id="node25" class="node">
<title>g</title>
<ellipse fill="#ff3030" stroke="#ff3030" cx="149.335" cy="-550.6739" rx="39.6962" ry="39.6962"/>
<text text-anchor="middle" x="149.335" y="-538.6739" font-family="times-roman-bold" font-size="40.00" fill="#000000">g</text>
</g>
<!-- c31&#45;&#45;g -->
<g id="edge36" class="edge">
<title>c31&#45;&#45;g</title>
<path fill="none" stroke="#000000" d="M251.1334,-596.0929C230.9982,-587.1092 206.0231,-575.9662 185.85,-566.9657"/>
</g>
<!-- h -->
<g id="node26" class="node">
<title>h</title>
<ellipse fill="#ffd700" stroke="#ffd700" cx="308.2372" cy="-275.6958" rx="39.6962" ry="39.6962"/>
<text text-anchor="middle" x="308.2372" y="-263.6958" font-family="times-roman-bold" font-size="40.00" fill="#000000">h</text>
</g>
<!-- c32&#45;&#45;h -->
<g id="edge38" class="edge">
<title>c32&#45;&#45;h</title>
<path fill="none" stroke="#000000" d="M398.4191,-341.2168C380.5816,-328.2571 358.4564,-312.1822 340.5854,-299.1982"/>
</g>
<!-- i -->
<g id="node27" class="node">
<title>i</title>
<ellipse fill="#ff3030" stroke="#ff3030" cx="520.6534" cy="-39.598" rx="39.6962" ry="39.6962"/>
<text text-anchor="middle" x="520.6534" y="-27.598" font-family="times-roman-bold" font-size="40.00" fill="#000000">i</text>
</g>
<!-- c33&#45;&#45;i -->
<g id="edge40" class="edge">
<title>c33&#45;&#45;i</title>
<path fill="none" stroke="#000000" d="M595.3069,-122.3787C580.5408,-106.0051 562.2254,-85.6957 547.4316,-69.2914"/>
</g>
<!-- j -->
<g id="node29" class="node">
<title>j</title>
<ellipse fill="#ffd700" stroke="#ffd700" cx="39.598" cy="-852.6539" rx="39.6962" ry="39.6962"/>
<text text-anchor="middle" x="39.598" y="-840.6539" font-family="times-roman-bold" font-size="40.00" fill="#000000">j</text>
</g>
<!-- c41&#45;&#45;j -->
<g id="edge42" class="edge">
<title>c41&#45;&#45;j</title>
<path fill="none" stroke="#000000" d="M148.4834,-875.7982C126.5904,-871.1447 99.9945,-865.4916 78.5681,-860.9373"/>
</g>
<!-- k -->
<g id="node31" class="node">
<title>k</title>
<ellipse fill="#ffd700" stroke="#ffd700" cx="1474.3091" cy="-1814.5662" rx="39.6962" ry="39.6962"/>
<text text-anchor="middle" x="1474.3091" y="-1802.5662" font-family="times-roman-bold" font-size="40.00" fill="#000000">k</text>
</g>
<!-- d51&#45;&#45;k -->
<g id="edge44" class="edge">
<title>d51&#45;&#45;k</title>
<path fill="none" stroke="#000000" d="M1485.9609,-1703.7058C1483.6471,-1725.7204 1480.7749,-1753.0477 1478.4611,-1775.0619"/>
</g>
</g>
</svg>